<svg width="128" height="128" viewBox="0 0 128 128" fill="none" xmlns="http://www.w3.org/2000/svg">
<g clip-path="url(#clip0_62_2)">
<path d="M128 0H0V128H128V0Z" fill="#0AA97E"/>
<path d="M30 20H18V108H30V20Z" fill="#111111"/>
<path d="M44 20H18V32H44V20Z" fill="#111111"/>
<path d="M44 96H18V108H44V96Z" fill="#111111"/>
<path d="M110 20H98V108H110V20Z" fill="#111111"/>
<path d="M110 20H84V32H110V20Z" fill="#111111"/>
<path d="M110 96H84V108H110V96Z" fill="#111111"/>
<path d="M58 32H46V96H58V32Z" fill="#111111"/>
<path d="M82 32H70V96H82V32Z" fill="#111111"/>
<path d="M82 58H46V70H82V58Z" fill="#111111"/>
</g>
<defs>
<clipPath id="clip0_62_2">
<rect width="128" height="128" fill="white"/>
</clipPath>
</defs>
</svg>
