<svg width="495" height="504" viewBox="0 0 495 504" fill="none" xmlns="http://www.w3.org/2000/svg">
<g clip-path="url(#clip0_46_2207)">
<path d="M423.418 1V125.99" stroke="#E9E7E7" stroke-width="1.00942"/>
<path d="M19.1055 1V125.99" stroke="#E9E7E7" stroke-width="1.00942"/>
<path d="M1.03516 1V125.99" stroke="#E9E7E7" stroke-width="1.00942"/>
<path d="M405.008 1V125.99" stroke="#E9E7E7" stroke-width="1.00942"/>
<path d="M317.309 1V125.99" stroke="#E9E7E7" stroke-width="1.00942"/>
<path d="M229.59 1V125.99" stroke="#E9E7E7" stroke-width="1.00942"/>
<path d="M141.895 1V125.99" stroke="#E9E7E7" stroke-width="1.00942"/>
<path d="M387.465 1V125.99" stroke="#E9E7E7" stroke-width="1.00942"/>
<path d="M299.777 1V125.99" stroke="#E9E7E7" stroke-width="1.00942"/>
<path d="M299.777 1V125.99" stroke="#E9E7E7" stroke-width="1.00942"/>
<path d="M212.066 1V125.99" stroke="#E9E7E7" stroke-width="1.00942"/>
<path d="M124.355 1V125.99" stroke="#E9E7E7" stroke-width="1.00942"/>
<path d="M369.93 1V125.99" stroke="#E9E7E7" stroke-width="1.00942"/>
<path d="M282.23 1V125.99" stroke="#E9E7E7" stroke-width="1.00942"/>
<path d="M194.52 1V125.99" stroke="#E9E7E7" stroke-width="1.00942"/>
<path d="M106.812 1V125.99" stroke="#E9E7E7" stroke-width="1.00942"/>
<path d="M352.391 1V125.99" stroke="#E9E7E7" stroke-width="1.00942"/>
<path d="M176.977 1V125.99" stroke="#E9E7E7" stroke-width="1.00942"/>
<path d="M493.582 1L493.583 502.033" stroke="#E9E7E7" stroke-width="1.00942"/>
<path d="M89.2695 1V125.99" stroke="#E9E7E7" stroke-width="1.00942"/>
<path d="M334.848 1V125.99" stroke="#E9E7E7" stroke-width="1.00942"/>
<path d="M247.137 1V125.99" stroke="#E9E7E7" stroke-width="1.00942"/>
<path d="M263.816 1V125.99" stroke="#E9E7E7" stroke-width="1.00942"/>
<path d="M159.434 1V125.99" stroke="#E9E7E7" stroke-width="1.00942"/>
<path d="M476.043 1V125.99" stroke="#E9E7E7" stroke-width="1.00942"/>
<path d="M71.7305 1V125.99" stroke="#E9E7E7" stroke-width="1.00942"/>
<path d="M458.5 1V125.99" stroke="#E9E7E7" stroke-width="1.00942"/>
<path d="M54.1836 1V125.99" stroke="#E9E7E7" stroke-width="1.00942"/>
<path d="M440.969 1V125.99" stroke="#E9E7E7" stroke-width="1.00942"/>
<path d="M36.6523 1V125.99" stroke="#E9E7E7" stroke-width="1.00942"/>
<path d="M493.985 18.8595L417.574 18.8594" stroke="#E9E7E7" stroke-width="1.00942"/>
<path d="M18.5787 18.8594H1.03516" stroke="#E9E7E7" stroke-width="1.00942"/>
<path d="M422.555 18.8595L13.2695 18.8594" stroke="#E9E7E7" stroke-width="1.00942"/>
<path d="M18.5787 1L1.03516 1" stroke="#E9E7E7" stroke-width="1.00942"/>
<path d="M493.458 1.00001L13.2695 1" stroke="#E9E7E7" stroke-width="1.00942"/>
<path d="M493.985 126.008H417.574" stroke="#E9E7E7" stroke-width="1.00942"/>
<path d="M18.5787 126.008H1.03516" stroke="#E9E7E7" stroke-width="1.00942"/>
<path d="M422.555 126.008H13.2695" stroke="#E9E7E7" stroke-width="1.00942"/>
<path d="M493.985 108.148H417.574" stroke="#E9E7E7" stroke-width="1.00942"/>
<path d="M18.5787 108.148H1.03516" stroke="#E9E7E7" stroke-width="1.00942"/>
<path d="M422.555 108.148H13.2695" stroke="#E9E7E7" stroke-width="1.00942"/>
<path d="M493.985 90.2892L417.574 90.2891" stroke="#E9E7E7" stroke-width="1.00942"/>
<path d="M18.5787 90.2891H1.03516" stroke="#E9E7E7" stroke-width="1.00942"/>
<path d="M422.555 90.2892L13.2695 90.2891" stroke="#E9E7E7" stroke-width="1.00942"/>
<path d="M493.985 72.4375H417.574" stroke="#E9E7E7" stroke-width="1.00942"/>
<path d="M18.5787 72.4375H1.03516" stroke="#E9E7E7" stroke-width="1.00942"/>
<path d="M422.555 72.4375H13.2695" stroke="#E9E7E7" stroke-width="1.00942"/>
<path d="M493.985 54.5703H417.574" stroke="#E9E7E7" stroke-width="1.00942"/>
<path d="M18.5787 54.5703H1.03516" stroke="#E9E7E7" stroke-width="1.00942"/>
<path d="M422.555 54.5703H13.2695" stroke="#E9E7E7" stroke-width="1.00942"/>
<path d="M493.985 36.7188L417.574 36.7188" stroke="#E9E7E7" stroke-width="1.00942"/>
<path d="M18.5787 36.7188L1.03516 36.7188" stroke="#E9E7E7" stroke-width="1.00942"/>
<path d="M422.555 36.7188L13.2695 36.7188" stroke="#E9E7E7" stroke-width="1.00942"/>
<path d="M423.418 250.984V375.975" stroke="#E9E7E7" stroke-width="1.00942"/>
<path d="M19.1055 250.984V375.975" stroke="#E9E7E7" stroke-width="1.00942"/>
<path d="M1.03516 250.984V375.975" stroke="#E9E7E7" stroke-width="1.00942"/>
<path d="M405.008 250.984V375.975" stroke="#E9E7E7" stroke-width="1.00942"/>
<path d="M317.309 250.984V375.975" stroke="#E9E7E7" stroke-width="1.00942"/>
<path d="M229.59 250.984V375.975" stroke="#E9E7E7" stroke-width="1.00942"/>
<path d="M141.895 250.984V375.975" stroke="#E9E7E7" stroke-width="1.00942"/>
<path d="M387.465 250.984V375.975" stroke="#E9E7E7" stroke-width="1.00942"/>
<path d="M299.777 250.984V375.975" stroke="#E9E7E7" stroke-width="1.00942"/>
<path d="M299.777 250.984V375.975" stroke="#E9E7E7" stroke-width="1.00942"/>
<path d="M212.066 250.984V375.975" stroke="#E9E7E7" stroke-width="1.00942"/>
<path d="M124.355 250.984V375.975" stroke="#E9E7E7" stroke-width="1.00942"/>
<path d="M369.93 250.984V375.975" stroke="#E9E7E7" stroke-width="1.00942"/>
<path d="M282.23 250.984V375.975" stroke="#E9E7E7" stroke-width="1.00942"/>
<path d="M194.52 250.984V375.975" stroke="#E9E7E7" stroke-width="1.00942"/>
<path d="M106.812 250.984V375.975" stroke="#E9E7E7" stroke-width="1.00942"/>
<path d="M352.391 250.984V375.975" stroke="#E9E7E7" stroke-width="1.00942"/>
<path d="M176.977 250.984V375.975" stroke="#E9E7E7" stroke-width="1.00942"/>
<path d="M89.2695 250.984V375.975" stroke="#E9E7E7" stroke-width="1.00942"/>
<path d="M334.848 250.984V375.975" stroke="#E9E7E7" stroke-width="1.00942"/>
<path d="M247.137 250.984V375.975" stroke="#E9E7E7" stroke-width="1.00942"/>
<path d="M263.816 250.984V375.975" stroke="#E9E7E7" stroke-width="1.00942"/>
<path d="M159.434 250.984V375.975" stroke="#E9E7E7" stroke-width="1.00942"/>
<path d="M476.043 250.984V375.975" stroke="#E9E7E7" stroke-width="1.00942"/>
<path d="M71.7305 250.984V375.975" stroke="#E9E7E7" stroke-width="1.00942"/>
<path d="M458.5 250.984V375.975" stroke="#E9E7E7" stroke-width="1.00942"/>
<path d="M54.1836 250.984V375.975" stroke="#E9E7E7" stroke-width="1.00942"/>
<path d="M440.969 250.984V375.975" stroke="#E9E7E7" stroke-width="1.00942"/>
<path d="M36.6523 250.984V375.975" stroke="#E9E7E7" stroke-width="1.00942"/>
<path d="M18.5787 268.836H1.03516" stroke="#E9E7E7" stroke-width="1.00942"/>
<path d="M493.984 268.836H13.2695" stroke="#E9E7E7" stroke-width="1.00942"/>
<path d="M18.5787 250.984H1.03516" stroke="#E9E7E7" stroke-width="1.00942"/>
<path d="M493.984 250.984H13.2695" stroke="#E9E7E7" stroke-width="1.00942"/>
<path d="M493.985 375.969H417.574" stroke="#E9E7E7" stroke-width="1.00942"/>
<path d="M18.5787 375.969H1.03516" stroke="#E9E7E7" stroke-width="1.00942"/>
<path d="M422.555 375.969H13.2695" stroke="#E9E7E7" stroke-width="1.00942"/>
<path d="M18.5787 358.117H1.03516" stroke="#E9E7E7" stroke-width="1.00942"/>
<path d="M493.582 358.117H13.2695" stroke="#E9E7E7" stroke-width="1.00942"/>
<path d="M18.5787 340.258H1.03516" stroke="#E9E7E7" stroke-width="1.00942"/>
<path d="M493.984 340.258H13.2695" stroke="#E9E7E7" stroke-width="1.00942"/>
<path d="M18.5787 322.406H1.03516" stroke="#E9E7E7" stroke-width="1.00942"/>
<path d="M493.984 322.406H13.2695" stroke="#E9E7E7" stroke-width="1.00942"/>
<path d="M18.5787 304.555H1.03516" stroke="#E9E7E7" stroke-width="1.00942"/>
<path d="M493.984 304.555H13.2695" stroke="#E9E7E7" stroke-width="1.00942"/>
<path d="M18.5787 286.688L1.03516 286.688" stroke="#E9E7E7" stroke-width="1.00942"/>
<path d="M493.984 286.688L13.2695 286.688" stroke="#E9E7E7" stroke-width="1.00942"/>
<path d="M423.418 126.008V250.998" stroke="#E9E7E7" stroke-width="1.00942"/>
<path d="M19.1055 126.008V250.998" stroke="#E9E7E7" stroke-width="1.00942"/>
<path d="M1.03516 126.008V250.998" stroke="#E9E7E7" stroke-width="1.00942"/>
<path d="M405.008 126.008V250.998" stroke="#E9E7E7" stroke-width="1.00942"/>
<path d="M317.309 126.008V250.998" stroke="#E9E7E7" stroke-width="1.00942"/>
<path d="M229.59 126.008V250.998" stroke="#E9E7E7" stroke-width="1.00942"/>
<path d="M141.895 126.008V250.998" stroke="#E9E7E7" stroke-width="1.00942"/>
<path d="M387.465 126.008V250.998" stroke="#E9E7E7" stroke-width="1.00942"/>
<path d="M299.777 126.008V250.998" stroke="#E9E7E7" stroke-width="1.00942"/>
<path d="M299.777 126.008V250.998" stroke="#E9E7E7" stroke-width="1.00942"/>
<path d="M212.066 126.008V250.998" stroke="#E9E7E7" stroke-width="1.00942"/>
<path d="M124.355 126.008V250.998" stroke="#E9E7E7" stroke-width="1.00942"/>
<path d="M369.93 126.008V250.998" stroke="#E9E7E7" stroke-width="1.00942"/>
<path d="M282.23 126.008V250.998" stroke="#E9E7E7" stroke-width="1.00942"/>
<path d="M194.52 126.008V250.998" stroke="#E9E7E7" stroke-width="1.00942"/>
<path d="M106.812 126.008V250.998" stroke="#E9E7E7" stroke-width="1.00942"/>
<path d="M352.391 126.008V250.998" stroke="#E9E7E7" stroke-width="1.00942"/>
<path d="M176.977 126.008V250.998" stroke="#E9E7E7" stroke-width="1.00942"/>
<path d="M89.2695 126.008V250.998" stroke="#E9E7E7" stroke-width="1.00942"/>
<path d="M334.848 126.008V250.998" stroke="#E9E7E7" stroke-width="1.00942"/>
<path d="M247.137 126.008V250.998" stroke="#E9E7E7" stroke-width="1.00942"/>
<path d="M263.816 126.008V250.998" stroke="#E9E7E7" stroke-width="1.00942"/>
<path d="M159.434 126.008V250.998" stroke="#E9E7E7" stroke-width="1.00942"/>
<path d="M476.043 126.008V250.998" stroke="#E9E7E7" stroke-width="1.00942"/>
<path d="M71.7305 126.008V250.998" stroke="#E9E7E7" stroke-width="1.00942"/>
<path d="M458.5 126.008V250.998" stroke="#E9E7E7" stroke-width="1.00942"/>
<path d="M54.1836 126.008V250.998" stroke="#E9E7E7" stroke-width="1.00942"/>
<path d="M440.969 126.008V250.998" stroke="#E9E7E7" stroke-width="1.00942"/>
<path d="M36.6523 126.008V250.998" stroke="#E9E7E7" stroke-width="1.00942"/>
<path d="M18.5787 143.852H1.03516" stroke="#E9E7E7" stroke-width="1.00942"/>
<path d="M493.984 143.852H13.2695" stroke="#E9E7E7" stroke-width="1.00942"/>
<path d="M493.985 126.008H417.574" stroke="#E9E7E7" stroke-width="1.00942"/>
<path d="M18.5787 126.008H1.03516" stroke="#E9E7E7" stroke-width="1.00942"/>
<path d="M422.398 126.172H13.1133" stroke="#E9E7E7" stroke-width="1.00942"/>
<path d="M18.5787 250.984H1.03516" stroke="#E9E7E7" stroke-width="1.00942"/>
<path d="M493.984 250.984H13.2695" stroke="#E9E7E7" stroke-width="1.00942"/>
<path d="M18.5787 233.125H1.03516" stroke="#E9E7E7" stroke-width="1.00942"/>
<path d="M493.984 233.125H13.2695" stroke="#E9E7E7" stroke-width="1.00942"/>
<path d="M18.5787 215.273H1.03516" stroke="#E9E7E7" stroke-width="1.00942"/>
<path d="M493.984 215.273H13.2695" stroke="#E9E7E7" stroke-width="1.00942"/>
<path d="M18.5787 197.414H1.03516" stroke="#E9E7E7" stroke-width="1.00942"/>
<path d="M493.984 197.414H13.2695" stroke="#E9E7E7" stroke-width="1.00942"/>
<path d="M18.5787 179.555H1.03516" stroke="#E9E7E7" stroke-width="1.00942"/>
<path d="M493.984 179.555H13.2695" stroke="#E9E7E7" stroke-width="1.00942"/>
<path d="M18.5787 161.703H1.03516" stroke="#E9E7E7" stroke-width="1.00942"/>
<path d="M493.984 161.703H13.2695" stroke="#E9E7E7" stroke-width="1.00942"/>
<path d="M423.418 375.969V500.959" stroke="#E9E7E7" stroke-width="1.00942"/>
<path d="M19.1055 375.969V500.959" stroke="#E9E7E7" stroke-width="1.00942"/>
<path d="M1.03516 375.969V500.959" stroke="#E9E7E7" stroke-width="1.00942"/>
<path d="M405.008 375.969V500.959" stroke="#E9E7E7" stroke-width="1.00942"/>
<path d="M317.309 375.969V500.959" stroke="#E9E7E7" stroke-width="1.00942"/>
<path d="M229.59 375.969V500.959" stroke="#E9E7E7" stroke-width="1.00942"/>
<path d="M141.895 375.969V500.959" stroke="#E9E7E7" stroke-width="1.00942"/>
<path d="M387.465 375.969V500.959" stroke="#E9E7E7" stroke-width="1.00942"/>
<path d="M299.777 375.969V500.959" stroke="#E9E7E7" stroke-width="1.00942"/>
<path d="M299.777 375.969V500.959" stroke="#E9E7E7" stroke-width="1.00942"/>
<path d="M212.066 375.969V500.959" stroke="#E9E7E7" stroke-width="1.00942"/>
<path d="M124.355 375.969V500.959" stroke="#E9E7E7" stroke-width="1.00942"/>
<path d="M369.93 375.969V500.959" stroke="#E9E7E7" stroke-width="1.00942"/>
<path d="M282.23 375.969V500.959" stroke="#E9E7E7" stroke-width="1.00942"/>
<path d="M194.52 375.969V500.959" stroke="#E9E7E7" stroke-width="1.00942"/>
<path d="M106.812 375.969V500.959" stroke="#E9E7E7" stroke-width="1.00942"/>
<path d="M352.391 375.969V500.959" stroke="#E9E7E7" stroke-width="1.00942"/>
<path d="M176.977 375.969V500.959" stroke="#E9E7E7" stroke-width="1.00942"/>
<path d="M89.2695 375.969V500.959" stroke="#E9E7E7" stroke-width="1.00942"/>
<path d="M334.848 375.969V500.959" stroke="#E9E7E7" stroke-width="1.00942"/>
<path d="M247.137 375.969V500.959" stroke="#E9E7E7" stroke-width="1.00942"/>
<path d="M263.816 375.969V500.959" stroke="#E9E7E7" stroke-width="1.00942"/>
<path d="M159.434 375.969V500.959" stroke="#E9E7E7" stroke-width="1.00942"/>
<path d="M476.043 375.969V500.959" stroke="#E9E7E7" stroke-width="1.00942"/>
<path d="M71.7305 375.969V500.959" stroke="#E9E7E7" stroke-width="1.00942"/>
<path d="M458.5 375.969V500.959" stroke="#E9E7E7" stroke-width="1.00942"/>
<path d="M54.1836 375.969V500.959" stroke="#E9E7E7" stroke-width="1.00942"/>
<path d="M440.969 375.969V500.959" stroke="#E9E7E7" stroke-width="1.00942"/>
<path d="M36.6523 375.969V500.959" stroke="#E9E7E7" stroke-width="1.00942"/>
<path d="M493.985 393.828H417.574" stroke="#E9E7E7" stroke-width="1.00942"/>
<path d="M18.5787 393.828H1.03516" stroke="#E9E7E7" stroke-width="1.00942"/>
<path d="M422.555 393.828H13.2695" stroke="#E9E7E7" stroke-width="1.00942"/>
<path d="M493.985 375.969H417.574" stroke="#E9E7E7" stroke-width="1.00942"/>
<path d="M18.5787 375.969H1.03516" stroke="#E9E7E7" stroke-width="1.00942"/>
<path d="M422.555 375.969H13.2695" stroke="#E9E7E7" stroke-width="1.00942"/>
<path d="M18.5787 500.969H1.03516" stroke="#E9E7E7" stroke-width="1.00942"/>
<path d="M493.962 500.969H13.2695" stroke="#E9E7E7" stroke-width="1.00942"/>
<path d="M493.985 483.109H417.574" stroke="#E9E7E7" stroke-width="1.00942"/>
<path d="M18.5787 483.109H1.03516" stroke="#E9E7E7" stroke-width="1.00942"/>
<path d="M422.555 483.109H13.2695" stroke="#E9E7E7" stroke-width="1.00942"/>
<path d="M493.985 465.258H417.574" stroke="#E9E7E7" stroke-width="1.00942"/>
<path d="M18.5787 465.258H1.03516" stroke="#E9E7E7" stroke-width="1.00942"/>
<path d="M422.555 465.258H13.2695" stroke="#E9E7E7" stroke-width="1.00942"/>
<path d="M493.985 447.398H417.574" stroke="#E9E7E7" stroke-width="1.00942"/>
<path d="M18.5787 447.398H1.03516" stroke="#E9E7E7" stroke-width="1.00942"/>
<path d="M422.555 447.398H13.2695" stroke="#E9E7E7" stroke-width="1.00942"/>
<path d="M493.985 429.539H417.574" stroke="#E9E7E7" stroke-width="1.00942"/>
<path d="M18.5787 429.539H1.03516" stroke="#E9E7E7" stroke-width="1.00942"/>
<path d="M422.555 429.539H13.2695" stroke="#E9E7E7" stroke-width="1.00942"/>
<path d="M493.985 411.688L417.574 411.688" stroke="#E9E7E7" stroke-width="1.00942"/>
<path d="M18.5787 411.688L1.03516 411.688" stroke="#E9E7E7" stroke-width="1.00942"/>
<path d="M422.555 411.688L13.2695 411.688" stroke="#E9E7E7" stroke-width="1.00942"/>
<path d="M451.508 1H493.541V50.5518" stroke="#161715" stroke-opacity="0.17" stroke-width="2"/>
<path d="M45.1915 500.961H1.05469V451.409" stroke="#161715" stroke-opacity="0.17" stroke-width="2"/>
<path d="M1 50.5624L1 1.01074H45.137" stroke="#161715" stroke-opacity="0.17" stroke-width="2"/>
<path d="M493.942 452.484V502.036H449.805" stroke="#161715" stroke-opacity="0.17" stroke-width="2"/>
<path d="M99.3511 138.992H36.5V166.971H99.3511V138.992Z" fill="#889079" fill-opacity="0.24"/>
<path d="M99.3511 138.992H36.5V166.971H99.3511V138.992Z" stroke="#889079" stroke-width="0.897872"/>
<path d="M45.2938 158.628C44.6042 158.628 44.0104 158.513 43.5124 158.283C43.024 158.053 42.6457 157.723 42.3775 157.292C42.1093 156.861 41.9705 156.349 41.9609 155.755H43.2538C43.2538 156.282 43.431 156.698 43.7854 157.005C44.1493 157.311 44.6521 157.464 45.2938 157.464C45.8971 157.464 46.3664 157.316 46.7016 157.019C47.0464 156.722 47.2188 156.31 47.2188 155.784C47.2188 155.362 47.1039 154.993 46.874 154.677C46.6538 154.361 46.3329 154.141 45.9115 154.017L44.4893 153.571C43.771 153.351 43.2155 152.982 42.8228 152.465C42.4397 151.948 42.2482 151.34 42.2482 150.641C42.2482 150.076 42.3727 149.587 42.6217 149.175C42.8803 148.754 43.2394 148.428 43.6992 148.198C44.1589 147.959 44.7 147.839 45.3225 147.839C46.2419 147.839 46.9794 148.098 47.5349 148.615C48.0903 149.123 48.3729 149.803 48.3825 150.655H47.0895C47.0895 150.138 46.9315 149.736 46.6154 149.448C46.309 149.151 45.8732 149.003 45.3081 149.003C44.7527 149.003 44.3169 149.137 44.0008 149.405C43.6944 149.673 43.5411 150.047 43.5411 150.526C43.5411 150.957 43.6561 151.33 43.8859 151.646C44.1158 151.962 44.4462 152.187 44.8772 152.321L46.3138 152.781C47.0129 153.001 47.554 153.375 47.9371 153.902C48.3202 154.428 48.5118 155.046 48.5118 155.755C48.5118 156.329 48.3777 156.832 48.1095 157.263C47.8413 157.694 47.463 158.029 46.9746 158.269C46.4957 158.508 45.9355 158.628 45.2938 158.628ZM53.4911 158.484V149.161H50.6179V147.983H57.6573V149.161H54.7841V158.484H53.4911ZM60.1657 158.484V147.997H66.1994V149.175H61.4443V152.422H65.6966V153.586H61.4443V157.306H66.1994V158.484H60.1657ZM68.952 158.484V147.997H72.328C72.9793 147.997 73.5444 148.127 74.0232 148.385C74.5021 148.634 74.8708 148.988 75.1294 149.448C75.3976 149.908 75.5316 150.454 75.5316 151.086C75.5316 151.708 75.3976 152.254 75.1294 152.724C74.8708 153.183 74.5021 153.542 74.0232 153.801C73.5444 154.05 72.9793 154.175 72.328 154.175H70.245V158.484H68.952ZM70.245 153.011H72.328C72.8931 153.011 73.3432 152.839 73.6784 152.494C74.0232 152.139 74.1956 151.67 74.1956 151.086C74.1956 150.492 74.0232 150.023 73.6784 149.678C73.3432 149.333 72.8931 149.161 72.328 149.161H70.245V153.011ZM86.7259 158.484V157.306H89.5703V149.075L86.7259 151.201V149.764L89.0963 147.997H90.8633V157.306H93.1906V158.484H86.7259Z" fill="#889079"/>
<path d="M67.927 198.672L71.8149 191.938H64.0391L67.927 198.672ZM67.927 173.531H67.2536V174.788H67.927H68.6004V173.531H67.927ZM67.927 177.302H67.2536V179.816H67.927H68.6004V177.302H67.927ZM67.927 182.33H67.2536V184.844H67.927H68.6004V182.33H67.927ZM67.927 187.358H67.2536V189.873H67.927H68.6004V187.358H67.927ZM67.927 192.387H67.2536V194.901H67.927H68.6004V192.387H67.927Z" fill="#889079"/>
<path d="M99.3511 205.234H36.5V233.213H99.3511V205.234Z" fill="#889079" fill-opacity="0.24"/>
<path d="M99.3511 205.234H36.5V233.213H99.3511V205.234Z" stroke="#889079" stroke-width="0.897872"/>
<path d="M45.2938 224.87C44.6042 224.87 44.0104 224.755 43.5124 224.525C43.024 224.296 42.6457 223.965 42.3775 223.534C42.1093 223.103 41.9705 222.591 41.9609 221.997H43.2538C43.2538 222.524 43.431 222.94 43.7854 223.247C44.1493 223.553 44.6521 223.707 45.2938 223.707C45.8971 223.707 46.3664 223.558 46.7016 223.261C47.0464 222.964 47.2188 222.553 47.2188 222.026C47.2188 221.604 47.1039 221.236 46.874 220.92C46.6538 220.604 46.3329 220.383 45.9115 220.259L44.4893 219.813C43.771 219.593 43.2155 219.224 42.8228 218.707C42.4397 218.19 42.2482 217.582 42.2482 216.883C42.2482 216.318 42.3727 215.829 42.6217 215.417C42.8803 214.996 43.2394 214.67 43.6992 214.441C44.1589 214.201 44.7 214.081 45.3225 214.081C46.2419 214.081 46.9794 214.34 47.5349 214.857C48.0903 215.365 48.3729 216.045 48.3825 216.897H47.0895C47.0895 216.38 46.9315 215.978 46.6154 215.69C46.309 215.393 45.8732 215.245 45.3081 215.245C44.7527 215.245 44.3169 215.379 44.0008 215.647C43.6944 215.915 43.5411 216.289 43.5411 216.768C43.5411 217.199 43.6561 217.572 43.8859 217.888C44.1158 218.204 44.4462 218.429 44.8772 218.564L46.3138 219.023C47.0129 219.244 47.554 219.617 47.9371 220.144C48.3202 220.671 48.5118 221.288 48.5118 221.997C48.5118 222.572 48.3777 223.074 48.1095 223.505C47.8413 223.936 47.463 224.272 46.9746 224.511C46.4957 224.751 45.9355 224.87 45.2938 224.87ZM53.4911 224.727V215.403H50.6179V214.225H57.6573V215.403H54.7841V224.727H53.4911ZM60.1657 224.727V214.239H66.1994V215.417H61.4443V218.664H65.6966V219.828H61.4443V223.549H66.1994V224.727H60.1657ZM68.952 224.727V214.239H72.328C72.9793 214.239 73.5444 214.369 74.0232 214.627C74.5021 214.876 74.8708 215.231 75.1294 215.69C75.3976 216.15 75.5316 216.696 75.5316 217.328C75.5316 217.951 75.3976 218.497 75.1294 218.966C74.8708 219.426 74.5021 219.785 74.0232 220.043C73.5444 220.292 72.9793 220.417 72.328 220.417H70.245V224.727H68.952ZM70.245 219.253H72.328C72.8931 219.253 73.3432 219.081 73.6784 218.736C74.0232 218.382 74.1956 217.912 74.1956 217.328C74.1956 216.734 74.0232 216.265 73.6784 215.92C73.3432 215.575 72.8931 215.403 72.328 215.403H70.245V219.253ZM86.7546 224.727V223.405L89.9582 220C90.5041 219.416 90.9016 218.899 91.1506 218.449C91.3996 217.989 91.5241 217.548 91.5241 217.127C91.5241 216.543 91.3613 216.083 91.0357 215.748C90.7196 215.413 90.2838 215.245 89.7284 215.245C89.1154 215.245 88.6318 215.417 88.2774 215.762C87.9326 216.107 87.7602 216.581 87.7602 217.184H86.4673C86.4864 216.552 86.6301 216.006 86.8983 215.547C87.176 215.077 87.5543 214.718 88.0332 214.469C88.5216 214.22 89.0867 214.096 89.7284 214.096C90.3605 214.096 90.9064 214.22 91.3661 214.469C91.8354 214.709 92.1945 215.053 92.4435 215.504C92.6925 215.954 92.817 216.49 92.817 217.113C92.817 217.706 92.659 218.295 92.343 218.88C92.0269 219.464 91.5097 220.129 90.7914 220.876L88.2056 223.549H92.9894V224.727H86.7546Z" fill="#889079"/>
<path d="M67.927 264.922L71.8149 258.188H64.0391L67.927 264.922ZM67.927 239.781H67.2536V241.038H67.927H68.6004V239.781H67.927ZM67.927 243.552H67.2536V246.066H67.927H68.6004V243.552H67.927ZM67.927 248.58H67.2536V251.094H67.927H68.6004V248.58H67.927ZM67.927 253.608H67.2536V256.123H67.927H68.6004V253.608H67.927ZM67.927 258.637H67.2536V261.151H67.927H68.6004V258.637H67.927Z" fill="#889079"/>
<path d="M99.3511 271.484H36.5V299.463H99.3511V271.484Z" fill="#FF6666" fill-opacity="0.16"/>
<path d="M99.3511 271.484H36.5V299.463H99.3511V271.484Z" stroke="#FF6666" stroke-width="0.897872"/>
<path d="M45.2938 291.12C44.6042 291.12 44.0104 291.005 43.5124 290.775C43.024 290.546 42.6457 290.215 42.3775 289.784C42.1093 289.353 41.9705 288.841 41.9609 288.247H43.2538C43.2538 288.774 43.431 289.19 43.7854 289.497C44.1493 289.803 44.6521 289.957 45.2938 289.957C45.8971 289.957 46.3664 289.808 46.7016 289.511C47.0464 289.214 47.2188 288.803 47.2188 288.276C47.2188 287.854 47.1039 287.486 46.874 287.17C46.6538 286.854 46.3329 286.633 45.9115 286.509L44.4893 286.063C43.771 285.843 43.2155 285.474 42.8228 284.957C42.4397 284.44 42.2482 283.832 42.2482 283.133C42.2482 282.568 42.3727 282.079 42.6217 281.667C42.8803 281.246 43.2394 280.92 43.6992 280.691C44.1589 280.451 44.7 280.331 45.3225 280.331C46.2419 280.331 46.9794 280.59 47.5349 281.107C48.0903 281.615 48.3729 282.295 48.3825 283.147H47.0895C47.0895 282.63 46.9315 282.228 46.6154 281.94C46.309 281.643 45.8732 281.495 45.3081 281.495C44.7527 281.495 44.3169 281.629 44.0008 281.897C43.6944 282.165 43.5411 282.539 43.5411 283.018C43.5411 283.449 43.6561 283.822 43.8859 284.138C44.1158 284.454 44.4462 284.679 44.8772 284.814L46.3138 285.273C47.0129 285.494 47.554 285.867 47.9371 286.394C48.3202 286.921 48.5118 287.538 48.5118 288.247C48.5118 288.822 48.3777 289.324 48.1095 289.755C47.8413 290.186 47.463 290.522 46.9746 290.761C46.4957 291.001 45.9355 291.12 45.2938 291.12ZM53.4911 290.977V281.653H50.6179V280.475H57.6573V281.653H54.7841V290.977H53.4911ZM60.1657 290.977V280.489H66.1994V281.667H61.4443V284.914H65.6966V286.078H61.4443V289.799H66.1994V290.977H60.1657ZM68.952 290.977V280.489H72.328C72.9793 280.489 73.5444 280.619 74.0232 280.877C74.5021 281.126 74.8708 281.481 75.1294 281.94C75.3976 282.4 75.5316 282.946 75.5316 283.578C75.5316 284.201 75.3976 284.747 75.1294 285.216C74.8708 285.676 74.5021 286.035 74.0232 286.293C73.5444 286.542 72.9793 286.667 72.328 286.667H70.245V290.977H68.952ZM70.245 285.503H72.328C72.8931 285.503 73.3432 285.331 73.6784 284.986C74.0232 284.632 74.1956 284.162 74.1956 283.578C74.1956 282.984 74.0232 282.515 73.6784 282.17C73.3432 281.825 72.8931 281.653 72.328 281.653H70.245V285.503ZM89.5847 291.12C88.9526 291.12 88.3971 290.996 87.9182 290.747C87.449 290.488 87.085 290.134 86.8264 289.684C86.5678 289.233 86.4386 288.707 86.4386 288.103H87.7315C87.7315 288.688 87.8943 289.147 88.2199 289.483C88.5551 289.808 89.0149 289.971 89.5991 289.971C90.1929 289.971 90.6526 289.799 90.9782 289.454C91.3038 289.109 91.4666 288.659 91.4666 288.103V287.356C91.4666 286.763 91.3038 286.303 90.9782 285.977C90.6526 285.652 90.1929 285.489 89.5991 285.489H88.5216V284.196L91.1219 281.667H86.8695V280.489H92.4292V281.782L89.6278 284.498V284.339C90.5855 284.339 91.3469 284.612 91.912 285.158C92.477 285.704 92.7596 286.437 92.7596 287.356V288.103C92.7596 288.707 92.6255 289.233 92.3573 289.684C92.0987 290.134 91.73 290.488 91.2512 290.747C90.7723 290.996 90.2168 291.12 89.5847 291.12Z" fill="#9E2626"/>
<path d="M67.927 331.164L71.8149 324.43H64.0391L67.927 331.164ZM67.927 306.023H67.2536V307.28H67.927H68.6004V306.023H67.927ZM67.927 309.795H67.2536V312.309H67.927H68.6004V309.795H67.927ZM67.927 314.823H67.2536V317.337H67.927H68.6004V314.823H67.927ZM67.927 319.851H67.2536V322.365H67.927H68.6004V319.851H67.927ZM67.927 324.879H67.2536V327.393H67.927H68.6004V324.879H67.927Z" fill="#FF6666"/>
<path d="M99.3511 337.727H36.5V365.705H99.3511V337.727Z" fill="#889079" fill-opacity="0.24"/>
<path d="M99.3511 337.727H36.5V365.705H99.3511V337.727Z" stroke="#889079" stroke-width="0.897872"/>
<path d="M45.2938 357.362C44.6042 357.362 44.0104 357.247 43.5124 357.018C43.024 356.788 42.6457 356.457 42.3775 356.026C42.1093 355.595 41.9705 355.083 41.9609 354.489H43.2538C43.2538 355.016 43.431 355.433 43.7854 355.739C44.1493 356.046 44.6521 356.199 45.2938 356.199C45.8971 356.199 46.3664 356.05 46.7016 355.753C47.0464 355.457 47.2188 355.045 47.2188 354.518C47.2188 354.097 47.1039 353.728 46.874 353.412C46.6538 353.096 46.3329 352.875 45.9115 352.751L44.4893 352.306C43.771 352.085 43.2155 351.717 42.8228 351.199C42.4397 350.682 42.2482 350.074 42.2482 349.375C42.2482 348.81 42.3727 348.321 42.6217 347.91C42.8803 347.488 43.2394 347.163 43.6992 346.933C44.1589 346.693 44.7 346.574 45.3225 346.574C46.2419 346.574 46.9794 346.832 47.5349 347.349C48.0903 347.857 48.3729 348.537 48.3825 349.389H47.0895C47.0895 348.872 46.9315 348.47 46.6154 348.183C46.309 347.886 45.8732 347.737 45.3081 347.737C44.7527 347.737 44.3169 347.871 44.0008 348.139C43.6944 348.408 43.5411 348.781 43.5411 349.26C43.5411 349.691 43.6561 350.065 43.8859 350.381C44.1158 350.697 44.4462 350.922 44.8772 351.056L46.3138 351.515C47.0129 351.736 47.554 352.109 47.9371 352.636C48.3202 353.163 48.5118 353.78 48.5118 354.489C48.5118 355.064 48.3777 355.567 48.1095 355.998C47.8413 356.429 47.463 356.764 46.9746 357.003C46.4957 357.243 45.9355 357.362 45.2938 357.362ZM53.4911 357.219V347.895H50.6179V346.717H57.6573V347.895H54.7841V357.219H53.4911ZM60.1657 357.219V346.732H66.1994V347.91H61.4443V351.156H65.6966V352.32H61.4443V356.041H66.1994V357.219H60.1657ZM68.952 357.219V346.732H72.328C72.9793 346.732 73.5444 346.861 74.0232 347.119C74.5021 347.368 74.8708 347.723 75.1294 348.183C75.3976 348.642 75.5316 349.188 75.5316 349.82C75.5316 350.443 75.3976 350.989 75.1294 351.458C74.8708 351.918 74.5021 352.277 74.0232 352.535C73.5444 352.784 72.9793 352.909 72.328 352.909H70.245V357.219H68.952ZM70.245 351.745H72.328C72.8931 351.745 73.3432 351.573 73.6784 351.228C74.0232 350.874 74.1956 350.404 74.1956 349.82C74.1956 349.226 74.0232 348.757 73.6784 348.412C73.3432 348.068 72.8931 347.895 72.328 347.895H70.245V351.745ZM91.323 357.219V354.92H86.5822V352.895L90.734 346.732H92.1418L87.8752 353.168V353.742H91.323V351.185H92.6159V357.219H91.323Z" fill="#889079"/>
<path d="M457.827 139.666H144.918V365.032H457.827V139.666Z" fill="#889079" stroke="#889079" stroke-width="1.34681"/>
<path d="M457.827 158.072H144.918V365.032H457.827V158.072Z" fill="white" stroke="#889079" stroke-width="1.34681"/>
<path d="M144.246 263.797H458.501V292.08H144.246V263.797Z" fill="#FF6E6E" fill-opacity="0.16"/>
<mask id="mask0_46_2207" style="mask-type:luminance" maskUnits="userSpaceOnUse" x="144" y="263" width="315" height="30">
<path d="M144.246 263.797H458.501V292.08H144.246V263.797Z" fill="white"/>
</mask>
<g mask="url(#mask0_46_2207)">
<path d="M458.5 263.797H457.153V292.08H458.5H459.847V263.797H458.5ZM144.245 292.08H145.591V263.797H144.245H142.898V292.08H144.245Z" fill="#FF6E6E"/>
</g>
<path d="M156.816 144.828H149.633V152.011H156.816V144.828Z" fill="white" fill-opacity="0.533333"/>
<path d="M169.386 144.828H162.203V152.011H169.386V144.828Z" fill="white" fill-opacity="0.533333"/>
<path d="M181.956 144.828H174.773V152.011H181.956V144.828Z" fill="white" fill-opacity="0.533333"/>
<path d="M153.457 183.07V182.04H155.946V174.837L153.457 176.697V175.44L155.531 173.894H157.077V182.04H159.113V183.07H153.457ZM163.885 183.196C163.567 183.196 163.311 183.104 163.118 182.919C162.934 182.735 162.842 182.488 162.842 182.178C162.842 181.851 162.934 181.591 163.118 181.398C163.311 181.206 163.567 181.109 163.885 181.109C164.204 181.109 164.455 181.206 164.639 181.398C164.832 181.591 164.929 181.851 164.929 182.178C164.929 182.488 164.832 182.735 164.639 182.919C164.455 183.104 164.204 183.196 163.885 183.196Z" fill="#889079"/>
<path d="M153.481 216.289V215.133L156.284 212.153C156.762 211.642 157.11 211.19 157.327 210.796C157.545 210.394 157.654 210.008 157.654 209.639C157.654 209.128 157.512 208.726 157.227 208.433C156.95 208.139 156.569 207.993 156.083 207.993C155.547 207.993 155.124 208.144 154.813 208.445C154.512 208.747 154.361 209.162 154.361 209.69H153.23C153.246 209.137 153.372 208.659 153.607 208.257C153.85 207.846 154.181 207.532 154.6 207.314C155.027 207.096 155.522 206.987 156.083 206.987C156.636 206.987 157.114 207.096 157.516 207.314C157.927 207.523 158.241 207.825 158.459 208.219C158.677 208.613 158.786 209.082 158.786 209.627C158.786 210.146 158.647 210.662 158.371 211.173C158.094 211.684 157.642 212.267 157.013 212.92L154.751 215.258H158.936V216.289H153.481ZM163.884 216.415C163.566 216.415 163.31 216.323 163.117 216.138C162.933 215.954 162.841 215.707 162.841 215.397C162.841 215.07 162.933 214.81 163.117 214.617C163.31 214.424 163.566 214.328 163.884 214.328C164.203 214.328 164.454 214.424 164.638 214.617C164.831 214.81 164.928 215.07 164.928 215.397C164.928 215.707 164.831 215.954 164.638 216.138C164.454 216.323 164.203 216.415 163.884 216.415Z" fill="#889079"/>
<path d="M178.678 217.404C178.142 217.404 177.673 217.323 177.27 217.16C176.878 216.987 176.562 216.748 176.322 216.441C176.092 216.135 175.954 215.771 175.906 215.35H177.199C177.256 215.627 177.409 215.848 177.658 216.01C177.917 216.173 178.257 216.255 178.678 216.255H179.282C179.789 216.255 180.168 216.154 180.417 215.953C180.666 215.742 180.79 215.465 180.79 215.12C180.79 214.785 180.675 214.521 180.445 214.33C180.225 214.129 179.895 213.994 179.454 213.927L178.391 213.755C177.615 213.621 177.036 213.382 176.653 213.037C176.279 212.682 176.092 212.17 176.092 211.5C176.092 210.791 176.317 210.245 176.768 209.862C177.218 209.469 177.893 209.273 178.793 209.273H179.339C180.096 209.273 180.704 209.45 181.164 209.804C181.623 210.159 181.901 210.638 181.997 211.241H180.704C180.646 210.992 180.503 210.796 180.273 210.652C180.043 210.499 179.732 210.422 179.339 210.422H178.793C178.305 210.422 177.946 210.513 177.716 210.695C177.495 210.877 177.385 211.15 177.385 211.514C177.385 211.84 177.481 212.079 177.673 212.232C177.864 212.385 178.166 212.496 178.578 212.563L179.641 212.735C180.493 212.869 181.111 213.118 181.494 213.482C181.887 213.846 182.083 214.373 182.083 215.062C182.083 215.79 181.848 216.365 181.379 216.786C180.919 217.198 180.22 217.404 179.282 217.404H178.678ZM188.686 217.289C188.006 217.289 187.474 217.107 187.091 216.743C186.718 216.379 186.531 215.867 186.531 215.206V210.566H184.304V209.388H186.531V207.161H187.824V209.388H190.984V210.566H187.824V215.206C187.824 215.809 188.111 216.111 188.686 216.111H190.841V217.289H188.686ZM196.725 217.433C196.103 217.433 195.557 217.308 195.087 217.059C194.628 216.81 194.268 216.461 194.01 216.01C193.761 215.551 193.636 215.019 193.636 214.416V212.261C193.636 211.648 193.761 211.116 194.01 210.666C194.268 210.216 194.628 209.867 195.087 209.618C195.557 209.369 196.103 209.244 196.725 209.244C197.348 209.244 197.889 209.369 198.348 209.618C198.818 209.867 199.177 210.216 199.426 210.666C199.684 211.116 199.814 211.648 199.814 212.261V213.654H194.901V214.416C194.901 215.038 195.059 215.517 195.375 215.852C195.691 216.178 196.141 216.341 196.725 216.341C197.223 216.341 197.625 216.255 197.932 216.082C198.238 215.9 198.425 215.632 198.492 215.278H199.785C199.699 215.939 199.373 216.465 198.808 216.858C198.253 217.241 197.558 217.433 196.725 217.433ZM198.55 212.793V212.261C198.55 211.638 198.391 211.16 198.075 210.824C197.769 210.489 197.319 210.322 196.725 210.322C196.141 210.322 195.691 210.489 195.375 210.824C195.059 211.16 194.901 211.638 194.901 212.261V212.678H198.65L198.55 212.793ZM202.638 219.875V209.388H203.931V210.896H204.19L203.931 211.198C203.931 210.595 204.127 210.12 204.52 209.776C204.922 209.421 205.449 209.244 206.1 209.244C206.895 209.244 207.527 209.508 207.997 210.034C208.476 210.551 208.715 211.265 208.715 212.175V214.488C208.715 215.091 208.605 215.613 208.385 216.054C208.174 216.494 207.872 216.834 207.48 217.074C207.096 217.313 206.637 217.433 206.1 217.433C205.459 217.433 204.937 217.256 204.535 216.901C204.132 216.547 203.931 216.073 203.931 215.479L204.19 215.781H203.902L203.931 217.576V219.875H202.638ZM205.669 216.312C206.215 216.312 206.642 216.149 206.948 215.824C207.264 215.498 207.422 215.029 207.422 214.416V212.261C207.422 211.648 207.264 211.179 206.948 210.853C206.642 210.527 206.215 210.365 205.669 210.365C205.143 210.365 204.721 210.532 204.405 210.867C204.089 211.203 203.931 211.667 203.931 212.261V214.416C203.931 215.01 204.089 215.474 204.405 215.809C204.721 216.145 205.143 216.312 205.669 216.312ZM211.511 217.289V216.111H214.355V207.879L211.511 210.006V208.569L213.881 206.802H215.648V216.111H217.975V217.289H211.511ZM226.087 219.013C224.727 218.678 223.668 218.017 222.912 217.03C222.155 216.044 221.777 214.837 221.777 213.41V210.824C221.777 209.886 221.949 209.038 222.294 208.282C222.648 207.515 223.146 206.869 223.788 206.342C224.439 205.815 225.205 205.442 226.087 205.222V206.443C225.474 206.586 224.942 206.864 224.492 207.276C224.042 207.678 223.692 208.181 223.443 208.784C223.194 209.388 223.07 210.068 223.07 210.824V213.41C223.07 214.148 223.189 214.818 223.429 215.421C223.678 216.025 224.027 216.528 224.478 216.93C224.937 217.323 225.474 217.591 226.087 217.734V219.013ZM234.359 217.433C233.995 217.433 233.708 217.327 233.497 217.117C233.277 216.906 233.167 216.623 233.167 216.269C233.167 215.896 233.277 215.599 233.497 215.378C233.708 215.158 233.995 215.048 234.359 215.048C234.723 215.048 235.015 215.158 235.235 215.378C235.446 215.599 235.551 215.896 235.551 216.269C235.551 216.623 235.446 216.906 235.235 217.117C235.015 217.327 234.723 217.433 234.359 217.433ZM241.528 217.433C241.164 217.433 240.876 217.327 240.666 217.117C240.445 216.906 240.335 216.623 240.335 216.269C240.335 215.896 240.445 215.599 240.666 215.378C240.876 215.158 241.164 215.048 241.528 215.048C241.891 215.048 242.184 215.158 242.404 215.378C242.615 215.599 242.72 215.896 242.72 216.269C242.72 216.623 242.615 216.906 242.404 217.117C242.184 217.327 241.891 217.433 241.528 217.433ZM248.696 217.433C248.332 217.433 248.04 217.327 247.82 217.117C247.609 216.906 247.504 216.623 247.504 216.269C247.504 215.896 247.609 215.599 247.82 215.378C248.04 215.158 248.332 215.048 248.696 215.048C249.06 215.048 249.347 215.158 249.558 215.378C249.778 215.599 249.889 215.896 249.889 216.269C249.889 216.623 249.778 216.906 249.558 217.117C249.347 217.327 249.06 217.433 248.696 217.433ZM256.376 219.013V217.734C256.999 217.591 257.535 217.323 257.985 216.93C258.435 216.528 258.78 216.025 259.02 215.421C259.269 214.818 259.393 214.148 259.393 213.41V210.824C259.393 210.068 259.269 209.388 259.02 208.784C258.771 208.181 258.421 207.678 257.971 207.276C257.521 206.864 256.989 206.586 256.376 206.443V205.222C257.267 205.442 258.033 205.815 258.675 206.342C259.317 206.869 259.81 207.515 260.155 208.282C260.509 209.038 260.686 209.886 260.686 210.824V213.41C260.686 214.837 260.308 216.044 259.551 217.03C258.795 218.017 257.736 218.678 256.376 219.013Z" fill="#889079"/>
<path d="M155.96 249.641C155.407 249.641 154.921 249.532 154.502 249.315C154.092 249.088 153.773 248.778 153.547 248.384C153.321 247.99 153.207 247.53 153.207 247.002H154.339C154.339 247.513 154.481 247.915 154.766 248.208C155.059 248.493 155.462 248.636 155.973 248.636C156.492 248.636 156.895 248.485 157.18 248.183C157.465 247.881 157.607 247.488 157.607 247.002V246.348C157.607 245.828 157.465 245.426 157.18 245.141C156.895 244.856 156.492 244.714 155.973 244.714H155.03V243.582L157.305 241.37H153.585V240.339H158.449V241.471L155.998 243.846V243.708C156.836 243.708 157.502 243.947 157.997 244.425C158.491 244.902 158.738 245.543 158.738 246.348V247.002C158.738 247.53 158.621 247.99 158.386 248.384C158.16 248.778 157.837 249.088 157.418 249.315C156.999 249.532 156.513 249.641 155.96 249.641ZM163.887 249.641C163.569 249.641 163.313 249.549 163.12 249.365C162.936 249.18 162.844 248.933 162.844 248.623C162.844 248.296 162.936 248.037 163.12 247.844C163.313 247.651 163.569 247.555 163.887 247.555C164.206 247.555 164.457 247.651 164.641 247.844C164.834 248.037 164.931 248.296 164.931 248.623C164.931 248.933 164.834 249.18 164.641 249.365C164.457 249.549 164.206 249.641 163.887 249.641Z" fill="#889079"/>
<path d="M178.678 250.631C178.142 250.631 177.673 250.549 177.27 250.386C176.878 250.214 176.562 249.975 176.322 249.668C176.092 249.362 175.954 248.998 175.906 248.576H177.199C177.256 248.854 177.409 249.074 177.658 249.237C177.917 249.4 178.257 249.481 178.678 249.481H179.282C179.789 249.481 180.168 249.381 180.417 249.18C180.666 248.969 180.79 248.691 180.79 248.346C180.79 248.011 180.675 247.748 180.445 247.556C180.225 247.355 179.895 247.221 179.454 247.154L178.391 246.982C177.615 246.848 177.036 246.608 176.653 246.263C176.279 245.909 176.092 245.397 176.092 244.726C176.092 244.017 176.317 243.472 176.768 243.088C177.218 242.696 177.893 242.499 178.793 242.499H179.339C180.096 242.499 180.704 242.677 181.164 243.031C181.623 243.385 181.901 243.864 181.997 244.468H180.704C180.646 244.219 180.503 244.022 180.273 243.879C180.043 243.725 179.732 243.649 179.339 243.649H178.793C178.305 243.649 177.946 243.74 177.716 243.922C177.495 244.104 177.385 244.377 177.385 244.741C177.385 245.066 177.481 245.306 177.673 245.459C177.864 245.612 178.166 245.722 178.578 245.789L179.641 245.962C180.493 246.096 181.111 246.345 181.494 246.709C181.887 247.073 182.083 247.599 182.083 248.289C182.083 249.017 181.848 249.591 181.379 250.013C180.919 250.425 180.22 250.631 179.282 250.631H178.678ZM188.686 250.516C188.006 250.516 187.474 250.334 187.091 249.97C186.718 249.606 186.531 249.093 186.531 248.433V243.792H184.304V242.614H186.531V240.388H187.824V242.614H190.984V243.792H187.824V248.433C187.824 249.036 188.111 249.338 188.686 249.338H190.841V250.516H188.686ZM196.725 250.659C196.103 250.659 195.557 250.535 195.087 250.286C194.628 250.037 194.268 249.687 194.01 249.237C193.761 248.777 193.636 248.246 193.636 247.642V245.488C193.636 244.875 193.761 244.343 194.01 243.893C194.268 243.443 194.628 243.093 195.087 242.844C195.557 242.595 196.103 242.471 196.725 242.471C197.348 242.471 197.889 242.595 198.348 242.844C198.818 243.093 199.177 243.443 199.426 243.893C199.684 244.343 199.814 244.875 199.814 245.488V246.881H194.901V247.642C194.901 248.265 195.059 248.744 195.375 249.079C195.691 249.405 196.141 249.567 196.725 249.567C197.223 249.567 197.625 249.481 197.932 249.309C198.238 249.127 198.425 248.859 198.492 248.504H199.785C199.699 249.165 199.373 249.692 198.808 250.085C198.253 250.468 197.558 250.659 196.725 250.659ZM198.55 246.019V245.488C198.55 244.865 198.391 244.386 198.075 244.051C197.769 243.716 197.319 243.548 196.725 243.548C196.141 243.548 195.691 243.716 195.375 244.051C195.059 244.386 194.901 244.865 194.901 245.488V245.904H198.65L198.55 246.019ZM202.638 253.101V242.614H203.931V244.123H204.19L203.931 244.424C203.931 243.821 204.127 243.347 204.52 243.002C204.922 242.648 205.449 242.471 206.1 242.471C206.895 242.471 207.527 242.734 207.997 243.261C208.476 243.778 208.715 244.491 208.715 245.401V247.714C208.715 248.318 208.605 248.84 208.385 249.28C208.174 249.721 207.872 250.061 207.48 250.3C207.096 250.54 206.637 250.659 206.1 250.659C205.459 250.659 204.937 250.482 204.535 250.128C204.132 249.773 203.931 249.299 203.931 248.706L204.19 249.007H203.902L203.931 250.803V253.101H202.638ZM205.669 249.539C206.215 249.539 206.642 249.376 206.948 249.05C207.264 248.725 207.422 248.255 207.422 247.642V245.488C207.422 244.875 207.264 244.405 206.948 244.08C206.642 243.754 206.215 243.591 205.669 243.591C205.143 243.591 204.721 243.759 204.405 244.094C204.089 244.429 203.931 244.894 203.931 245.488V247.642C203.931 248.236 204.089 248.701 204.405 249.036C204.721 249.371 205.143 249.539 205.669 249.539ZM211.539 250.516V249.194L214.743 245.789C215.289 245.205 215.686 244.688 215.935 244.238C216.184 243.778 216.309 243.337 216.309 242.916C216.309 242.332 216.146 241.872 215.821 241.537C215.504 241.202 215.069 241.034 214.513 241.034C213.9 241.034 213.417 241.206 213.062 241.551C212.718 241.896 212.545 242.37 212.545 242.973H211.252C211.271 242.341 211.415 241.795 211.683 241.336C211.961 240.866 212.339 240.507 212.818 240.258C213.307 240.009 213.872 239.885 214.513 239.885C215.145 239.885 215.691 240.009 216.151 240.258C216.62 240.498 216.979 240.843 217.228 241.293C217.477 241.743 217.602 242.279 217.602 242.902C217.602 243.495 217.444 244.084 217.128 244.669C216.812 245.253 216.295 245.919 215.576 246.666L212.99 249.338H217.774V250.516H211.539ZM226.087 252.24C224.727 251.904 223.668 251.244 222.912 250.257C222.155 249.271 221.777 248.064 221.777 246.637V244.051C221.777 243.112 221.949 242.265 222.294 241.508C222.648 240.742 223.146 240.096 223.788 239.569C224.439 239.042 225.205 238.668 226.087 238.448V239.669C225.474 239.813 224.942 240.091 224.492 240.503C224.042 240.905 223.692 241.408 223.443 242.011C223.194 242.614 223.07 243.294 223.07 244.051V246.637C223.07 247.374 223.189 248.045 223.429 248.648C223.678 249.251 224.027 249.754 224.478 250.156C224.937 250.549 225.474 250.817 226.087 250.961V252.24ZM234.359 250.659C233.995 250.659 233.708 250.554 233.497 250.343C233.277 250.133 233.167 249.85 233.167 249.496C233.167 249.122 233.277 248.825 233.497 248.605C233.708 248.385 233.995 248.275 234.359 248.275C234.723 248.275 235.015 248.385 235.235 248.605C235.446 248.825 235.551 249.122 235.551 249.496C235.551 249.85 235.446 250.133 235.235 250.343C235.015 250.554 234.723 250.659 234.359 250.659ZM241.528 250.659C241.164 250.659 240.876 250.554 240.666 250.343C240.445 250.133 240.335 249.85 240.335 249.496C240.335 249.122 240.445 248.825 240.666 248.605C240.876 248.385 241.164 248.275 241.528 248.275C241.891 248.275 242.184 248.385 242.404 248.605C242.615 248.825 242.72 249.122 242.72 249.496C242.72 249.85 242.615 250.133 242.404 250.343C242.184 250.554 241.891 250.659 241.528 250.659ZM248.696 250.659C248.332 250.659 248.04 250.554 247.82 250.343C247.609 250.133 247.504 249.85 247.504 249.496C247.504 249.122 247.609 248.825 247.82 248.605C248.04 248.385 248.332 248.275 248.696 248.275C249.06 248.275 249.347 248.385 249.558 248.605C249.778 248.825 249.889 249.122 249.889 249.496C249.889 249.85 249.778 250.133 249.558 250.343C249.347 250.554 249.06 250.659 248.696 250.659ZM256.376 252.24V250.961C256.999 250.817 257.535 250.549 257.985 250.156C258.435 249.754 258.78 249.251 259.02 248.648C259.269 248.045 259.393 247.374 259.393 246.637V244.051C259.393 243.294 259.269 242.614 259.02 242.011C258.771 241.408 258.421 240.905 257.971 240.503C257.521 240.091 256.989 239.813 256.376 239.669V238.448C257.267 238.668 258.033 239.042 258.675 239.569C259.317 240.096 259.81 240.742 260.155 241.508C260.509 242.265 260.686 243.112 260.686 244.051V246.637C260.686 248.064 260.308 249.271 259.551 250.257C258.795 251.244 257.736 251.904 256.376 252.24Z" fill="#889079"/>
<path d="M157.48 282.734V280.723H153.332V278.951L156.965 273.558H158.197L154.463 279.19V279.692H157.48V277.455H158.612V282.734H157.48ZM163.886 282.86C163.568 282.86 163.312 282.768 163.119 282.584C162.935 282.399 162.843 282.152 162.843 281.842C162.843 281.515 162.935 281.255 163.119 281.063C163.312 280.87 163.568 280.773 163.886 280.773C164.205 280.773 164.456 280.87 164.64 281.063C164.833 281.255 164.93 281.515 164.93 281.842C164.93 282.152 164.833 282.399 164.64 282.584C164.456 282.768 164.205 282.86 163.886 282.86Z" fill="#9E2626"/>
<path d="M178.978 283.878C178.288 283.878 177.695 283.763 177.197 283.533C176.708 283.303 176.33 282.973 176.062 282.542C175.793 282.111 175.655 281.599 175.645 281.005H176.938C176.938 281.532 177.115 281.948 177.47 282.255C177.833 282.561 178.336 282.714 178.978 282.714C179.581 282.714 180.051 282.566 180.386 282.269C180.731 281.972 180.903 281.56 180.903 281.034C180.903 280.612 180.788 280.243 180.558 279.927C180.338 279.611 180.017 279.391 179.596 279.267L178.173 278.821C177.455 278.601 176.9 278.232 176.507 277.715C176.124 277.198 175.932 276.59 175.932 275.891C175.932 275.326 176.057 274.837 176.306 274.425C176.564 274.004 176.924 273.678 177.383 273.448C177.843 273.209 178.384 273.089 179.007 273.089C179.926 273.089 180.664 273.348 181.219 273.865C181.775 274.373 182.057 275.053 182.067 275.905H180.774C180.774 275.388 180.616 274.986 180.3 274.698C179.993 274.401 179.557 274.253 178.992 274.253C178.437 274.253 178.001 274.387 177.685 274.655C177.379 274.923 177.225 275.297 177.225 275.776C177.225 276.207 177.34 276.58 177.57 276.896C177.8 277.212 178.13 277.437 178.561 277.571L179.998 278.031C180.697 278.251 181.238 278.625 181.621 279.152C182.004 279.678 182.196 280.296 182.196 281.005C182.196 281.579 182.062 282.082 181.794 282.513C181.526 282.944 181.147 283.279 180.659 283.519C180.18 283.758 179.62 283.878 178.978 283.878ZM187.175 283.734V274.411H184.302V273.233H191.341V274.411H188.468V283.734H187.175ZM193.85 283.734V273.247H199.884V274.425H195.128V277.672H199.381V278.836H195.128V282.556H199.884V283.734H193.85ZM202.636 283.734V273.247H206.012C206.663 273.247 207.229 273.377 207.707 273.635C208.186 273.884 208.555 274.238 208.814 274.698C209.082 275.158 209.216 275.704 209.216 276.336C209.216 276.958 209.082 277.504 208.814 277.974C208.555 278.433 208.186 278.792 207.707 279.051C207.229 279.3 206.663 279.425 206.012 279.425H203.929V283.734H202.636ZM203.929 278.261H206.012C206.577 278.261 207.027 278.089 207.363 277.744C207.707 277.389 207.88 276.92 207.88 276.336C207.88 275.742 207.707 275.273 207.363 274.928C207.027 274.583 206.577 274.411 206.012 274.411H203.929V278.261ZM214.368 283.878C213.735 283.878 213.18 283.754 212.701 283.505C212.232 283.246 211.868 282.892 211.609 282.441C211.351 281.991 211.221 281.465 211.221 280.861H212.514C212.514 281.445 212.677 281.905 213.003 282.24C213.338 282.566 213.798 282.729 214.382 282.729C214.976 282.729 215.435 282.556 215.761 282.212C216.087 281.867 216.25 281.417 216.25 280.861V280.114C216.25 279.52 216.087 279.061 215.761 278.735C215.435 278.409 214.976 278.247 214.382 278.247H213.305V276.954L215.905 274.425H211.652V273.247H217.212V274.54L214.411 277.255V277.097C215.368 277.097 216.13 277.37 216.695 277.916C217.26 278.462 217.542 279.195 217.542 280.114V280.861C217.542 281.465 217.408 281.991 217.14 282.441C216.882 282.892 216.513 283.246 216.034 283.505C215.555 283.754 215 283.878 214.368 283.878ZM226.085 285.458C224.725 285.123 223.666 284.462 222.91 283.476C222.153 282.489 221.775 281.283 221.775 279.856V277.27C221.775 276.331 221.947 275.484 222.292 274.727C222.646 273.961 223.144 273.314 223.786 272.788C224.437 272.261 225.203 271.887 226.085 271.667V272.888C225.472 273.032 224.94 273.309 224.49 273.721C224.04 274.124 223.69 274.626 223.441 275.23C223.192 275.833 223.068 276.513 223.068 277.27V279.856C223.068 280.593 223.187 281.263 223.427 281.867C223.676 282.47 224.025 282.973 224.476 283.375C224.935 283.768 225.472 284.036 226.085 284.18V285.458ZM234.357 283.878C233.993 283.878 233.706 283.773 233.495 283.562C233.275 283.351 233.165 283.069 233.165 282.714C233.165 282.341 233.275 282.044 233.495 281.824C233.706 281.603 233.993 281.493 234.357 281.493C234.721 281.493 235.013 281.603 235.233 281.824C235.444 282.044 235.549 282.341 235.549 282.714C235.549 283.069 235.444 283.351 235.233 283.562C235.013 283.773 234.721 283.878 234.357 283.878ZM241.526 283.878C241.162 283.878 240.874 283.773 240.664 283.562C240.443 283.351 240.333 283.069 240.333 282.714C240.333 282.341 240.443 282.044 240.664 281.824C240.874 281.603 241.162 281.493 241.526 281.493C241.889 281.493 242.182 281.603 242.402 281.824C242.613 282.044 242.718 282.341 242.718 282.714C242.718 283.069 242.613 283.351 242.402 283.562C242.182 283.773 241.889 283.878 241.526 283.878ZM248.694 283.878C248.33 283.878 248.038 283.773 247.818 283.562C247.607 283.351 247.502 283.069 247.502 282.714C247.502 282.341 247.607 282.044 247.818 281.824C248.038 281.603 248.33 281.493 248.694 281.493C249.058 281.493 249.345 281.603 249.556 281.824C249.776 282.044 249.887 282.341 249.887 282.714C249.887 283.069 249.776 283.351 249.556 283.562C249.345 283.773 249.058 283.878 248.694 283.878ZM256.374 285.458V284.18C256.997 284.036 257.533 283.768 257.983 283.375C258.433 282.973 258.778 282.47 259.018 281.867C259.267 281.263 259.391 280.593 259.391 279.856V277.27C259.391 276.513 259.267 275.833 259.018 275.23C258.769 274.626 258.419 274.124 257.969 273.721C257.519 273.309 256.987 273.032 256.374 272.888V271.667C257.265 271.887 258.031 272.261 258.673 272.788C259.315 273.314 259.808 273.961 260.153 274.727C260.507 275.484 260.684 276.331 260.684 277.27V279.856C260.684 281.283 260.306 282.489 259.549 283.476C258.793 284.462 257.734 285.123 256.374 285.458Z" fill="#9E2626"/>
<path d="M278.797 285.315L283.897 271.811H285.262L280.162 285.315H278.797ZM272.332 285.315L277.432 271.811H278.797L273.697 285.315H272.332ZM297.964 283.734V273.233H304.142V274.411H299.229V277.902H303.768V279.08H299.257V283.734H297.964ZM306.219 283.734L308.949 273.247H310.687L313.402 283.734H312.095L311.405 280.947H308.23L307.541 283.734H306.219ZM308.489 279.856H311.132L310.328 276.623C310.175 276.01 310.055 275.498 309.969 275.086C309.882 274.674 309.83 274.406 309.811 274.282C309.791 274.406 309.739 274.674 309.653 275.086C309.566 275.498 309.447 276.005 309.293 276.609L308.489 279.856ZM315.911 283.734V282.556H318.051V274.425H315.911V273.247H321.513V274.425H319.373V282.556H321.513V283.734H315.911ZM324.956 283.734V273.247H326.248V282.556H330.989V283.734H324.956Z" fill="#9E2626"/>
<path d="M156.072 316.079C155.327 316.079 154.715 315.886 154.237 315.501C153.76 315.115 153.479 314.596 153.395 313.942H154.526C154.568 314.302 154.723 314.583 154.991 314.784C155.26 314.977 155.624 315.073 156.085 315.073C156.613 315.073 157.007 314.931 157.267 314.646C157.535 314.361 157.669 313.959 157.669 313.439V312.547C157.669 312.027 157.535 311.625 157.267 311.34C157.007 311.055 156.617 310.912 156.098 310.912C155.771 310.912 155.486 311 155.243 311.176C155 311.344 154.824 311.57 154.715 311.855H153.584L153.646 306.777H158.473V307.808H154.74L154.702 310.862H155.054L154.702 311.189C154.702 310.795 154.857 310.485 155.167 310.259C155.486 310.033 155.909 309.919 156.437 309.919C157.183 309.911 157.761 310.141 158.172 310.611C158.591 311.072 158.8 311.717 158.8 312.547V313.439C158.8 314.252 158.561 314.897 158.084 315.375C157.606 315.844 156.936 316.079 156.072 316.079ZM163.886 316.079C163.568 316.079 163.312 315.987 163.119 315.802C162.935 315.618 162.843 315.371 162.843 315.061C162.843 314.734 162.935 314.474 163.119 314.281C163.312 314.089 163.568 313.992 163.886 313.992C164.205 313.992 164.456 314.089 164.64 314.281C164.833 314.474 164.93 314.734 164.93 315.061C164.93 315.371 164.833 315.618 164.64 315.802C164.456 315.987 164.205 316.079 163.886 316.079Z" fill="#889079"/>
<path d="M178.678 317.068C178.142 317.068 177.673 316.987 177.27 316.824C176.878 316.651 176.562 316.412 176.322 316.106C176.092 315.799 175.954 315.435 175.906 315.014H177.199C177.256 315.291 177.409 315.512 177.658 315.675C177.917 315.837 178.257 315.919 178.678 315.919H179.282C179.789 315.919 180.168 315.818 180.417 315.617C180.666 315.406 180.79 315.129 180.79 314.784C180.79 314.449 180.675 314.185 180.445 313.994C180.225 313.793 179.895 313.659 179.454 313.591L178.391 313.419C177.615 313.285 177.036 313.046 176.653 312.701C176.279 312.346 176.092 311.834 176.092 311.164C176.092 310.455 176.317 309.909 176.768 309.526C177.218 309.133 177.893 308.937 178.793 308.937H179.339C180.096 308.937 180.704 309.114 181.164 309.468C181.623 309.823 181.901 310.302 181.997 310.905H180.704C180.646 310.656 180.503 310.46 180.273 310.316C180.043 310.163 179.732 310.086 179.339 310.086H178.793C178.305 310.086 177.946 310.177 177.716 310.359C177.495 310.541 177.385 310.814 177.385 311.178C177.385 311.504 177.481 311.743 177.673 311.896C177.864 312.05 178.166 312.16 178.578 312.227L179.641 312.399C180.493 312.533 181.111 312.782 181.494 313.146C181.887 313.51 182.083 314.037 182.083 314.726C182.083 315.454 181.848 316.029 181.379 316.45C180.919 316.862 180.22 317.068 179.282 317.068H178.678ZM188.686 316.953C188.006 316.953 187.474 316.771 187.091 316.407C186.718 316.043 186.531 315.531 186.531 314.87V310.23H184.304V309.052H186.531V306.825H187.824V309.052H190.984V310.23H187.824V314.87C187.824 315.473 188.111 315.775 188.686 315.775H190.841V316.953H188.686ZM196.725 317.097C196.103 317.097 195.557 316.972 195.087 316.723C194.628 316.474 194.268 316.125 194.01 315.675C193.761 315.215 193.636 314.683 193.636 314.08V311.925C193.636 311.312 193.761 310.781 194.01 310.33C194.268 309.88 194.628 309.531 195.087 309.282C195.557 309.033 196.103 308.908 196.725 308.908C197.348 308.908 197.889 309.033 198.348 309.282C198.818 309.531 199.177 309.88 199.426 310.33C199.684 310.781 199.814 311.312 199.814 311.925V313.319H194.901V314.08C194.901 314.702 195.059 315.181 195.375 315.517C195.691 315.842 196.141 316.005 196.725 316.005C197.223 316.005 197.625 315.919 197.932 315.746C198.238 315.564 198.425 315.296 198.492 314.942H199.785C199.699 315.603 199.373 316.129 198.808 316.522C198.253 316.905 197.558 317.097 196.725 317.097ZM198.55 312.457V311.925C198.55 311.303 198.391 310.824 198.075 310.488C197.769 310.153 197.319 309.986 196.725 309.986C196.141 309.986 195.691 310.153 195.375 310.488C195.059 310.824 194.901 311.303 194.901 311.925V312.342H198.65L198.55 312.457ZM202.638 319.539V309.052H203.931V310.56H204.19L203.931 310.862C203.931 310.259 204.127 309.785 204.52 309.44C204.922 309.085 205.449 308.908 206.1 308.908C206.895 308.908 207.527 309.172 207.997 309.698C208.476 310.215 208.715 310.929 208.715 311.839V314.152C208.715 314.755 208.605 315.277 208.385 315.718C208.174 316.158 207.872 316.498 207.48 316.738C207.096 316.977 206.637 317.097 206.1 317.097C205.459 317.097 204.937 316.92 204.535 316.565C204.132 316.211 203.931 315.737 203.931 315.143L204.19 315.445H203.902L203.931 317.24V319.539H202.638ZM205.669 315.976C206.215 315.976 206.642 315.813 206.948 315.488C207.264 315.162 207.422 314.693 207.422 314.08V311.925C207.422 311.312 207.264 310.843 206.948 310.517C206.642 310.192 206.215 310.029 205.669 310.029C205.143 310.029 204.721 310.196 204.405 310.532C204.089 310.867 203.931 311.331 203.931 311.925V314.08C203.931 314.674 204.089 315.138 204.405 315.473C204.721 315.809 205.143 315.976 205.669 315.976ZM216.108 316.953V314.655H211.367V312.629L215.519 306.466H216.927L212.66 312.902V313.477H216.108V310.919H217.401V316.953H216.108ZM226.087 318.677C224.727 318.342 223.668 317.681 222.912 316.695C222.155 315.708 221.777 314.501 221.777 313.074V310.488C221.777 309.55 221.949 308.702 222.294 307.946C222.648 307.179 223.146 306.533 223.788 306.006C224.439 305.48 225.205 305.106 226.087 304.886V306.107C225.474 306.25 224.942 306.528 224.492 306.94C224.042 307.342 223.692 307.845 223.443 308.448C223.194 309.052 223.07 309.732 223.07 310.488V313.074C223.07 313.812 223.189 314.482 223.429 315.086C223.678 315.689 224.027 316.192 224.478 316.594C224.937 316.987 225.474 317.255 226.087 317.398V318.677ZM234.359 317.097C233.995 317.097 233.708 316.991 233.497 316.781C233.277 316.57 233.167 316.288 233.167 315.933C233.167 315.56 233.277 315.263 233.497 315.042C233.708 314.822 233.995 314.712 234.359 314.712C234.723 314.712 235.015 314.822 235.235 315.042C235.446 315.263 235.551 315.56 235.551 315.933C235.551 316.288 235.446 316.57 235.235 316.781C235.015 316.991 234.723 317.097 234.359 317.097ZM241.528 317.097C241.164 317.097 240.876 316.991 240.666 316.781C240.445 316.57 240.335 316.288 240.335 315.933C240.335 315.56 240.445 315.263 240.666 315.042C240.876 314.822 241.164 314.712 241.528 314.712C241.891 314.712 242.184 314.822 242.404 315.042C242.615 315.263 242.72 315.56 242.72 315.933C242.72 316.288 242.615 316.57 242.404 316.781C242.184 316.991 241.891 317.097 241.528 317.097ZM248.696 317.097C248.332 317.097 248.04 316.991 247.82 316.781C247.609 316.57 247.504 316.288 247.504 315.933C247.504 315.56 247.609 315.263 247.82 315.042C248.04 314.822 248.332 314.712 248.696 314.712C249.06 314.712 249.347 314.822 249.558 315.042C249.778 315.263 249.889 315.56 249.889 315.933C249.889 316.288 249.778 316.57 249.558 316.781C249.347 316.991 249.06 317.097 248.696 317.097ZM256.376 318.677V317.398C256.999 317.255 257.535 316.987 257.985 316.594C258.435 316.192 258.78 315.689 259.02 315.086C259.269 314.482 259.393 313.812 259.393 313.074V310.488C259.393 309.732 259.269 309.052 259.02 308.448C258.771 307.845 258.421 307.342 257.971 306.94C257.521 306.528 256.989 306.25 256.376 306.107V304.886C257.267 305.106 258.033 305.48 258.675 306.006C259.317 306.533 259.81 307.179 260.155 307.946C260.509 308.702 260.686 309.55 260.686 310.488V313.074C260.686 314.501 260.308 315.708 259.551 316.695C258.795 317.681 257.736 318.342 256.376 318.677Z" fill="#889079"/>
<path d="M156.109 349.305C155.523 349.305 155.007 349.184 154.563 348.941C154.127 348.689 153.788 348.342 153.545 347.898C153.302 347.453 153.18 346.938 153.18 346.351C153.18 345.89 153.243 345.438 153.369 344.994C153.503 344.55 153.7 344.122 153.96 343.712L156.26 340.003H157.517L154.915 344.177L154.965 344.214C155.125 343.98 155.342 343.8 155.619 343.674C155.895 343.548 156.206 343.485 156.549 343.485C157.052 343.485 157.488 343.603 157.856 343.837C158.225 344.072 158.51 344.403 158.711 344.83C158.912 345.258 159.013 345.765 159.013 346.351C159.013 346.938 158.891 347.453 158.648 347.898C158.405 348.342 158.066 348.689 157.63 348.941C157.203 349.184 156.696 349.305 156.109 349.305ZM156.097 348.3C156.633 348.3 157.065 348.124 157.391 347.772C157.718 347.411 157.882 346.938 157.882 346.351C157.882 345.765 157.718 345.295 157.391 344.944C157.065 344.583 156.633 344.403 156.097 344.403C155.56 344.403 155.129 344.583 154.802 344.944C154.475 345.295 154.312 345.765 154.312 346.351C154.312 346.938 154.475 347.411 154.802 347.772C155.129 348.124 155.56 348.3 156.097 348.3ZM163.885 349.305C163.567 349.305 163.311 349.213 163.118 349.029C162.934 348.844 162.842 348.597 162.842 348.287C162.842 347.96 162.934 347.701 163.118 347.508C163.311 347.315 163.567 347.219 163.885 347.219C164.204 347.219 164.455 347.315 164.639 347.508C164.832 347.701 164.929 347.96 164.929 348.287C164.929 348.597 164.832 348.844 164.639 349.029C164.455 349.213 164.204 349.305 163.885 349.305Z" fill="#889079"/>
<path d="M175.832 351.76V350.611H176.478C176.928 350.611 177.273 350.505 177.513 350.295C177.752 350.093 177.862 349.787 177.843 349.375L177.699 347.019C177.661 346.397 177.81 345.899 178.145 345.525C178.49 345.152 178.964 344.965 179.567 344.965V345.037C178.954 345.037 178.48 344.855 178.145 344.491C177.81 344.117 177.661 343.619 177.699 342.997L177.843 340.641C177.862 340.229 177.752 339.922 177.513 339.721C177.273 339.511 176.928 339.405 176.478 339.405H175.832V338.256H176.478C177.043 338.256 177.527 338.352 177.929 338.543C178.341 338.725 178.652 338.993 178.863 339.348C179.074 339.702 179.165 340.133 179.136 340.641L178.992 342.997C178.964 343.504 179.04 343.873 179.222 344.103C179.404 344.323 179.806 344.433 180.429 344.433H182.009V345.583H180.429C179.816 345.583 179.414 345.698 179.222 345.927C179.04 346.148 178.964 346.512 178.992 347.019L179.136 349.375C179.165 349.873 179.074 350.299 178.863 350.654C178.652 351.018 178.341 351.291 177.929 351.473C177.527 351.664 177.043 351.76 176.478 351.76H175.832Z" fill="#889079"/>
<path d="M174.664 184L173.16 173.12H174.6L175.752 182.096H175.864L177.048 174.736H178.6L179.784 182.096H179.896L181.048 173.12H182.408L180.904 184H179.016L177.848 176.528H177.768L176.6 184H174.664ZM183.331 180.416V176.704C183.331 174.165 184.488 172.896 186.803 172.896H186.931C189.245 172.896 190.403 174.165 190.403 176.704V180.416C190.403 182.955 189.256 184.224 186.963 184.224H186.771C184.477 184.224 183.331 182.955 183.331 180.416ZM188.899 180.528V176.608C188.899 175.776 188.733 175.173 188.403 174.8C188.083 174.416 187.571 174.224 186.867 174.224C186.163 174.224 185.645 174.416 185.315 174.8C184.995 175.173 184.835 175.776 184.835 176.608V180.528C184.835 181.349 184.995 181.952 185.315 182.336C185.645 182.709 186.163 182.896 186.867 182.896C187.571 182.896 188.083 182.709 188.403 182.336C188.733 181.952 188.899 181.349 188.899 180.528ZM199.805 184H198.141L196.013 179.632H194.157V184H192.685V173.12H195.501C196.962 173.12 198.018 173.376 198.669 173.888C199.33 174.4 199.661 175.221 199.661 176.352C199.661 177.952 198.946 178.971 197.517 179.408L199.805 184ZM194.157 178.272H195.629C196.536 178.272 197.176 178.133 197.549 177.856C197.933 177.568 198.125 177.077 198.125 176.384C198.125 175.68 197.933 175.189 197.549 174.912C197.176 174.635 196.536 174.496 195.629 174.496H194.157V178.272ZM205.111 178.176L209.415 184H207.559L203.671 178.672H203.575V184H202.071V173.12H203.575V177.792H203.671L207.527 173.12H209.319L205.111 178.176ZM217.89 173.12V174.512H212.546V177.792H217.282V179.168H212.546V184H211.042V173.12H217.89ZM221.852 173.12V182.592H227.068V184H220.348V173.12H221.852ZM228.743 180.416V176.704C228.743 174.165 229.9 172.896 232.215 172.896H232.343C234.658 172.896 235.815 174.165 235.815 176.704V180.416C235.815 182.955 234.668 184.224 232.375 184.224H232.183C229.89 184.224 228.743 182.955 228.743 180.416ZM234.311 180.528V176.608C234.311 175.776 234.146 175.173 233.815 174.8C233.495 174.416 232.983 174.224 232.279 174.224C231.575 174.224 231.058 174.416 230.727 174.8C230.407 175.173 230.247 175.776 230.247 176.608V180.528C230.247 181.349 230.407 181.952 230.727 182.336C231.058 182.709 231.575 182.896 232.279 182.896C232.983 182.896 233.495 182.709 233.815 182.336C234.146 181.952 234.311 181.349 234.311 180.528ZM238.241 184L236.737 173.12H238.177L239.329 182.096H239.441L240.625 174.736H242.177L243.361 182.096H243.473L244.625 173.12H245.985L244.481 184H242.593L241.425 176.528H241.345L240.177 184H238.241ZM249.388 176.176H251.5V178.512H249.388V176.176ZM249.388 181.664H251.5V184H249.388V181.664ZM266.513 180.384V180.64C266.513 182.155 267.238 182.912 268.689 182.912C269.873 182.912 270.561 182.496 270.753 181.664H272.113C271.932 182.485 271.553 183.12 270.977 183.568C270.401 184.005 269.676 184.224 268.801 184.224H268.561C267.462 184.224 266.604 183.899 265.985 183.248C265.377 182.597 265.073 181.664 265.073 180.448V179.536C265.073 178.331 265.382 177.397 266.001 176.736C266.62 176.075 267.468 175.744 268.545 175.744H268.673C269.761 175.744 270.609 176.069 271.217 176.72C271.836 177.371 272.145 178.299 272.145 179.504V180.384H266.513ZM266.513 179.248H270.705C270.694 178.523 270.508 177.973 270.145 177.6C269.793 177.227 269.281 177.04 268.609 177.04C267.233 177.04 266.534 177.776 266.513 179.248ZM276.764 184L273.852 175.968H275.42L277.708 182.496H277.788L280.044 175.968H281.532L278.62 184H276.764ZM283.046 181.872C283.046 180.987 283.323 180.336 283.878 179.92C284.433 179.504 285.318 179.296 286.534 179.296H288.534V178.608C288.534 178.011 288.401 177.589 288.134 177.344C287.867 177.088 287.409 176.96 286.758 176.96C286.075 176.96 285.595 177.067 285.318 177.28C285.051 177.483 284.907 177.845 284.886 178.368H283.446C283.467 176.619 284.545 175.744 286.678 175.744H286.822C287.899 175.744 288.699 175.968 289.222 176.416C289.745 176.853 290.006 177.536 290.006 178.464V184H288.534V183.376L288.614 181.856H288.55C288.411 182.667 288.107 183.264 287.638 183.648C287.179 184.021 286.529 184.208 285.686 184.208C283.926 184.208 283.046 183.429 283.046 181.872ZM288.566 180.352H286.566C285.841 180.352 285.323 180.459 285.014 180.672C284.705 180.885 284.55 181.232 284.55 181.712C284.55 182.501 285.099 182.896 286.198 182.896C287.03 182.896 287.633 182.693 288.006 182.288C288.379 181.872 288.566 181.227 288.566 180.352ZM294.801 180.672V174.416H292.561V173.12H296.273V180.72C296.273 181.456 296.433 181.973 296.753 182.272C297.073 182.56 297.633 182.704 298.433 182.704C298.443 182.704 298.673 182.693 299.121 182.672V184.064C298.993 184.075 298.747 184.08 298.385 184.08C297.105 184.08 296.187 183.813 295.633 183.28C295.078 182.747 294.801 181.877 294.801 180.672ZM308.251 175.968V184H306.779V183.488L306.827 181.856H306.763C306.507 183.445 305.632 184.24 304.139 184.24C302.475 184.24 301.643 183.253 301.643 181.28V175.968H303.115V180.816C303.115 182.171 303.664 182.848 304.763 182.848C305.414 182.848 305.91 182.64 306.251 182.224C306.603 181.797 306.779 181.184 306.779 180.384V175.968H308.251ZM310.294 181.872C310.294 180.987 310.571 180.336 311.126 179.92C311.68 179.504 312.566 179.296 313.782 179.296H315.782V178.608C315.782 178.011 315.648 177.589 315.382 177.344C315.115 177.088 314.656 176.96 314.006 176.96C313.323 176.96 312.843 177.067 312.566 177.28C312.299 177.483 312.155 177.845 312.134 178.368H310.694C310.715 176.619 311.792 175.744 313.926 175.744H314.07C315.147 175.744 315.947 175.968 316.47 176.416C316.992 176.853 317.254 177.536 317.254 178.464V184H315.782V183.376L315.862 181.856H315.798C315.659 182.667 315.355 183.264 314.886 183.648C314.427 184.021 313.776 184.208 312.934 184.208C311.174 184.208 310.294 183.429 310.294 181.872ZM315.814 180.352H313.814C313.088 180.352 312.571 180.459 312.262 180.672C311.952 180.885 311.798 181.232 311.798 181.712C311.798 182.501 312.347 182.896 313.446 182.896C314.278 182.896 314.88 182.693 315.254 182.288C315.627 181.872 315.814 181.227 315.814 180.352ZM326.304 182.672V184.048C325.941 184.069 325.611 184.08 325.312 184.08C323.947 184.08 322.971 183.819 322.384 183.296C321.797 182.763 321.504 181.899 321.504 180.704V177.264H319.36V175.968H321.504V173.744H322.976V175.968H326.144V177.264H322.976V180.752C322.976 181.509 323.136 182.027 323.456 182.304C323.787 182.571 324.389 182.704 325.264 182.704C325.637 182.704 325.984 182.693 326.304 182.672ZM330.09 180.384V180.64C330.09 182.155 330.816 182.912 332.266 182.912C333.45 182.912 334.138 182.496 334.33 181.664H335.69C335.509 182.485 335.13 183.12 334.554 183.568C333.978 184.005 333.253 184.224 332.378 184.224H332.138C331.04 184.224 330.181 183.899 329.562 183.248C328.954 182.597 328.65 181.664 328.65 180.448V179.536C328.65 178.331 328.96 177.397 329.578 176.736C330.197 176.075 331.045 175.744 332.122 175.744H332.25C333.338 175.744 334.186 176.069 334.794 176.72C335.413 177.371 335.722 178.299 335.722 179.504V180.384H330.09ZM330.09 179.248H334.282C334.272 178.523 334.085 177.973 333.722 177.6C333.37 177.227 332.858 177.04 332.186 177.04C330.81 177.04 330.112 177.776 330.09 179.248ZM336.485 185.232V184H346.053V185.232H336.485ZM353.776 180.48C353.776 182.987 352.853 184.24 351.008 184.24C349.568 184.24 348.725 183.445 348.48 181.856H348.416L348.464 183.472V184H346.992V173.12H348.464V176.496L348.416 178.112H348.48C348.714 176.523 349.546 175.728 350.976 175.728C352.842 175.728 353.776 176.987 353.776 179.504V180.48ZM348.432 180.272C348.432 182.021 349.109 182.896 350.464 182.896C351.669 182.896 352.272 182.128 352.272 180.592V179.408C352.272 177.84 351.669 177.056 350.464 177.056C349.802 177.056 349.296 177.285 348.944 177.744C348.602 178.192 348.432 178.843 348.432 179.696V180.272ZM362.746 175.968V184H361.274V183.488L361.322 181.856H361.258C361.002 183.445 360.127 184.24 358.634 184.24C356.97 184.24 356.138 183.253 356.138 181.28V175.968H357.61V180.816C357.61 182.171 358.159 182.848 359.258 182.848C359.909 182.848 360.405 182.64 360.746 182.224C361.098 181.797 361.274 181.184 361.274 180.384V175.968H362.746ZM364.932 181.456H366.436C366.447 182.021 366.618 182.416 366.948 182.64C367.279 182.853 367.844 182.96 368.644 182.96C369.38 182.96 369.898 182.875 370.196 182.704C370.495 182.533 370.644 182.245 370.644 181.84C370.602 181.413 370.458 181.131 370.212 180.992C369.978 180.853 369.466 180.72 368.676 180.592L368.228 180.512C367.098 180.277 366.292 180.005 365.812 179.696C365.343 179.376 365.092 178.827 365.06 178.048C365.06 176.501 366.17 175.728 368.388 175.728C369.583 175.728 370.474 175.952 371.06 176.4C371.647 176.837 371.951 177.515 371.972 178.432H370.468C370.447 177.909 370.276 177.541 369.956 177.328C369.636 177.104 369.103 176.992 368.356 176.992C367.695 176.992 367.22 177.072 366.932 177.232C366.644 177.392 366.5 177.653 366.5 178.016C366.5 178.283 366.575 178.491 366.724 178.64C366.874 178.768 367.082 178.869 367.348 178.944C367.626 179.019 368.127 179.12 368.852 179.248C369.642 179.387 370.266 179.541 370.724 179.712C371.642 180.032 372.1 180.704 372.1 181.728C372.1 182.613 371.823 183.253 371.268 183.648C370.724 184.043 369.839 184.24 368.612 184.24C367.364 184.24 366.447 184.016 365.86 183.568C365.274 183.12 364.964 182.416 364.932 181.456ZM374.543 184V182.704H377.247V177.264H374.863V175.968H378.719V182.704H381.423V184H374.543ZM377.055 172.832H378.815V174.56H377.055V172.832ZM383.386 184V175.968H384.858V176.496L384.81 178.112H384.874C385.13 176.523 385.999 175.728 387.482 175.728C388.314 175.728 388.938 175.984 389.354 176.496C389.78 176.997 389.994 177.728 389.994 178.688V184H388.522V179.168C388.522 177.803 387.967 177.12 386.858 177.12C386.207 177.12 385.711 177.333 385.37 177.76C385.028 178.176 384.858 178.784 384.858 179.584V184H383.386ZM393.668 180.384V180.64C393.668 182.155 394.393 182.912 395.844 182.912C397.028 182.912 397.716 182.496 397.908 181.664H399.268C399.087 182.485 398.708 183.12 398.132 183.568C397.556 184.005 396.831 184.224 395.956 184.224H395.716C394.617 184.224 393.759 183.899 393.14 183.248C392.532 182.597 392.228 181.664 392.228 180.448V179.536C392.228 178.331 392.537 177.397 393.156 176.736C393.775 176.075 394.623 175.744 395.7 175.744H395.828C396.916 175.744 397.764 176.069 398.372 176.72C398.991 177.371 399.3 178.299 399.3 179.504V180.384H393.668ZM393.668 179.248H397.86C397.849 178.523 397.663 177.973 397.3 177.6C396.948 177.227 396.436 177.04 395.764 177.04C394.388 177.04 393.689 177.776 393.668 179.248ZM401.263 181.456H402.767C402.777 182.021 402.948 182.416 403.279 182.64C403.609 182.853 404.175 182.96 404.975 182.96C405.711 182.96 406.228 182.875 406.527 182.704C406.825 182.533 406.975 182.245 406.975 181.84C406.932 181.413 406.788 181.131 406.543 180.992C406.308 180.853 405.796 180.72 405.007 180.592L404.559 180.512C403.428 180.277 402.623 180.005 402.143 179.696C401.673 179.376 401.423 178.827 401.391 178.048C401.391 176.501 402.5 175.728 404.719 175.728C405.913 175.728 406.804 175.952 407.391 176.4C407.977 176.837 408.281 177.515 408.303 178.432H406.799C406.777 177.909 406.607 177.541 406.287 177.328C405.967 177.104 405.433 176.992 404.687 176.992C404.025 176.992 403.551 177.072 403.263 177.232C402.975 177.392 402.831 177.653 402.831 178.016C402.831 178.283 402.905 178.491 403.055 178.64C403.204 178.768 403.412 178.869 403.679 178.944C403.956 179.019 404.457 179.12 405.183 179.248C405.972 179.387 406.596 179.541 407.055 179.712C407.972 180.032 408.431 180.704 408.431 181.728C408.431 182.613 408.153 183.253 407.599 183.648C407.055 184.043 406.169 184.24 404.943 184.24C403.695 184.24 402.777 184.016 402.191 183.568C401.604 183.12 401.295 182.416 401.263 181.456ZM410.345 181.456H411.849C411.86 182.021 412.03 182.416 412.361 182.64C412.692 182.853 413.257 182.96 414.057 182.96C414.793 182.96 415.31 182.875 415.609 182.704C415.908 182.533 416.057 182.245 416.057 181.84C416.014 181.413 415.87 181.131 415.625 180.992C415.39 180.853 414.878 180.72 414.089 180.592L413.641 180.512C412.51 180.277 411.705 180.005 411.225 179.696C410.756 179.376 410.505 178.827 410.473 178.048C410.473 176.501 411.582 175.728 413.801 175.728C414.996 175.728 415.886 175.952 416.473 176.4C417.06 176.837 417.364 177.515 417.385 178.432H415.881C415.86 177.909 415.689 177.541 415.369 177.328C415.049 177.104 414.516 176.992 413.769 176.992C413.108 176.992 412.633 177.072 412.345 177.232C412.057 177.392 411.913 177.653 411.913 178.016C411.913 178.283 411.988 178.491 412.137 178.64C412.286 178.768 412.494 178.869 412.761 178.944C413.038 179.019 413.54 179.12 414.265 179.248C415.054 179.387 415.678 179.541 416.137 179.712C417.054 180.032 417.513 180.704 417.513 181.728C417.513 182.613 417.236 183.253 416.681 183.648C416.137 184.043 415.252 184.24 414.025 184.24C412.777 184.24 411.86 184.016 411.273 183.568C410.686 183.12 410.377 182.416 410.345 181.456Z" fill="#889079"/>
</g>
<defs>
<clipPath id="clip0_46_2207">
<rect width="495" height="504" fill="white"/>
</clipPath>
</defs>
</svg>
