<svg width="492" height="500" viewBox="0 0 492 500" fill="none" xmlns="http://www.w3.org/2000/svg">
<g clip-path="url(#clip0_55_514)">
<g opacity="0.05">
<path d="M421.441 -15V108.823" stroke="#E9E7E7"/>
<path d="M20.9023 -15V108.823" stroke="#E9E7E7"/>
<path d="M3 -15V108.823" stroke="#E9E7E7"/>
<path d="M403.203 -15V108.823" stroke="#E9E7E7"/>
<path d="M316.32 -15V108.823" stroke="#E9E7E7"/>
<path d="M229.422 -15V108.823" stroke="#E9E7E7"/>
<path d="M142.543 -15V108.823" stroke="#E9E7E7"/>
<path d="M385.824 -15V108.823" stroke="#E9E7E7"/>
<path d="M298.953 -15V108.823" stroke="#E9E7E7"/>
<path d="M298.953 -15V108.823" stroke="#E9E7E7"/>
<path d="M212.059 -15V108.823" stroke="#E9E7E7"/>
<path d="M125.168 -15V108.823" stroke="#E9E7E7"/>
<path d="M368.453 -15V108.823" stroke="#E9E7E7"/>
<path d="M281.57 -15V108.823" stroke="#E9E7E7"/>
<path d="M194.676 -15V108.823" stroke="#E9E7E7"/>
<path d="M107.789 -15V108.823" stroke="#E9E7E7"/>
<path d="M351.078 -15V108.823" stroke="#E9E7E7"/>
<path d="M177.297 -15V108.823" stroke="#E9E7E7"/>
<path d="M490.949 -15V481.355" stroke="#E9E7E7"/>
<path d="M90.4102 -15V108.823" stroke="#E9E7E7"/>
<path d="M333.695 -15V108.823" stroke="#E9E7E7"/>
<path d="M246.805 -15V108.823" stroke="#E9E7E7"/>
<path d="M263.328 -15V108.823" stroke="#E9E7E7"/>
<path d="M159.918 -15V108.823" stroke="#E9E7E7"/>
<path d="M473.574 -15V108.823" stroke="#E9E7E7"/>
<path d="M73.0352 -15V108.823" stroke="#E9E7E7"/>
<path d="M456.195 -15V108.823" stroke="#E9E7E7"/>
<path d="M55.6523 -15V108.823" stroke="#E9E7E7"/>
<path d="M438.828 -15V108.823" stroke="#E9E7E7"/>
<path d="M38.2852 -15V108.823" stroke="#E9E7E7"/>
<path d="M491.346 2.69531H415.648" stroke="#E9E7E7"/>
<path d="M20.3797 2.69531H3" stroke="#E9E7E7"/>
<path d="M420.585 2.69531H15.1211" stroke="#E9E7E7"/>
<path d="M491.346 108.844H415.648" stroke="#E9E7E7"/>
<path d="M20.3798 108.844H3" stroke="#E9E7E7"/>
<path d="M420.585 108.844H15.1211" stroke="#E9E7E7"/>
<path d="M491.346 91.1484H415.648" stroke="#E9E7E7"/>
<path d="M20.3798 91.1484H3" stroke="#E9E7E7"/>
<path d="M420.585 91.1484H15.1211" stroke="#E9E7E7"/>
<path d="M491.346 73.4609H415.648" stroke="#E9E7E7"/>
<path d="M20.3798 73.4609H3" stroke="#E9E7E7"/>
<path d="M420.585 73.4609H15.1211" stroke="#E9E7E7"/>
<path d="M491.346 55.7734H415.648" stroke="#E9E7E7"/>
<path d="M20.3798 55.7734H3" stroke="#E9E7E7"/>
<path d="M420.585 55.7734H15.1211" stroke="#E9E7E7"/>
<path d="M491.346 38.0703H415.648" stroke="#E9E7E7"/>
<path d="M20.3797 38.0703H3" stroke="#E9E7E7"/>
<path d="M420.585 38.0703H15.1211" stroke="#E9E7E7"/>
<path d="M491.346 20.3828H415.648" stroke="#E9E7E7"/>
<path d="M20.3797 20.3828H3" stroke="#E9E7E7"/>
<path d="M420.585 20.3828H15.1211" stroke="#E9E7E7"/>
<path d="M421.441 232.648V356.472" stroke="#E9E7E7"/>
<path d="M20.9023 232.648V356.472" stroke="#E9E7E7"/>
<path d="M3 232.648V356.472" stroke="#E9E7E7"/>
<path d="M403.203 232.648V356.472" stroke="#E9E7E7"/>
<path d="M316.32 232.648V356.472" stroke="#E9E7E7"/>
<path d="M229.422 232.648V356.472" stroke="#E9E7E7"/>
<path d="M142.543 232.648V356.472" stroke="#E9E7E7"/>
<path d="M385.824 232.648V356.472" stroke="#E9E7E7"/>
<path d="M298.953 232.648V356.472" stroke="#E9E7E7"/>
<path d="M298.953 232.648V356.472" stroke="#E9E7E7"/>
<path d="M212.059 232.648V356.472" stroke="#E9E7E7"/>
<path d="M125.168 232.648V356.472" stroke="#E9E7E7"/>
<path d="M368.453 232.648V356.472" stroke="#E9E7E7"/>
<path d="M281.57 232.648V356.472" stroke="#E9E7E7"/>
<path d="M194.676 232.648V356.472" stroke="#E9E7E7"/>
<path d="M107.789 232.648V356.472" stroke="#E9E7E7"/>
<path d="M351.078 232.648V356.472" stroke="#E9E7E7"/>
<path d="M177.297 232.648V356.472" stroke="#E9E7E7"/>
<path d="M90.4102 232.648V356.472" stroke="#E9E7E7"/>
<path d="M333.695 232.648V356.472" stroke="#E9E7E7"/>
<path d="M246.805 232.648V356.472" stroke="#E9E7E7"/>
<path d="M263.328 232.648V356.472" stroke="#E9E7E7"/>
<path d="M159.918 232.648V356.472" stroke="#E9E7E7"/>
<path d="M473.574 232.648V356.472" stroke="#E9E7E7"/>
<path d="M73.0352 232.648V356.472" stroke="#E9E7E7"/>
<path d="M456.195 232.648V356.472" stroke="#E9E7E7"/>
<path d="M55.6523 232.648V356.472" stroke="#E9E7E7"/>
<path d="M438.828 232.648V356.472" stroke="#E9E7E7"/>
<path d="M38.2852 232.648V356.472" stroke="#E9E7E7"/>
<path d="M20.3797 250.336H3" stroke="#E9E7E7"/>
<path d="M491.347 250.336H15.1211" stroke="#E9E7E7"/>
<path d="M20.3797 232.648H3" stroke="#E9E7E7"/>
<path d="M491.347 232.648H15.1211" stroke="#E9E7E7"/>
<path d="M491.346 356.469H415.648" stroke="#E9E7E7"/>
<path d="M20.3797 356.469H3" stroke="#E9E7E7"/>
<path d="M420.585 356.469H15.1211" stroke="#E9E7E7"/>
<path d="M20.3797 338.781H3" stroke="#E9E7E7"/>
<path d="M490.948 338.781H15.1211" stroke="#E9E7E7"/>
<path d="M20.3797 321.094H3" stroke="#E9E7E7"/>
<path d="M491.347 321.094H15.1211" stroke="#E9E7E7"/>
<path d="M20.3797 303.406H3" stroke="#E9E7E7"/>
<path d="M491.347 303.406H15.1211" stroke="#E9E7E7"/>
<path d="M20.3797 285.719H3" stroke="#E9E7E7"/>
<path d="M491.347 285.719H15.1211" stroke="#E9E7E7"/>
<path d="M20.3797 268.023H3" stroke="#E9E7E7"/>
<path d="M491.347 268.023H15.1211" stroke="#E9E7E7"/>
<path d="M421.441 108.844V232.667" stroke="#E9E7E7"/>
<path d="M20.9023 108.844V232.667" stroke="#E9E7E7"/>
<path d="M3.00001 108.844L3 232.667" stroke="#E9E7E7"/>
<path d="M403.203 108.844V232.667" stroke="#E9E7E7"/>
<path d="M316.32 108.844V232.667" stroke="#E9E7E7"/>
<path d="M229.422 108.844V232.667" stroke="#E9E7E7"/>
<path d="M142.543 108.844V232.667" stroke="#E9E7E7"/>
<path d="M385.824 108.844V232.667" stroke="#E9E7E7"/>
<path d="M298.953 108.844V232.667" stroke="#E9E7E7"/>
<path d="M298.953 108.844V232.667" stroke="#E9E7E7"/>
<path d="M212.059 108.844V232.667" stroke="#E9E7E7"/>
<path d="M125.168 108.844V232.667" stroke="#E9E7E7"/>
<path d="M368.453 108.844V232.667" stroke="#E9E7E7"/>
<path d="M281.57 108.844V232.667" stroke="#E9E7E7"/>
<path d="M194.676 108.844V232.667" stroke="#E9E7E7"/>
<path d="M107.789 108.844V232.667" stroke="#E9E7E7"/>
<path d="M351.078 108.844V232.667" stroke="#E9E7E7"/>
<path d="M177.297 108.844V232.667" stroke="#E9E7E7"/>
<path d="M90.4102 108.844V232.667" stroke="#E9E7E7"/>
<path d="M333.695 108.844V232.667" stroke="#E9E7E7"/>
<path d="M246.805 108.844V232.667" stroke="#E9E7E7"/>
<path d="M263.328 108.844V232.667" stroke="#E9E7E7"/>
<path d="M159.918 108.844V232.667" stroke="#E9E7E7"/>
<path d="M473.574 108.844V232.667" stroke="#E9E7E7"/>
<path d="M73.0352 108.844V232.667" stroke="#E9E7E7"/>
<path d="M456.195 108.844V232.667" stroke="#E9E7E7"/>
<path d="M55.6523 108.844V232.667" stroke="#E9E7E7"/>
<path d="M438.828 108.844V232.667" stroke="#E9E7E7"/>
<path d="M38.2852 108.844V232.667" stroke="#E9E7E7"/>
<path d="M20.3797 126.516H3" stroke="#E9E7E7"/>
<path d="M491.347 126.516H15.1211" stroke="#E9E7E7"/>
<path d="M491.346 108.844H415.648" stroke="#E9E7E7"/>
<path d="M20.3798 108.844H3" stroke="#E9E7E7"/>
<path d="M420.585 108.844H15.1211" stroke="#E9E7E7"/>
<path d="M20.3797 232.648H3" stroke="#E9E7E7"/>
<path d="M491.347 232.648H15.1211" stroke="#E9E7E7"/>
<path d="M20.3797 214.961H3" stroke="#E9E7E7"/>
<path d="M491.347 214.961H15.1211" stroke="#E9E7E7"/>
<path d="M20.3797 197.273H3" stroke="#E9E7E7"/>
<path d="M491.347 197.273H15.1211" stroke="#E9E7E7"/>
<path d="M20.3797 179.578H3" stroke="#E9E7E7"/>
<path d="M491.347 179.578H15.1211" stroke="#E9E7E7"/>
<path d="M20.3797 161.891H3" stroke="#E9E7E7"/>
<path d="M491.347 161.891H15.1211" stroke="#E9E7E7"/>
<path d="M20.3797 144.203H3" stroke="#E9E7E7"/>
<path d="M491.347 144.203H15.1211" stroke="#E9E7E7"/>
<path d="M421.441 356.469V480.292" stroke="#E9E7E7"/>
<path d="M20.9023 356.469V480.292" stroke="#E9E7E7"/>
<path d="M3 356.469V480.292" stroke="#E9E7E7"/>
<path d="M403.203 356.469V480.292" stroke="#E9E7E7"/>
<path d="M316.32 356.469V480.292" stroke="#E9E7E7"/>
<path d="M229.422 356.469V480.292" stroke="#E9E7E7"/>
<path d="M142.543 356.469V480.292" stroke="#E9E7E7"/>
<path d="M385.824 356.469V480.292" stroke="#E9E7E7"/>
<path d="M298.953 356.469V480.292" stroke="#E9E7E7"/>
<path d="M298.953 356.469V480.292" stroke="#E9E7E7"/>
<path d="M212.059 356.469V480.292" stroke="#E9E7E7"/>
<path d="M125.168 356.469V480.292" stroke="#E9E7E7"/>
<path d="M368.453 356.469V480.292" stroke="#E9E7E7"/>
<path d="M281.57 356.469V480.292" stroke="#E9E7E7"/>
<path d="M194.676 356.469V480.292" stroke="#E9E7E7"/>
<path d="M107.789 356.469V480.292" stroke="#E9E7E7"/>
<path d="M351.078 356.469V480.292" stroke="#E9E7E7"/>
<path d="M177.297 356.469V480.292" stroke="#E9E7E7"/>
<path d="M90.4102 356.469V480.292" stroke="#E9E7E7"/>
<path d="M333.695 356.469V480.292" stroke="#E9E7E7"/>
<path d="M246.805 356.469V480.292" stroke="#E9E7E7"/>
<path d="M263.328 356.469V480.292" stroke="#E9E7E7"/>
<path d="M159.918 356.469V480.292" stroke="#E9E7E7"/>
<path d="M473.574 356.469V480.292" stroke="#E9E7E7"/>
<path d="M73.0352 356.469V480.292" stroke="#E9E7E7"/>
<path d="M456.195 356.469V480.292" stroke="#E9E7E7"/>
<path d="M55.6523 356.469V480.292" stroke="#E9E7E7"/>
<path d="M438.828 356.469V480.292" stroke="#E9E7E7"/>
<path d="M38.2852 356.469V480.292" stroke="#E9E7E7"/>
<path d="M491.346 374.164H415.648" stroke="#E9E7E7"/>
<path d="M20.3797 374.164H3" stroke="#E9E7E7"/>
<path d="M420.585 374.164H15.1211" stroke="#E9E7E7"/>
<path d="M491.346 356.469H415.648" stroke="#E9E7E7"/>
<path d="M20.3797 356.469H3" stroke="#E9E7E7"/>
<path d="M420.585 356.469H15.1211" stroke="#E9E7E7"/>
<path d="M20.3797 480.297H3" stroke="#E9E7E7"/>
<path d="M491.325 480.297H15.1211" stroke="#E9E7E7"/>
<path d="M491.346 462.609H415.648" stroke="#E9E7E7"/>
<path d="M20.3797 462.609H3" stroke="#E9E7E7"/>
<path d="M420.585 462.609H15.1211" stroke="#E9E7E7"/>
<path d="M491.346 444.922H415.648" stroke="#E9E7E7"/>
<path d="M20.3797 444.922H3" stroke="#E9E7E7"/>
<path d="M420.585 444.922H15.1211" stroke="#E9E7E7"/>
<path d="M491.346 427.227H415.648" stroke="#E9E7E7"/>
<path d="M20.3797 427.227H3" stroke="#E9E7E7"/>
<path d="M420.585 427.227H15.1211" stroke="#E9E7E7"/>
<path d="M491.346 409.539H415.648" stroke="#E9E7E7"/>
<path d="M20.3797 409.539H3" stroke="#E9E7E7"/>
<path d="M420.585 409.539H15.1211" stroke="#E9E7E7"/>
<path d="M491.346 391.852H415.648" stroke="#E9E7E7"/>
<path d="M20.3797 391.852H3" stroke="#E9E7E7"/>
<path d="M420.585 391.852H15.1211" stroke="#E9E7E7"/>
</g>
<path d="M447.801 1.5H489.441V50.5891" stroke="#256957" stroke-width="3"/>
<path d="M45.2755 496.789H1.55078V447.7" stroke="#256957" stroke-width="3"/>
<path d="M1.5 50.594V1.50489L45.2249 1.50488" stroke="#256957" stroke-width="3"/>
<path d="M489.838 448.766V497.855H446.113" stroke="#256957" stroke-width="3"/>
<path d="M329.365 40.1094H164.582V220.366H329.365V40.1094Z" fill="#15221D" stroke="#0AA67D" stroke-width="0.836461"/>
<path d="M300.907 73H199.277V82.6193H300.907V73Z" fill="#133228"/>
<path d="M260 88H199V97H260V88Z" fill="#133228"/>
<path d="M194.257 73H170V97.2574H194.257V73Z" fill="#133228"/>
<path d="M300.907 145H199.277V154.619H300.907V145Z" fill="#133228"/>
<path d="M260 160H199V169H260V160Z" fill="#133228"/>
<path d="M194.257 145H170V169.257H194.257V145Z" fill="#133228"/>
<path d="M193.007 118.879L294.637 118.879V109.26L193.007 109.26V118.879Z" fill="#133228"/>
<path d="M233.914 132.64H294.914V123.64L233.914 123.64V132.64Z" fill="#133228"/>
<path d="M299.657 133.257H323.914V108.999H299.657V133.257Z" fill="#133228"/>
<path d="M192.999 190.88L294.629 190.88V181.261L192.999 181.261V190.88Z" fill="#133228"/>
<path d="M233.906 204.641H294.906V195.641H233.906V204.641Z" fill="#133228"/>
<path d="M299.649 205.258H323.906V181H299.649V205.258Z" fill="#133228"/>
<path d="M339.135 170.606H338.719V171H339.135V170.606ZM339.135 77.2737H339.552V76.8798H339.135V77.2737ZM247 77.2737L251.163 79.5473V75L247 77.2737ZM249.559 77.2737V77.6675H251.267V77.2737V76.8798H249.559V77.2737ZM252.973 77.2737V77.6675H254.679V77.2737V76.8798H252.973V77.2737ZM256.386 77.2737V77.6675H258.092V77.2737V76.8798H256.386V77.2737ZM259.8 77.2737V77.6675H261.506V77.2737V76.8798H259.8V77.2737ZM263.212 77.2737V77.6675H264.919V77.2737V76.8798H263.212V77.2737ZM266.625 77.2737V77.6675H268.332V77.2737V76.8798H266.625V77.2737ZM270.039 77.2737V77.6675H271.745V77.2737V76.8798H270.039V77.2737ZM273.452 77.2737V77.6675H275.158V77.2737V76.8798H273.452V77.2737ZM276.865 77.2737V77.6675H278.572V77.2737V76.8798H276.865V77.2737ZM280.278 77.2737V77.6675H281.984V77.2737V76.8798H280.278V77.2737ZM283.691 77.2737V77.6675H285.398V77.2737V76.8798H283.691V77.2737ZM287.105 77.2737V77.6675H288.811V77.2737V76.8798H287.105V77.2737ZM290.517 77.2737V77.6675H292.224V77.2737V76.8798H290.517V77.2737ZM293.931 77.2737V77.6675H295.638V77.2737V76.8798H293.931V77.2737ZM297.344 77.2737V77.6675H298.197V77.2737V76.8798H297.344V77.2737ZM298.197 77.2737V77.6675H299.05V77.2737V76.8798H298.197V77.2737ZM300.755 77.2737V77.6675H302.462V77.2737V76.8798H300.755V77.2737ZM304.168 77.2737V77.6675H305.873V77.2737V76.8798H304.168V77.2737ZM307.579 77.2737V77.6675H309.284V77.2737V76.8798H307.579V77.2737ZM310.991 77.2737V77.6675H312.696V77.2737V76.8798H310.991V77.2737ZM314.402 77.2737V77.6675H316.107V77.2737V76.8798H314.402V77.2737ZM317.813 77.2737V77.6675H319.52V77.2737V76.8798H317.813V77.2737ZM321.225 77.2737V77.6675H322.931V77.2737V76.8798H321.225V77.2737ZM324.636 77.2737V77.6675H326.342V77.2737V76.8798H324.636V77.2737ZM328.048 77.2737V77.6675H329.754V77.2737V76.8798H328.048V77.2737ZM331.459 77.2737V77.6675H333.165V77.2737V76.8798H331.459V77.2737ZM334.872 77.2737V77.6675H336.577V77.2737V76.8798H334.872V77.2737ZM338.283 77.2737V77.6675H339.135V77.2737V76.8798H338.283V77.2737ZM339.135 77.2737H338.719V78.0515H339.135H339.552V77.2737H339.135ZM339.135 79.607H338.719V81.1626H339.135H339.552V79.607H339.135ZM339.135 82.7181H338.719V84.2736H339.135H339.552V82.7181H339.135ZM339.135 85.8292H338.719V87.3847H339.135H339.552V85.8292H339.135ZM339.135 88.9402H338.719V90.4959H339.135H339.552V88.9402H339.135ZM339.135 92.0514H338.719V93.607H339.135H339.552V92.0514H339.135ZM339.135 95.1625H338.719V96.718H339.135H339.552V95.1625H339.135ZM339.135 98.2736H338.719V99.8291H339.135H339.552V98.2736H339.135ZM339.135 101.385H338.719V102.94H339.135H339.552V101.385H339.135ZM339.135 104.496H338.719V106.052H339.135H339.552V104.496H339.135ZM339.135 107.607H338.719V109.163H339.135H339.552V107.607H339.135ZM339.135 110.718H338.719V112.274H339.135H339.552V110.718H339.135ZM339.135 113.829H338.719V115.385H339.135H339.552V113.829H339.135ZM339.135 116.94H338.719V118.496H339.135H339.552V116.94H339.135ZM339.135 120.051H338.719V121.607H339.135H339.552V120.051H339.135ZM339.135 123.162H338.719V124.718H339.135H339.552V123.162H339.135ZM339.135 126.274H338.719V127.829H339.135H339.552V126.274H339.135ZM339.135 129.385H338.719V130.94H339.135H339.552V129.385H339.135ZM339.135 132.496H338.719V134.051H339.135H339.552V132.496H339.135ZM339.135 135.607H338.719V137.162H339.135H339.552V135.607H339.135ZM339.135 138.718H338.719V140.273H339.135H339.552V138.718H339.135ZM339.135 141.829H338.719V143.384H339.135H339.552V141.829H339.135ZM339.135 144.94H338.719V146.496H339.135H339.552V144.94H339.135ZM339.135 148.051H338.719V149.607H339.135H339.552V148.051H339.135ZM339.135 151.162H338.719V152.718H339.135H339.552V151.162H339.135ZM339.135 154.273H338.719V155.829H339.135H339.552V154.273H339.135ZM339.135 157.384H338.719V158.94H339.135H339.552V157.384H339.135ZM339.135 160.495H338.719V162.051H339.135H339.552V160.495H339.135ZM339.135 163.606H338.719V165.162H339.135H339.552V163.606H339.135ZM339.135 166.718H338.719V168.273H339.135H339.552V166.718H339.135ZM339.135 169.829H338.719V170.606H339.135H339.552V169.829H339.135ZM339.135 170.606V171H339.957V170.606V170.213H339.135V170.606ZM341.602 170.606V171H343.245V170.606V170.213H341.602V170.606ZM344.89 170.606V171H346.534V170.606V170.213H344.89V170.606ZM348.178 170.606V171H349V170.606V170.213H348.178V170.606Z" fill="#0AA67D"/>
<path d="M328.947 280.594H164.164V460.851H328.947V280.594Z" fill="#15221D" stroke="#0AA67D" stroke-width="0.836461"/>
<path d="M304 307H189V317H304V307Z" fill="#0AA67D" fill-opacity="0.12"/>
<path d="M197.782 308.258H190.254V315.786H197.782V308.258Z" fill="#15221D"/>
<path d="M304 349H189V359H304V349Z" fill="#0AA67D" fill-opacity="0.12"/>
<path d="M197.782 350.258H190.254V357.786H197.782V350.258Z" fill="#15221D"/>
<path d="M304 363H189V373H304V363Z" fill="#0AA67D" fill-opacity="0.12"/>
<path d="M197.782 364.258H190.254V371.786H197.782V364.258Z" fill="#15221D"/>
<path d="M304 377H189V387H304V377Z" fill="#0AA67D" fill-opacity="0.12"/>
<path d="M197.782 378.258H190.254V385.786H197.782V378.258Z" fill="#15221D"/>
<path d="M304 391H189V401H304V391Z" fill="#0AA67D" fill-opacity="0.12"/>
<path d="M197.782 392.258H190.254V399.786H197.782V392.258Z" fill="#15221D"/>
<path d="M304 405H189V415H304V405Z" fill="#0AA67D" fill-opacity="0.12"/>
<path d="M197.782 406.258H190.254V413.786H197.782V406.258Z" fill="#15221D"/>
<path d="M304 419H189V429H304V419Z" fill="#0AA67D" fill-opacity="0.12"/>
<path d="M197.782 420.258H190.254V427.786H197.782V420.258Z" fill="#15221D"/>
<path d="M329 281H267V293H329V281Z" fill="#0AA67D"/>
<path d="M300.53 310H297V313.53H300.53V310Z" fill="#0AA67D"/>
<path d="M300.53 380H297V383.53H300.53V380Z" fill="#0AA67D"/>
<path d="M295.53 380H292V383.53H295.53V380Z" fill="#0AA67D"/>
<path d="M304 335H189V345H304V335Z" fill="#0AA67D" fill-opacity="0.12"/>
<path d="M197.782 336.258H190.254V343.786H197.782V336.258Z" fill="#15221D"/>
<path d="M300.53 338H297V341.53H300.53V338Z" fill="#0AA67D"/>
<path d="M295.53 338H292V341.53H295.53V338Z" fill="#0AA67D"/>
<path d="M290.53 338H287V341.53H290.53V338Z" fill="#0AA67D"/>
<path d="M304 321H189V331H304V321Z" fill="#0AA67D" fill-opacity="0.12"/>
<path d="M197.782 322.258H190.254V329.786H197.782V322.258Z" fill="#15221D"/>
<path d="M300.53 394H297V397.53H300.53V394Z" fill="#0AA67D"/>
<path d="M300.53 422H297V425.53H300.53V422Z" fill="#0AA67D"/>
<path d="M295.53 394H292V397.53H295.53V394Z" fill="#0AA67D"/>
<path d="M375.789 176.5V250.483H277.086" stroke="#0AA67D" stroke-width="0.836461"/>
<path d="M117.324 78.5859V250.479H225.019" stroke="#0AA67D" stroke-width="0.836461"/>
<path d="M310.963 240.445H182.984V260.52H310.963V240.445Z" fill="#15221D"/>
<path d="M310.963 240.445H182.984V260.52H310.963V240.445Z" stroke="#0AA67D" stroke-width="0.836461"/>
<path d="M160.534 315H107V335.075H160.534V315Z" fill="#15221D"/>
<path d="M160.534 315H107V335.075H160.534V315Z" stroke="#0AA67D" stroke-width="0.836461"/>
<path d="M414 159H343V179H414V159Z" fill="#15221D"/>
<path d="M414 159H343V179H414V159Z" stroke="#0AA67D" stroke-width="0.836461"/>
<path d="M199.161 113.753L194.979 116.167V111.338L199.161 113.753ZM156.71 113.753V114.171H156.292V113.753H156.71ZM156.71 78.2035V77.7853H157.129V78.2035H156.71ZM196.712 113.753V114.171H195.079V113.753V113.334H196.712V113.753ZM193.446 113.753V114.171H191.814V113.753V113.334H193.446V113.753ZM190.181 113.753V114.171H188.548V113.753V113.334H190.181V113.753ZM186.916 113.753V114.171H185.283V113.753V113.334H186.916V113.753ZM183.65 113.753V114.171H182.017V113.753V113.334H183.65V113.753ZM180.385 113.753V114.171H178.752V113.753V113.334H180.385V113.753ZM177.119 113.753V114.171H175.487V113.753V113.334H177.119V113.753ZM173.854 113.753V114.171H172.221V113.753V113.334H173.854V113.753ZM170.588 113.753V114.171H168.956V113.753V113.334H170.588V113.753ZM167.323 113.753V114.171H165.69V113.753V113.334H167.323V113.753ZM164.058 113.753V114.171H162.425V113.753V113.334H164.058V113.753ZM160.792 113.753V114.171H159.16V113.753V113.334H160.792V113.753ZM157.527 113.753V114.171H156.71V113.753V113.334H157.527V113.753ZM156.71 113.753H156.292V112.945H156.71H157.129V113.753H156.71ZM156.71 111.329H156.292V109.713H156.71H157.129V111.329H156.71ZM156.71 108.097H156.292V106.482H156.71H157.129V108.097H156.71ZM156.71 104.866H156.292V103.25H156.71H157.129V104.866H156.71ZM156.71 101.634H156.292V100.018H156.71H157.129V101.634H156.71ZM156.71 98.4021H156.292V96.7862H156.71H157.129V98.4021H156.71ZM156.71 95.1703H156.292V93.5544H156.71H157.129V95.1703H156.71ZM156.71 91.9386H156.292V90.3227H156.71H157.129V91.9386H156.71ZM156.71 88.7068H156.292V87.0909H156.71H157.129V88.7068H156.71ZM156.71 85.475H156.292V83.8591H156.71H157.129V85.475H156.71ZM156.71 82.2432H156.292V80.6273H156.71H157.129V82.2432H156.71ZM156.71 79.0114H156.292V78.2035H156.71H157.129V79.0114H156.71ZM156.71 78.2035V78.6217H155.813V78.2035V77.7853H156.71V78.2035ZM154.018 78.2035V78.6217H152.223V78.2035V77.7853H154.018V78.2035ZM150.428 78.2035V78.6217H148.633V78.2035V77.7852H150.428V78.2035ZM146.838 78.2035V78.6217H145.044V78.2035V77.7852H146.838V78.2035ZM143.249 78.2035V78.6217H141.454V78.2035V77.7852H143.249V78.2035ZM139.659 78.2035V78.6217H137.864V78.2035V77.7852H139.659V78.2035ZM136.069 78.2035V78.6217H135.172V78.2035V77.7852H136.069V78.2035Z" fill="#0AA67D"/>
<path d="M150 69H84V89H150V69Z" fill="#15221D"/>
<path d="M150 69H84V89H150V69Z" stroke="#0AA67D" stroke-width="0.836461"/>
<path d="M246.559 260.516V280.591" stroke="#0AA67D" stroke-width="0.836461"/>
<path d="M247 220V240.075" stroke="#0AA67D" stroke-width="0.836461"/>
<path d="M169.222 324.617H169.64V324.199H169.222V324.617ZM169.222 424.157H168.803V424.575H169.222V424.157ZM186.884 424.157L182.701 421.742V426.571L186.884 424.157ZM184.234 424.157V423.738H182.468V424.157V424.575H184.234V424.157ZM180.702 424.157V423.738H178.936V424.157V424.575H180.702V424.157ZM177.17 424.157V423.738H175.403V424.157V424.575H177.17V424.157ZM173.637 424.157V423.738H171.871V424.157V424.575H173.637V424.157ZM170.105 424.157V423.738H169.222V424.157V424.575H170.105V424.157ZM169.222 424.157H169.64V423.327H169.222H168.803V424.157H169.222ZM169.222 421.668H169.64V420.009H169.222H168.803V421.668H169.222ZM169.222 418.35H169.64V416.691H169.222H168.803V418.35H169.222ZM169.222 415.032H169.64V413.373H169.222H168.803V415.032H169.222ZM169.222 411.714H169.64V410.055H169.222H168.803V411.714H169.222ZM169.222 408.396H169.64V406.737H169.222H168.803V408.396H169.222ZM169.222 405.078H169.64V403.419H169.222H168.803V405.078H169.222ZM169.222 401.76H169.64V400.101H169.222H168.803V401.76H169.222ZM169.222 398.442H169.64V396.783H169.222H168.803V398.442H169.222ZM169.222 395.124H169.64V393.465H169.222H168.803V395.124H169.222ZM169.222 391.806H169.64V390.147H169.222H168.803V391.806H169.222ZM169.222 388.488H169.64V386.829H169.222H168.803V388.488H169.222ZM169.222 385.171H169.64V383.512H169.222H168.803V385.171H169.222ZM169.222 381.853H169.64V380.194H169.222H168.803V381.853H169.222ZM169.222 378.535H169.64V376.876H169.222H168.803V378.535H169.222ZM169.222 375.217H169.64V373.558H169.222H168.803V375.217H169.222ZM169.222 371.899H169.64V370.24H169.222H168.803V371.899H169.222ZM169.222 368.581H169.64V366.922H169.222H168.803V368.581H169.222ZM169.222 365.263H169.64V363.604H169.222H168.803V365.263H169.222ZM169.222 361.945H169.64V360.286H169.222H168.803V361.945H169.222ZM169.222 358.627H169.64V356.968H169.222H168.803V358.627H169.222ZM169.222 355.309H169.64V353.65H169.222H168.803V355.309H169.222ZM169.222 351.991H169.64V350.332H169.222H168.803V351.991H169.222ZM169.222 348.673H169.64V347.014H169.222H168.803V348.673H169.222ZM169.222 345.355H169.64V343.696H169.222H168.803V345.355H169.222ZM169.222 342.037H169.64V340.378H169.222H168.803V342.037H169.222ZM169.222 338.719H169.64V337.06H169.222H168.803V338.719H169.222ZM169.222 335.401H169.64V333.742H169.222H168.803V335.401H169.222ZM169.222 332.083H169.64V330.424H169.222H168.803V332.083H169.222ZM169.222 328.765H169.64V327.106H169.222H168.803V328.765H169.222ZM169.222 325.447H169.64V324.617H169.222H168.803V325.447H169.222ZM169.222 324.617V324.199H168.498V324.617V325.036H169.222V324.617ZM167.05 324.617V324.199H165.602V324.617V325.036H167.05V324.617ZM164.154 324.617V324.199H162.707V324.617V325.036H164.154V324.617ZM161.259 324.617V324.199H160.535V324.617V325.036H161.259V324.617Z" fill="#0AA67D"/>
<path d="M206.731 248.654H205.39V253.226H206.731V254H203.203V253.226H204.544V248.654H203.203V247.88H206.731V248.654ZM208.132 254V247.88H209.383L210.454 250.814L211.264 253.361H211.327L211.255 250.571V247.88H212.029V254H210.769L209.698 251.066L208.888 248.519H208.825L208.906 251.318V254H208.132ZM214.762 254V248.663H213.034V247.88H217.336V248.663H215.608V254H214.762ZM218.503 254V247.88H222.319V248.663H219.34V250.49H222.004V251.264H219.34V253.217H222.319V254H218.503ZM223.459 254V247.88H224.71L225.781 250.814L226.591 253.361H226.654L226.582 250.571V247.88H227.356V254H226.096L225.025 251.066L224.215 248.519H224.152L224.233 251.318V254H223.459ZM230.088 254V248.663H228.36V247.88H232.662V248.663H230.934V254H230.088ZM238.767 252.011V247.88H239.613V252.065C239.613 252.527 239.706 252.863 239.892 253.073C240.078 253.277 240.369 253.379 240.765 253.379C241.161 253.379 241.449 253.277 241.629 253.073C241.809 252.863 241.899 252.527 241.899 252.065V247.88H242.691V252.002C242.691 252.734 242.535 253.271 242.223 253.613C241.911 253.955 241.437 254.126 240.801 254.126H240.693C239.409 254.126 238.767 253.421 238.767 252.011ZM243.894 254V247.88H245.145L246.216 250.814L247.026 253.361H247.089L247.017 250.571V247.88H247.791V254H246.531L245.46 251.066L244.65 248.519H244.587L244.668 251.318V254H243.894ZM249.093 254V247.88H250.866C252.252 247.88 252.945 248.564 252.945 249.932V251.912C252.945 252.638 252.777 253.169 252.441 253.505C252.105 253.835 251.586 254 250.884 254H249.093ZM249.939 253.226H250.893C251.325 253.226 251.634 253.127 251.82 252.929C252.006 252.731 252.099 252.392 252.099 251.912V249.932C252.099 249.47 252.003 249.143 251.811 248.951C251.625 248.753 251.316 248.654 250.884 248.654H249.939V253.226ZM254.265 254V247.88H258.081V248.663H255.102V250.49H257.766V251.264H255.102V253.217H258.081V254H254.265ZM263.334 254H262.398L261.201 251.543H260.157V254H259.329V247.88H260.913C261.735 247.88 262.329 248.024 262.695 248.312C263.067 248.6 263.253 249.062 263.253 249.698C263.253 250.598 262.851 251.171 262.047 251.417L263.334 254ZM260.157 250.778H260.985C261.495 250.778 261.855 250.7 262.065 250.544C262.281 250.382 262.389 250.106 262.389 249.716C262.389 249.32 262.281 249.044 262.065 248.888C261.855 248.732 261.495 248.654 260.985 248.654H260.157V250.778ZM264.303 252.245V252.065H265.104V252.326C265.104 252.722 265.194 252.998 265.374 253.154C265.554 253.31 265.863 253.388 266.301 253.388C266.727 253.388 267.018 253.322 267.174 253.19C267.336 253.058 267.417 252.83 267.417 252.506C267.417 252.254 267.375 252.059 267.291 251.921C267.207 251.783 267.075 251.669 266.895 251.579C266.685 251.477 266.385 251.354 265.995 251.21C265.365 250.97 264.93 250.727 264.69 250.481C264.456 250.235 264.333 249.863 264.321 249.365C264.321 248.825 264.474 248.423 264.78 248.159C265.092 247.889 265.575 247.754 266.229 247.754H266.301C266.955 247.754 267.438 247.907 267.75 248.213C268.062 248.513 268.218 248.972 268.218 249.59V249.779H267.417V249.518C267.417 249.14 267.327 248.876 267.147 248.726C266.973 248.57 266.673 248.492 266.247 248.492C265.839 248.492 265.551 248.558 265.383 248.69C265.221 248.816 265.14 249.029 265.14 249.329C265.14 249.539 265.182 249.713 265.266 249.851C265.35 249.971 265.467 250.07 265.617 250.148C265.773 250.226 266.037 250.334 266.409 250.472L266.616 250.553C267.246 250.793 267.669 251.033 267.885 251.273C268.107 251.513 268.227 251.906 268.245 252.452C268.245 253.034 268.095 253.46 267.795 253.73C267.495 253.994 267.009 254.126 266.337 254.126H266.229C265.545 254.126 265.053 253.979 264.753 253.685C264.453 253.391 264.303 252.911 264.303 252.245ZM270.96 254V248.663H269.232V247.88H273.534V248.663H271.806V254H270.96ZM277.986 254L277.563 252.452H275.376L274.944 254H274.125L275.862 247.817H277.14L278.859 254H277.986ZM276.447 248.438L275.583 251.705H277.356L276.51 248.438H276.447ZM279.657 254V247.88H280.908L281.979 250.814L282.789 253.361H282.852L282.78 250.571V247.88H283.554V254H282.294L281.223 251.066L280.413 248.519H280.35L280.431 251.318V254H279.657ZM284.855 254V247.88H286.628C288.014 247.88 288.707 248.564 288.707 249.932V251.912C288.707 252.638 288.539 253.169 288.203 253.505C287.867 253.835 287.348 254 286.646 254H284.855ZM285.701 253.226H286.655C287.087 253.226 287.396 253.127 287.582 252.929C287.768 252.731 287.861 252.392 287.861 251.912V249.932C287.861 249.47 287.765 249.143 287.573 248.951C287.387 248.753 287.078 248.654 286.646 248.654H285.701V253.226ZM293.582 248.654H292.241V253.226H293.582V254H290.054V253.226H291.395V248.654H290.054V247.88H293.582V248.654ZM294.983 254V247.88H296.234L297.305 250.814L298.115 253.361H298.178L298.106 250.571V247.88H298.88V254H297.62L296.549 251.066L295.739 248.519H295.676L295.757 251.318V254H294.983ZM300.047 251.984V249.896C300.047 248.468 300.698 247.754 302 247.754H302.072C302.702 247.754 303.182 247.931 303.512 248.285C303.848 248.633 304.019 249.146 304.025 249.824H303.233C303.227 249.356 303.128 249.02 302.936 248.816C302.75 248.606 302.456 248.501 302.054 248.501C301.652 248.501 301.358 248.606 301.172 248.816C300.986 249.026 300.893 249.365 300.893 249.833V252.029C300.893 252.497 300.986 252.839 301.172 253.055C301.358 253.271 301.649 253.379 302.045 253.379C302.465 253.379 302.765 253.292 302.945 253.118C303.125 252.944 303.215 252.65 303.215 252.236V251.705H302.108V250.913H304.025V252.146C304.025 252.83 303.863 253.331 303.539 253.649C303.215 253.967 302.732 254.126 302.09 254.126H301.982C300.692 254.126 300.047 253.412 300.047 251.984Z" fill="#D3FFDA"/>
<path d="M353.657 172V165.88H355.43C356.816 165.88 357.509 166.564 357.509 167.932V169.912C357.509 170.638 357.341 171.169 357.005 171.505C356.669 171.835 356.15 172 355.448 172H353.657ZM354.503 171.226H355.457C355.889 171.226 356.198 171.127 356.384 170.929C356.57 170.731 356.663 170.392 356.663 169.912V167.932C356.663 167.47 356.567 167.143 356.375 166.951C356.189 166.753 355.88 166.654 355.448 166.654H354.503V171.226ZM362.384 166.654H361.043V171.226H362.384V172H358.856V171.226H360.197V166.654H358.856V165.88H362.384V166.654ZM367.898 172H366.962L365.765 169.543H364.721V172H363.893V165.88H365.477C366.299 165.88 366.893 166.024 367.259 166.312C367.631 166.6 367.817 167.062 367.817 167.698C367.817 168.598 367.415 169.171 366.611 169.417L367.898 172ZM364.721 168.778H365.549C366.059 168.778 366.419 168.7 366.629 168.544C366.845 168.382 366.953 168.106 366.953 167.716C366.953 167.32 366.845 167.044 366.629 166.888C366.419 166.732 366.059 166.654 365.549 166.654H364.721V168.778ZM369.047 172V165.88H372.863V166.663H369.884V168.49H372.548V169.264H369.884V171.217H372.863V172H369.047ZM377.936 169.903V170.038C377.936 170.752 377.78 171.28 377.468 171.622C377.162 171.958 376.697 172.126 376.073 172.126H375.974C374.708 172.126 374.075 171.412 374.075 169.984V167.896C374.075 166.468 374.711 165.754 375.983 165.754H376.055C377.309 165.754 377.936 166.465 377.936 167.887V168.022H377.144V167.842C377.144 167.374 377.051 167.035 376.865 166.825C376.685 166.609 376.403 166.501 376.019 166.501C375.641 166.501 375.362 166.606 375.182 166.816C375.008 167.026 374.921 167.365 374.921 167.833V170.029C374.921 170.497 375.008 170.839 375.182 171.055C375.362 171.271 375.641 171.379 376.019 171.379C376.397 171.379 376.679 171.274 376.865 171.064C377.051 170.848 377.144 170.515 377.144 170.065V169.903H377.936ZM380.633 172V166.663H378.905V165.88H383.207V166.663H381.479V172H380.633ZM387.929 166.654H386.588V171.226H387.929V172H384.401V171.226H385.742V166.654H384.401V165.88H387.929V166.654ZM389.285 169.984V167.896C389.285 166.468 389.936 165.754 391.238 165.754H391.31C392.612 165.754 393.263 166.468 393.263 167.896V169.984C393.263 171.412 392.618 172.126 391.328 172.126H391.22C389.93 172.126 389.285 171.412 389.285 169.984ZM392.417 170.047V167.842C392.417 167.374 392.324 167.035 392.138 166.825C391.958 166.609 391.67 166.501 391.274 166.501C390.878 166.501 390.587 166.609 390.401 166.825C390.221 167.035 390.131 167.374 390.131 167.842V170.047C390.131 170.509 390.221 170.848 390.401 171.064C390.587 171.274 390.878 171.379 391.274 171.379C391.67 171.379 391.958 171.274 392.138 171.064C392.324 170.848 392.417 170.509 392.417 170.047ZM394.439 172V165.88H395.69L396.761 168.814L397.571 171.361H397.634L397.562 168.571V165.88H398.336V172H397.076L396.005 169.066L395.195 166.519H395.132L395.213 169.318V172H394.439ZM399.521 170.245V170.065H400.322V170.326C400.322 170.722 400.412 170.998 400.592 171.154C400.772 171.31 401.081 171.388 401.519 171.388C401.945 171.388 402.236 171.322 402.392 171.19C402.554 171.058 402.635 170.83 402.635 170.506C402.635 170.254 402.593 170.059 402.509 169.921C402.425 169.783 402.293 169.669 402.113 169.579C401.903 169.477 401.603 169.354 401.213 169.21C400.583 168.97 400.148 168.727 399.908 168.481C399.674 168.235 399.551 167.863 399.539 167.365C399.539 166.825 399.692 166.423 399.998 166.159C400.31 165.889 400.793 165.754 401.447 165.754H401.519C402.173 165.754 402.656 165.907 402.968 166.213C403.28 166.513 403.436 166.972 403.436 167.59V167.779H402.635V167.518C402.635 167.14 402.545 166.876 402.365 166.726C402.191 166.57 401.891 166.492 401.465 166.492C401.057 166.492 400.769 166.558 400.601 166.69C400.439 166.816 400.358 167.029 400.358 167.329C400.358 167.539 400.4 167.713 400.484 167.851C400.568 167.971 400.685 168.07 400.835 168.148C400.991 168.226 401.255 168.334 401.627 168.472L401.834 168.553C402.464 168.793 402.887 169.033 403.103 169.273C403.325 169.513 403.445 169.906 403.463 170.452C403.463 171.034 403.313 171.46 403.013 171.73C402.713 171.994 402.227 172.126 401.555 172.126H401.447C400.763 172.126 400.271 171.979 399.971 171.685C399.671 171.391 399.521 170.911 399.521 170.245Z" fill="#D3FFDA"/>
<path d="M98.1899 75.88V76.663H95.1839V78.508H97.8479V79.282H95.1839V82H94.3379V75.88H98.1899ZM99.1858 79.984V77.896C99.1858 76.468 99.8368 75.754 101.139 75.754H101.211C102.513 75.754 103.164 76.468 103.164 77.896V79.984C103.164 81.412 102.519 82.126 101.229 82.126H101.121C99.8308 82.126 99.1858 81.412 99.1858 79.984ZM102.318 80.047V77.842C102.318 77.374 102.225 77.035 102.039 76.825C101.859 76.609 101.571 76.501 101.175 76.501C100.779 76.501 100.488 76.609 100.302 76.825C100.122 77.035 100.032 77.374 100.032 77.842V80.047C100.032 80.509 100.122 80.848 100.302 81.064C100.488 81.274 100.779 81.379 101.175 81.379C101.571 81.379 101.859 81.274 102.039 81.064C102.225 80.848 102.318 80.509 102.318 80.047ZM105.528 75.88V81.208H108.462V82H104.682V75.88H105.528ZM110.637 75.88V81.208H113.571V82H109.791V75.88H110.637ZM114.513 79.984V77.896C114.513 76.468 115.164 75.754 116.466 75.754H116.538C117.84 75.754 118.491 76.468 118.491 77.896V79.984C118.491 81.412 117.846 82.126 116.556 82.126H116.448C115.158 82.126 114.513 81.412 114.513 79.984ZM117.645 80.047V77.842C117.645 77.374 117.552 77.035 117.366 76.825C117.186 76.609 116.898 76.501 116.502 76.501C116.106 76.501 115.815 76.609 115.629 76.825C115.449 77.035 115.359 77.374 115.359 77.842V80.047C115.359 80.509 115.449 80.848 115.629 81.064C115.815 81.274 116.106 81.379 116.502 81.379C116.898 81.379 117.186 81.274 117.366 81.064C117.552 80.848 117.645 80.509 117.645 80.047ZM119.855 82L119.009 75.88H119.819L120.467 80.929H120.53L121.196 76.789H122.069L122.735 80.929H122.798L123.446 75.88H124.211L123.365 82H122.303L121.646 77.797H121.601L120.944 82H119.855ZM125.045 79.885V79.057H128.393V79.885H125.045ZM129.866 80.011V75.88H130.712V80.065C130.712 80.527 130.805 80.863 130.991 81.073C131.177 81.277 131.468 81.379 131.864 81.379C132.26 81.379 132.548 81.277 132.728 81.073C132.908 80.863 132.998 80.527 132.998 80.065V75.88H133.79V80.002C133.79 80.734 133.634 81.271 133.322 81.613C133.01 81.955 132.536 82.126 131.9 82.126H131.792C130.508 82.126 129.866 81.421 129.866 80.011ZM135.11 82V75.88H136.712C137.552 75.88 138.155 76.027 138.521 76.321C138.887 76.615 139.07 77.098 139.07 77.77C139.07 78.436 138.89 78.916 138.53 79.21C138.17 79.504 137.567 79.651 136.721 79.651H135.947V82H135.11ZM135.947 78.877H136.766C137.306 78.877 137.681 78.796 137.891 78.634C138.101 78.472 138.206 78.184 138.206 77.77C138.206 77.35 138.101 77.059 137.891 76.897C137.681 76.735 137.306 76.654 136.766 76.654H135.947V78.877Z" fill="#D3FFDA"/>
<path d="M293.229 289L292.571 284.24H293.201L293.705 288.167H293.754L294.272 284.947H294.951L295.469 288.167H295.518L296.022 284.24H296.617L295.959 289H295.133L294.622 285.731H294.587L294.076 289H293.229ZM297.02 287.432V285.808C297.02 284.697 297.527 284.142 298.539 284.142H298.595C299.608 284.142 300.114 284.697 300.114 285.808V287.432C300.114 288.543 299.613 289.098 298.609 289.098H298.525C297.522 289.098 297.02 288.543 297.02 287.432ZM299.456 287.481V285.766C299.456 285.402 299.384 285.138 299.239 284.975C299.099 284.807 298.875 284.723 298.567 284.723C298.259 284.723 298.033 284.807 297.888 284.975C297.748 285.138 297.678 285.402 297.678 285.766V287.481C297.678 287.84 297.748 288.104 297.888 288.272C298.033 288.435 298.259 288.517 298.567 288.517C298.875 288.517 299.099 288.435 299.239 288.272C299.384 288.104 299.456 287.84 299.456 287.481ZM304.228 289H303.5L302.569 287.089H301.757V289H301.113V284.24H302.345C302.984 284.24 303.446 284.352 303.731 284.576C304.02 284.8 304.165 285.159 304.165 285.654C304.165 286.354 303.852 286.8 303.227 286.991L304.228 289ZM301.757 286.494H302.401C302.797 286.494 303.077 286.433 303.241 286.312C303.409 286.186 303.493 285.971 303.493 285.668C303.493 285.36 303.409 285.145 303.241 285.024C303.077 284.903 302.797 284.842 302.401 284.842H301.757V286.494ZM306.549 286.452L308.432 289H307.62L305.919 286.669H305.877V289H305.219V284.24H305.877V286.284H305.919L307.606 284.24H308.39L306.549 286.452ZM312.14 284.24V284.849H309.802V286.284H311.874V286.886H309.802V289H309.144V284.24H312.14ZM313.874 284.24V288.384H316.156V289H313.216V284.24H313.874ZM316.888 287.432V285.808C316.888 284.697 317.395 284.142 318.407 284.142H318.463C319.476 284.142 319.982 284.697 319.982 285.808V287.432C319.982 288.543 319.481 289.098 318.477 289.098H318.393C317.39 289.098 316.888 288.543 316.888 287.432ZM319.324 287.481V285.766C319.324 285.402 319.252 285.138 319.107 284.975C318.967 284.807 318.743 284.723 318.435 284.723C318.127 284.723 317.901 284.807 317.756 284.975C317.616 285.138 317.546 285.402 317.546 285.766V287.481C317.546 287.84 317.616 288.104 317.756 288.272C317.901 288.435 318.127 288.517 318.435 288.517C318.743 288.517 318.967 288.435 319.107 288.272C319.252 288.104 319.324 287.84 319.324 287.481ZM321.044 289L320.386 284.24H321.016L321.52 288.167H321.569L322.087 284.947H322.766L323.284 288.167H323.333L323.837 284.24H324.432L323.774 289H322.948L322.437 285.731H322.402L321.891 289H321.044Z" fill="#15221D"/>
<path d="M227 40H165V52H227V40Z" fill="#0AA67D"/>
<path d="M172.64 46.369V46.474C172.64 47.0293 172.519 47.44 172.276 47.706C172.038 47.9673 171.676 48.098 171.191 48.098H171.114C170.129 48.098 169.637 47.5427 169.637 46.432V44.808C169.637 43.6973 170.132 43.142 171.121 43.142H171.177C172.152 43.142 172.64 43.695 172.64 44.801V44.906H172.024V44.766C172.024 44.402 171.952 44.1383 171.807 43.975C171.667 43.807 171.448 43.723 171.149 43.723C170.855 43.723 170.638 43.8047 170.498 43.968C170.363 44.1313 170.295 44.395 170.295 44.759V46.467C170.295 46.831 170.363 47.097 170.498 47.265C170.638 47.433 170.855 47.517 171.149 47.517C171.443 47.517 171.662 47.4353 171.807 47.272C171.952 47.104 172.024 46.845 172.024 46.495V46.369H172.64ZM175.914 43.24H176.572V48H175.914V45.914H174.227V48H173.569V43.24H174.227V45.298H175.914V43.24ZM180.202 48L179.873 46.796H178.172L177.836 48H177.199L178.55 43.191H179.544L180.881 48H180.202ZM179.005 43.674L178.333 46.215H179.712L179.054 43.674H179.005ZM182.685 48V43.849H181.341V43.24H184.687V43.849H183.343V48H182.685Z" fill="#15221D"/>
<g clip-path="url(#clip1_55_514)">
<path d="M192.875 251.062L193.625 250.125L192.875 249.188M195.875 253.875L194.263 252.263M191.375 249.188L190.625 250.125L191.375 251.062M195.125 250.125C195.125 251.782 193.782 253.125 192.125 253.125C190.468 253.125 189.125 251.782 189.125 250.125C189.125 248.468 190.468 247.125 192.125 247.125C193.782 247.125 195.125 248.468 195.125 250.125Z" stroke="#D3FFDA" stroke-width="0.63" stroke-linecap="round" stroke-linejoin="round"/>
</g>
<line x1="247.5" y1="317" x2="247.5" y2="321" stroke="#0AA67D"/>
<line x1="247.5" y1="331" x2="247.5" y2="335" stroke="#0AA67D"/>
<line x1="246.5" y1="345" x2="246.5" y2="349" stroke="#0AA67D"/>
<line x1="246.5" y1="359" x2="246.5" y2="363" stroke="#0AA67D"/>
<line x1="246.5" y1="373" x2="246.5" y2="377" stroke="#0AA67D"/>
<line x1="246.5" y1="387" x2="246.5" y2="391" stroke="#0AA67D"/>
<line x1="246.5" y1="401" x2="246.5" y2="405" stroke="#0AA67D"/>
<line x1="246.5" y1="415" x2="246.5" y2="419" stroke="#0AA67D"/>
<path d="M319.143 342.289V341.871H318.725V342.289H319.143ZM319.143 381.602V382.021H319.561V381.602H319.143ZM301 381.603L305.182 384.017V379.188L301 381.603ZM303.722 381.603V382.021H305.536V381.603V381.184H303.722V381.603ZM307.35 381.603V382.021H309.164V381.603V381.184H307.35V381.603ZM310.979 381.603V382.021H312.793V381.602V381.184H310.979V381.603ZM314.607 381.602V382.021H316.422V381.602V381.184H314.607V381.602ZM318.236 381.602V382.021H319.143V381.602V381.184H318.236V381.602ZM319.143 381.602H319.561V380.783H319.143H318.725V381.602H319.143ZM319.143 379.145H319.561V377.507H319.143H318.725V379.145H319.143ZM319.143 375.869H319.561V374.231H319.143H318.725V375.869H319.143ZM319.143 372.593H319.561V370.955H319.143H318.725V372.593H319.143ZM319.143 369.317H319.561V367.679H319.143H318.725V369.317H319.143ZM319.143 366.041H319.561V364.403H319.143H318.725V366.041H319.143ZM319.143 362.765H319.561V361.127H319.143H318.725V362.765H319.143ZM319.143 359.489H319.561V357.851H319.143H318.725V359.489H319.143ZM319.143 356.213H319.561V354.574H319.143H318.725V356.213H319.143ZM319.143 352.936H319.561V351.298H319.143H318.725V352.936H319.143ZM319.143 349.66H319.561V348.022H319.143H318.725V349.66H319.143ZM319.143 346.384H319.561V344.746H319.143H318.725V346.384H319.143ZM319.143 343.108H319.561V342.289H319.143H318.725V343.108H319.143ZM319.143 342.289V342.707H320.022V342.289V341.871H319.143V342.289ZM321.779 342.289V342.707H323.537V342.289V341.871H321.779V342.289ZM325.295 342.289V342.707L327.052 342.708V342.289V341.871H325.295V342.289ZM328.81 342.289V342.708H330.567V342.289V341.871H328.81V342.289ZM332.325 342.289V342.708H333.204V342.289V341.871H332.325V342.289Z" fill="#0AA67D"/>
<path d="M387.155 331H333.621V351.075H387.155V331Z" fill="#15221D"/>
<path d="M387.155 331H333.621V351.075H387.155V331Z" stroke="#0AA67D" stroke-width="0.836461"/>
<path d="M350.401 344V338.663H348.673V337.88H352.975V338.663H351.247V344H350.401ZM353.674 341.984V339.896C353.674 338.468 354.325 337.754 355.627 337.754H355.699C357.001 337.754 357.652 338.468 357.652 339.896V341.984C357.652 343.412 357.007 344.126 355.717 344.126H355.609C354.319 344.126 353.674 343.412 353.674 341.984ZM356.806 342.047V339.842C356.806 339.374 356.713 339.035 356.527 338.825C356.347 338.609 356.059 338.501 355.663 338.501C355.267 338.501 354.976 338.609 354.79 338.825C354.61 339.035 354.52 339.374 354.52 339.842V342.047C354.52 342.509 354.61 342.848 354.79 343.064C354.976 343.274 355.267 343.379 355.663 343.379C356.059 343.379 356.347 343.274 356.527 343.064C356.713 342.848 356.806 342.509 356.806 342.047ZM358.513 341.984V339.896C358.513 338.468 359.164 337.754 360.466 337.754H360.538C361.84 337.754 362.491 338.468 362.491 339.896V341.984C362.491 343.412 361.846 344.126 360.556 344.126H360.448C359.158 344.126 358.513 343.412 358.513 341.984ZM361.645 342.047V339.842C361.645 339.374 361.552 339.035 361.366 338.825C361.186 338.609 360.898 338.501 360.502 338.501C360.106 338.501 359.815 338.609 359.629 338.825C359.449 339.035 359.359 339.374 359.359 339.842V342.047C359.359 342.509 359.449 342.848 359.629 343.064C359.815 343.274 360.106 343.379 360.502 343.379C360.898 343.379 361.186 343.274 361.366 343.064C361.552 342.848 361.645 342.509 361.645 342.047ZM364.584 337.88V343.208H367.518V344H363.738V337.88H364.584ZM368.208 342.245V342.065H369.009V342.326C369.009 342.722 369.099 342.998 369.279 343.154C369.459 343.31 369.768 343.388 370.206 343.388C370.632 343.388 370.923 343.322 371.079 343.19C371.241 343.058 371.322 342.83 371.322 342.506C371.322 342.254 371.28 342.059 371.196 341.921C371.112 341.783 370.98 341.669 370.8 341.579C370.59 341.477 370.29 341.354 369.9 341.21C369.27 340.97 368.835 340.727 368.595 340.481C368.361 340.235 368.238 339.863 368.226 339.365C368.226 338.825 368.379 338.423 368.685 338.159C368.997 337.889 369.48 337.754 370.134 337.754H370.206C370.86 337.754 371.343 337.907 371.655 338.213C371.967 338.513 372.123 338.972 372.123 339.59V339.779H371.322V339.518C371.322 339.14 371.232 338.876 371.052 338.726C370.878 338.57 370.578 338.492 370.152 338.492C369.744 338.492 369.456 338.558 369.288 338.69C369.126 338.816 369.045 339.029 369.045 339.329C369.045 339.539 369.087 339.713 369.171 339.851C369.255 339.971 369.372 340.07 369.522 340.148C369.678 340.226 369.942 340.334 370.314 340.472L370.521 340.553C371.151 340.793 371.574 341.033 371.79 341.273C372.012 341.513 372.132 341.906 372.15 342.452C372.15 343.034 372 343.46 371.7 343.73C371.4 343.994 370.914 344.126 370.242 344.126H370.134C369.45 344.126 368.958 343.979 368.658 343.685C368.358 343.391 368.208 342.911 368.208 342.245Z" fill="#D3FFDA"/>
<path d="M121.88 328V321.88H123.131L124.202 324.814L125.012 327.361H125.075L125.003 324.571V321.88H125.777V328H124.517L123.446 325.066L122.636 322.519H122.573L122.654 325.318V328H121.88ZM126.674 325.984V323.896C126.674 322.468 127.325 321.754 128.627 321.754H128.699C130.001 321.754 130.652 322.468 130.652 323.896V325.984C130.652 327.412 130.007 328.126 128.717 328.126H128.609C127.319 328.126 126.674 327.412 126.674 325.984ZM129.806 326.047V323.842C129.806 323.374 129.713 323.035 129.527 322.825C129.347 322.609 129.059 322.501 128.663 322.501C128.267 322.501 127.976 322.609 127.79 322.825C127.61 323.035 127.52 323.374 127.52 323.842V326.047C127.52 326.509 127.61 326.848 127.79 327.064C127.976 327.274 128.267 327.379 128.663 327.379C129.059 327.379 129.347 327.274 129.527 327.064C129.713 326.848 129.806 326.509 129.806 326.047ZM131.648 328V321.88H133.421C134.807 321.88 135.5 322.564 135.5 323.932V325.912C135.5 326.638 135.332 327.169 134.996 327.505C134.66 327.835 134.141 328 133.439 328H131.648ZM132.494 327.226H133.448C133.88 327.226 134.189 327.127 134.375 326.929C134.561 326.731 134.654 326.392 134.654 325.912V323.932C134.654 323.47 134.558 323.143 134.366 322.951C134.18 322.753 133.871 322.654 133.439 322.654H132.494V327.226ZM136.549 328V321.88H140.365V322.663H137.386V324.49H140.05V325.264H137.386V327.217H140.365V328H136.549ZM141.208 326.245V326.065H142.009V326.326C142.009 326.722 142.099 326.998 142.279 327.154C142.459 327.31 142.768 327.388 143.206 327.388C143.632 327.388 143.923 327.322 144.079 327.19C144.241 327.058 144.322 326.83 144.322 326.506C144.322 326.254 144.28 326.059 144.196 325.921C144.112 325.783 143.98 325.669 143.8 325.579C143.59 325.477 143.29 325.354 142.9 325.21C142.27 324.97 141.835 324.727 141.595 324.481C141.361 324.235 141.238 323.863 141.226 323.365C141.226 322.825 141.379 322.423 141.685 322.159C141.997 321.889 142.48 321.754 143.134 321.754H143.206C143.86 321.754 144.343 321.907 144.655 322.213C144.967 322.513 145.123 322.972 145.123 323.59V323.779H144.322V323.518C144.322 323.14 144.232 322.876 144.052 322.726C143.878 322.57 143.578 322.492 143.152 322.492C142.744 322.492 142.456 322.558 142.288 322.69C142.126 322.816 142.045 323.029 142.045 323.329C142.045 323.539 142.087 323.713 142.171 323.851C142.255 323.971 142.372 324.07 142.522 324.148C142.678 324.226 142.942 324.334 143.314 324.472L143.521 324.553C144.151 324.793 144.574 325.033 144.79 325.273C145.012 325.513 145.132 325.906 145.15 326.452C145.15 327.034 145 327.46 144.7 327.73C144.4 327.994 143.914 328.126 143.242 328.126H143.134C142.45 328.126 141.958 327.979 141.658 327.685C141.358 327.391 141.208 326.911 141.208 326.245Z" fill="#D3FFDA"/>
</g>
<defs>
<clipPath id="clip0_55_514">
<rect width="492" height="500" fill="white"/>
</clipPath>
<clipPath id="clip1_55_514">
<rect width="9" height="9" fill="white" transform="translate(188 246)"/>
</clipPath>
</defs>
</svg>
