<svg width="483" height="483" viewBox="0 0 483 483" fill="none" xmlns="http://www.w3.org/2000/svg">
<g clip-path="url(#clip0_58_1001)">
<path d="M412.551 1.47266V121.216" stroke="#E9E7E7"/>
<path d="M19.0938 1.47266V121.216" stroke="#E9E7E7"/>
<path d="M1.50782 1.47266L1.50781 121.216" stroke="#E9E7E7"/>
<path d="M394.637 1.47266V121.216" stroke="#E9E7E7"/>
<path d="M309.289 1.47266V121.216" stroke="#E9E7E7"/>
<path d="M223.93 1.47266V121.216" stroke="#E9E7E7"/>
<path d="M138.586 1.47266V121.216" stroke="#E9E7E7"/>
<path d="M377.562 1.47266V121.216" stroke="#E9E7E7"/>
<path d="M292.23 1.47266V121.216" stroke="#E9E7E7"/>
<path d="M292.23 1.47266V121.216" stroke="#E9E7E7"/>
<path d="M206.871 1.47266V121.216" stroke="#E9E7E7"/>
<path d="M121.52 1.47266V121.216" stroke="#E9E7E7"/>
<path d="M360.5 1.47266V121.216" stroke="#E9E7E7"/>
<path d="M275.152 1.47266V121.216" stroke="#E9E7E7"/>
<path d="M189.797 1.47266V121.216" stroke="#E9E7E7"/>
<path d="M104.445 1.47266V121.216" stroke="#E9E7E7"/>
<path d="M343.434 1.47266V121.216" stroke="#E9E7E7"/>
<path d="M172.727 1.47266V121.216" stroke="#E9E7E7"/>
<path d="M480.828 1.47266V481.473" stroke="#E9E7E7"/>
<path d="M87.375 1.47266V121.216" stroke="#E9E7E7"/>
<path d="M326.355 1.47266V121.216" stroke="#E9E7E7"/>
<path d="M241.004 1.47266V121.216" stroke="#E9E7E7"/>
<path d="M257.234 1.47266V121.216" stroke="#E9E7E7"/>
<path d="M155.652 1.47266V121.216" stroke="#E9E7E7"/>
<path d="M463.762 1.47266V121.216" stroke="#E9E7E7"/>
<path d="M70.3047 1.47266V121.216" stroke="#E9E7E7"/>
<path d="M446.691 1.47266V121.216" stroke="#E9E7E7"/>
<path d="M53.2305 1.47266V121.216" stroke="#E9E7E7"/>
<path d="M429.633 1.47266V121.216" stroke="#E9E7E7"/>
<path d="M36.1719 1.47266V121.216" stroke="#E9E7E7"/>
<path d="M481.222 18.585H406.863" stroke="#E9E7E7"/>
<path d="M18.5804 18.585H1.50781" stroke="#E9E7E7"/>
<path d="M411.709 18.585H13.4141" stroke="#E9E7E7"/>
<path d="M18.5804 1.47266H1.50781" stroke="#E9E7E7"/>
<path d="M480.712 1.47267L13.418 1.47266" stroke="#E9E7E7"/>
<path d="M481.222 121.232H406.863" stroke="#E9E7E7"/>
<path d="M18.5804 121.232H1.50781" stroke="#E9E7E7"/>
<path d="M411.709 121.232H13.4141" stroke="#E9E7E7"/>
<path d="M481.222 104.121H406.863" stroke="#E9E7E7"/>
<path d="M18.5804 104.121H1.50781" stroke="#E9E7E7"/>
<path d="M411.709 104.121H13.4141" stroke="#E9E7E7"/>
<path d="M481.222 87.0146H406.863" stroke="#E9E7E7"/>
<path d="M18.5804 87.0146H1.50781" stroke="#E9E7E7"/>
<path d="M411.709 87.0146H13.4141" stroke="#E9E7E7"/>
<path d="M481.222 69.9102H406.863" stroke="#E9E7E7"/>
<path d="M18.5804 69.9102H1.50781" stroke="#E9E7E7"/>
<path d="M411.709 69.9102H13.4141" stroke="#E9E7E7"/>
<path d="M481.222 52.7949H406.863" stroke="#E9E7E7"/>
<path d="M18.5804 52.7949H1.50781" stroke="#E9E7E7"/>
<path d="M411.709 52.7949H13.4141" stroke="#E9E7E7"/>
<path d="M481.222 35.6904H406.863" stroke="#E9E7E7"/>
<path d="M18.5804 35.6904H1.50781" stroke="#E9E7E7"/>
<path d="M411.709 35.6904H13.4141" stroke="#E9E7E7"/>
<path d="M412.551 240.962V360.705" stroke="#E9E7E7"/>
<path d="M19.0938 240.962V360.705" stroke="#E9E7E7"/>
<path d="M1.50782 240.962L1.50781 360.705" stroke="#E9E7E7"/>
<path d="M394.637 240.962V360.705" stroke="#E9E7E7"/>
<path d="M309.289 240.962V360.705" stroke="#E9E7E7"/>
<path d="M223.93 240.962V360.705" stroke="#E9E7E7"/>
<path d="M138.586 240.962V360.705" stroke="#E9E7E7"/>
<path d="M377.562 240.962V360.705" stroke="#E9E7E7"/>
<path d="M292.23 240.962V360.705" stroke="#E9E7E7"/>
<path d="M292.23 240.962V360.705" stroke="#E9E7E7"/>
<path d="M206.871 240.962V360.705" stroke="#E9E7E7"/>
<path d="M121.52 240.962V360.705" stroke="#E9E7E7"/>
<path d="M360.5 240.962V360.705" stroke="#E9E7E7"/>
<path d="M275.152 240.962V360.705" stroke="#E9E7E7"/>
<path d="M189.797 240.962V360.705" stroke="#E9E7E7"/>
<path d="M104.445 240.962V360.705" stroke="#E9E7E7"/>
<path d="M343.434 240.962V360.705" stroke="#E9E7E7"/>
<path d="M172.727 240.962V360.705" stroke="#E9E7E7"/>
<path d="M87.375 240.962V360.705" stroke="#E9E7E7"/>
<path d="M326.355 240.962V360.705" stroke="#E9E7E7"/>
<path d="M241.004 240.962V360.705" stroke="#E9E7E7"/>
<path d="M257.234 240.962V360.705" stroke="#E9E7E7"/>
<path d="M155.652 240.962V360.705" stroke="#E9E7E7"/>
<path d="M463.762 240.962V360.705" stroke="#E9E7E7"/>
<path d="M70.3047 240.962V360.705" stroke="#E9E7E7"/>
<path d="M446.691 240.962V360.705" stroke="#E9E7E7"/>
<path d="M53.2305 240.962V360.705" stroke="#E9E7E7"/>
<path d="M429.633 240.962V360.705" stroke="#E9E7E7"/>
<path d="M36.1719 240.962V360.705" stroke="#E9E7E7"/>
<path d="M18.5804 258.066H1.50781" stroke="#E9E7E7"/>
<path d="M481.22 258.066H13.4141" stroke="#E9E7E7"/>
<path d="M18.5804 240.962H1.50781" stroke="#E9E7E7"/>
<path d="M481.22 240.962H13.4141" stroke="#E9E7E7"/>
<path d="M481.222 360.702H406.863" stroke="#E9E7E7"/>
<path d="M18.5804 360.702H1.50781" stroke="#E9E7E7"/>
<path d="M411.709 360.702H13.4141" stroke="#E9E7E7"/>
<path d="M18.5804 343.597H1.50781" stroke="#E9E7E7"/>
<path d="M480.829 343.597H13.4141" stroke="#E9E7E7"/>
<path d="M18.5804 326.492H1.50781" stroke="#E9E7E7"/>
<path d="M481.22 326.492H13.4141" stroke="#E9E7E7"/>
<path d="M18.5804 309.388H1.50781" stroke="#E9E7E7"/>
<path d="M481.22 309.388H13.4141" stroke="#E9E7E7"/>
<path d="M18.5804 292.283H1.50781" stroke="#E9E7E7"/>
<path d="M481.22 292.283H13.4141" stroke="#E9E7E7"/>
<path d="M18.5804 275.171H1.50781" stroke="#E9E7E7"/>
<path d="M481.22 275.171H13.4141" stroke="#E9E7E7"/>
<path d="M412.551 121.232V240.976" stroke="#E9E7E7"/>
<path d="M19.0938 121.232V240.976" stroke="#E9E7E7"/>
<path d="M1.50782 121.232L1.50781 240.976" stroke="#E9E7E7"/>
<path d="M394.637 121.232V240.976" stroke="#E9E7E7"/>
<path d="M309.289 121.232V240.976" stroke="#E9E7E7"/>
<path d="M223.93 121.232V240.976" stroke="#E9E7E7"/>
<path d="M138.586 121.232V240.976" stroke="#E9E7E7"/>
<path d="M377.562 121.232V240.976" stroke="#E9E7E7"/>
<path d="M292.23 121.232V240.976" stroke="#E9E7E7"/>
<path d="M292.23 121.232V240.976" stroke="#E9E7E7"/>
<path d="M206.871 121.232V240.976" stroke="#E9E7E7"/>
<path d="M121.52 121.232V240.976" stroke="#E9E7E7"/>
<path d="M360.5 121.232V240.976" stroke="#E9E7E7"/>
<path d="M275.152 121.232V240.976" stroke="#E9E7E7"/>
<path d="M189.797 121.232V240.976" stroke="#E9E7E7"/>
<path d="M104.445 121.232V240.976" stroke="#E9E7E7"/>
<path d="M343.434 121.232V240.976" stroke="#E9E7E7"/>
<path d="M172.727 121.232V240.976" stroke="#E9E7E7"/>
<path d="M87.375 121.232V240.976" stroke="#E9E7E7"/>
<path d="M326.355 121.232V240.976" stroke="#E9E7E7"/>
<path d="M241.004 121.232V240.976" stroke="#E9E7E7"/>
<path d="M257.234 121.232V240.976" stroke="#E9E7E7"/>
<path d="M155.652 121.232V240.976" stroke="#E9E7E7"/>
<path d="M463.762 121.232V240.976" stroke="#E9E7E7"/>
<path d="M70.3047 121.232V240.976" stroke="#E9E7E7"/>
<path d="M446.691 121.232V240.976" stroke="#E9E7E7"/>
<path d="M53.2305 121.232V240.976" stroke="#E9E7E7"/>
<path d="M429.633 121.232V240.976" stroke="#E9E7E7"/>
<path d="M36.1719 121.232V240.976" stroke="#E9E7E7"/>
<path d="M18.5804 138.326H1.50781" stroke="#E9E7E7"/>
<path d="M481.22 138.326H13.4141" stroke="#E9E7E7"/>
<path d="M481.222 121.232H406.863" stroke="#E9E7E7"/>
<path d="M18.5804 121.232H1.50781" stroke="#E9E7E7"/>
<path d="M411.709 121.232H13.4141" stroke="#E9E7E7"/>
<path d="M18.5804 240.962H1.50781" stroke="#E9E7E7"/>
<path d="M481.22 240.962H13.4141" stroke="#E9E7E7"/>
<path d="M18.5804 223.857H1.50781" stroke="#E9E7E7"/>
<path d="M481.22 223.857H13.4141" stroke="#E9E7E7"/>
<path d="M18.5804 206.752H1.50781" stroke="#E9E7E7"/>
<path d="M481.22 206.752H13.4141" stroke="#E9E7E7"/>
<path d="M18.5804 189.64H1.50781" stroke="#E9E7E7"/>
<path d="M481.22 189.64H13.4141" stroke="#E9E7E7"/>
<path d="M18.5804 172.536H1.50781" stroke="#E9E7E7"/>
<path d="M481.22 172.536H13.4141" stroke="#E9E7E7"/>
<path d="M18.5804 155.431H1.50781" stroke="#E9E7E7"/>
<path d="M481.22 155.431H13.4141" stroke="#E9E7E7"/>
<path d="M412.551 360.702V480.445" stroke="#E9E7E7"/>
<path d="M19.0938 360.702V480.445" stroke="#E9E7E7"/>
<path d="M1.50782 360.702L1.50781 480.445" stroke="#E9E7E7"/>
<path d="M394.637 360.702V480.445" stroke="#E9E7E7"/>
<path d="M309.289 360.702V480.445" stroke="#E9E7E7"/>
<path d="M223.93 360.702V480.445" stroke="#E9E7E7"/>
<path d="M138.586 360.702V480.445" stroke="#E9E7E7"/>
<path d="M377.562 360.702V480.445" stroke="#E9E7E7"/>
<path d="M292.23 360.702V480.445" stroke="#E9E7E7"/>
<path d="M292.23 360.702V480.445" stroke="#E9E7E7"/>
<path d="M206.871 360.702V480.445" stroke="#E9E7E7"/>
<path d="M121.52 360.702V480.445" stroke="#E9E7E7"/>
<path d="M360.5 360.702V480.445" stroke="#E9E7E7"/>
<path d="M275.152 360.702V480.445" stroke="#E9E7E7"/>
<path d="M189.797 360.702V480.445" stroke="#E9E7E7"/>
<path d="M104.445 360.702V480.445" stroke="#E9E7E7"/>
<path d="M343.434 360.702V480.445" stroke="#E9E7E7"/>
<path d="M172.727 360.702V480.445" stroke="#E9E7E7"/>
<path d="M87.375 360.702V480.445" stroke="#E9E7E7"/>
<path d="M326.355 360.702V480.445" stroke="#E9E7E7"/>
<path d="M241.004 360.702V480.445" stroke="#E9E7E7"/>
<path d="M257.234 360.702V480.445" stroke="#E9E7E7"/>
<path d="M155.652 360.702V480.445" stroke="#E9E7E7"/>
<path d="M463.762 360.702V480.445" stroke="#E9E7E7"/>
<path d="M70.3047 360.702V480.445" stroke="#E9E7E7"/>
<path d="M446.691 360.702V480.445" stroke="#E9E7E7"/>
<path d="M53.2305 360.702V480.445" stroke="#E9E7E7"/>
<path d="M429.633 360.702V480.445" stroke="#E9E7E7"/>
<path d="M36.1719 360.702V480.445" stroke="#E9E7E7"/>
<path d="M481.222 377.814H406.863" stroke="#E9E7E7"/>
<path d="M18.5804 377.814H1.50781" stroke="#E9E7E7"/>
<path d="M411.709 377.814H13.4141" stroke="#E9E7E7"/>
<path d="M481.222 360.702H406.863" stroke="#E9E7E7"/>
<path d="M18.5804 360.702H1.50781" stroke="#E9E7E7"/>
<path d="M411.709 360.702H13.4141" stroke="#E9E7E7"/>
<path d="M18.5804 480.45H1.50781" stroke="#E9E7E7"/>
<path d="M481.203 480.45H13.418" stroke="#E9E7E7"/>
<path d="M481.222 463.345H406.863" stroke="#E9E7E7"/>
<path d="M18.5804 463.345H1.50781" stroke="#E9E7E7"/>
<path d="M411.709 463.345H13.4141" stroke="#E9E7E7"/>
<path d="M481.222 446.24H406.863" stroke="#E9E7E7"/>
<path d="M18.5804 446.24H1.50781" stroke="#E9E7E7"/>
<path d="M411.709 446.24H13.4141" stroke="#E9E7E7"/>
<path d="M481.222 429.128H406.863" stroke="#E9E7E7"/>
<path d="M18.5804 429.128H1.50781" stroke="#E9E7E7"/>
<path d="M411.709 429.128H13.4141" stroke="#E9E7E7"/>
<path d="M481.222 412.023H406.863" stroke="#E9E7E7"/>
<path d="M18.5804 412.023H1.50781" stroke="#E9E7E7"/>
<path d="M411.709 412.023H13.4141" stroke="#E9E7E7"/>
<path d="M481.222 394.919H406.863" stroke="#E9E7E7"/>
<path d="M18.5804 394.919H1.50781" stroke="#E9E7E7"/>
<path d="M411.709 394.919H13.4141" stroke="#E9E7E7"/>
<path d="M439.887 1.47656H480.791V48.9482" stroke="#82C38C" stroke-width="2.94852"/>
<path d="M44.4791 480.442H1.52734V432.97" stroke="#82C38C" stroke-width="2.94852"/>
<path d="M1.47656 48.9461V1.47461H44.4284" stroke="#82C38C" stroke-width="2.94852"/>
<path d="M481.182 434.001V481.472L438.23 481.473" stroke="#82C38C" stroke-width="2.94852"/>
<path d="M75.5742 65.0215L64.0049 76.4102L63.9931 76.4219L63.9814 76.4326L52.4414 86.8457V199.875H226.776V65.0215H75.5742Z" fill="#EBEBEB" stroke="#9EA590" stroke-width="1.5"/>
<path d="M430.119 224.584H333.387V417.461H430.119V224.584Z" fill="#EBEBEB" stroke="#9EA590" stroke-width="1.5"/>
<path d="M351.692 247.505L350.605 237.46H351.94L352.614 244.67C352.633 244.854 352.646 245.056 352.656 245.276C352.674 245.496 352.688 245.712 352.697 245.923C352.715 246.133 352.724 246.317 352.724 246.473C352.743 246.317 352.761 246.133 352.779 245.923C352.798 245.712 352.816 245.496 352.834 245.276C352.862 245.056 352.889 244.854 352.917 244.67L353.784 237.46H355.16L355.972 244.67C355.99 244.854 356.008 245.056 356.027 245.276C356.054 245.496 356.082 245.712 356.109 245.923C356.137 246.133 356.155 246.317 356.164 246.473C356.173 246.317 356.183 246.133 356.192 245.923C356.21 245.712 356.229 245.496 356.247 245.276C356.265 245.056 356.284 244.854 356.302 244.67L356.99 237.46H358.283L357.155 247.505H355.435L354.623 240.198C354.605 240.006 354.587 239.804 354.568 239.593C354.55 239.373 354.531 239.162 354.513 238.96C354.495 238.749 354.476 238.575 354.458 238.437C354.449 238.575 354.435 238.749 354.417 238.96C354.398 239.162 354.38 239.373 354.362 239.593C354.343 239.804 354.32 240.006 354.293 240.198L353.426 247.505H351.692ZM361.732 247.642C361.108 247.642 360.567 247.528 360.108 247.298C359.658 247.06 359.31 246.721 359.062 246.28C358.824 245.831 358.704 245.308 358.704 244.712V240.253C358.704 239.648 358.824 239.125 359.062 238.685C359.31 238.245 359.658 237.91 360.108 237.68C360.567 237.442 361.108 237.323 361.732 237.323C362.355 237.323 362.892 237.442 363.342 237.68C363.8 237.91 364.149 238.245 364.387 238.685C364.635 239.125 364.759 239.643 364.759 240.24V244.712C364.759 245.308 364.635 245.831 364.387 246.28C364.149 246.721 363.8 247.06 363.342 247.298C362.892 247.528 362.355 247.642 361.732 247.642ZM361.732 246.322C362.236 246.322 362.617 246.184 362.874 245.909C363.14 245.624 363.273 245.225 363.273 244.712V240.253C363.273 239.731 363.14 239.332 362.874 239.056C362.617 238.781 362.236 238.644 361.732 238.644C361.236 238.644 360.856 238.781 360.59 239.056C360.324 239.332 360.191 239.731 360.191 240.253V244.712C360.191 245.225 360.324 245.624 360.59 245.909C360.856 246.184 361.236 246.322 361.732 246.322ZM366.047 247.505V237.46H369.198C369.831 237.46 370.381 237.584 370.849 237.832C371.317 238.07 371.679 238.41 371.936 238.85C372.202 239.29 372.335 239.809 372.335 240.405C372.335 241.074 372.161 241.657 371.812 242.152C371.473 242.639 371.01 242.983 370.422 243.184L372.473 247.505H370.78L368.95 243.377H367.533V247.505H366.047ZM367.533 242.07H369.198C369.693 242.07 370.088 241.923 370.381 241.629C370.675 241.327 370.821 240.928 370.821 240.432C370.821 239.919 370.675 239.515 370.381 239.222C370.088 238.928 369.693 238.781 369.198 238.781H367.533V242.07ZM373.334 247.505V237.46H374.82V241.643H376.155L378.205 237.46H379.829L377.462 242.276L379.939 247.505H378.274L376.127 242.978H374.82V247.505H373.334ZM380.676 247.505V237.447H386.745V238.822H382.121V241.822H386.387V243.198H382.149V247.505H380.676ZM388.253 247.505V237.46H389.739V246.143H394.128V247.505H388.253ZM398.168 247.642C397.544 247.642 397.003 247.528 396.544 247.298C396.095 247.06 395.746 246.721 395.499 246.28C395.26 245.831 395.141 245.308 395.141 244.712V240.253C395.141 239.648 395.26 239.125 395.499 238.685C395.746 238.245 396.095 237.91 396.544 237.68C397.003 237.442 397.544 237.323 398.168 237.323C398.792 237.323 399.329 237.442 399.778 237.68C400.237 237.91 400.585 238.245 400.824 238.685C401.071 239.125 401.195 239.643 401.195 240.24V244.712C401.195 245.308 401.071 245.831 400.824 246.28C400.585 246.721 400.237 247.06 399.778 247.298C399.329 247.528 398.792 247.642 398.168 247.642ZM398.168 246.322C398.673 246.322 399.053 246.184 399.31 245.909C399.576 245.624 399.709 245.225 399.709 244.712V240.253C399.709 239.731 399.576 239.332 399.31 239.056C399.053 238.781 398.673 238.644 398.168 238.644C397.673 238.644 397.292 238.781 397.026 239.056C396.76 239.332 396.627 239.731 396.627 240.253V244.712C396.627 245.225 396.76 245.624 397.026 245.909C397.292 246.184 397.673 246.322 398.168 246.322ZM402.703 247.505L401.616 237.46H402.951L403.625 244.67C403.644 244.854 403.657 245.056 403.667 245.276C403.685 245.496 403.699 245.712 403.708 245.923C403.726 246.133 403.735 246.317 403.735 246.473C403.754 246.317 403.772 246.133 403.79 245.923C403.809 245.712 403.827 245.496 403.846 245.276C403.873 245.056 403.901 244.854 403.928 244.67L404.795 237.46H406.171L406.983 244.67C407.001 244.854 407.019 245.056 407.038 245.276C407.065 245.496 407.093 245.712 407.12 245.923C407.148 246.133 407.166 246.317 407.175 246.473C407.185 246.317 407.194 246.133 407.203 245.923C407.221 245.712 407.24 245.496 407.258 245.276C407.276 245.056 407.295 244.854 407.313 244.67L408.001 237.46H409.294L408.166 247.505H406.446L405.634 240.198C405.616 240.006 405.598 239.804 405.579 239.593C405.561 239.373 405.543 239.162 405.524 238.96C405.506 238.749 405.488 238.575 405.469 238.437C405.46 238.575 405.446 238.749 405.428 238.96C405.41 239.162 405.391 239.373 405.373 239.593C405.354 239.804 405.332 240.006 405.304 240.198L404.437 247.505H402.703Z" fill="#9EA590"/>
<path d="M381.77 292.032V378.522" stroke="#9EA590" stroke-width="0.98284"/>
<path d="M421.043 260.582H342.457V292.033H421.043V260.582Z" fill="#E1E2DF"/>
<path d="M421.043 260.582H342.457V292.033H421.043V260.582Z" stroke="#9EA590" stroke-width="0.98284"/>
<path d="M357.289 280.308V271.686H362.49V272.866H358.527V275.437H362.183V276.616H358.551V280.308H357.289ZM366.035 280.426C365.21 280.426 364.573 280.201 364.125 279.753C363.677 279.297 363.453 278.68 363.453 277.902V271.698H364.726V277.902C364.726 278.334 364.832 278.676 365.045 278.928C365.265 279.179 365.595 279.305 366.035 279.305C366.468 279.305 366.794 279.179 367.014 278.928C367.235 278.676 367.345 278.334 367.345 277.902V271.698H368.618V277.902C368.618 278.68 368.394 279.297 367.946 279.753C367.498 280.201 366.861 280.426 366.035 280.426ZM369.699 280.308V271.698H371.303L373.815 278.857C373.799 278.629 373.78 278.358 373.756 278.043C373.732 277.729 373.713 277.402 373.697 277.064C373.689 276.726 373.685 276.42 373.685 276.144V271.698H374.865V280.308H373.261L370.76 273.149C370.776 273.353 370.792 273.609 370.807 273.915C370.831 274.222 370.847 274.54 370.855 274.871C370.87 275.201 370.878 275.507 370.878 275.79V280.308H369.699ZM378.575 280.426C378.04 280.426 377.573 280.327 377.172 280.131C376.779 279.926 376.472 279.635 376.252 279.258C376.039 278.873 375.933 278.424 375.933 277.913V274.092C375.933 273.573 376.039 273.125 376.252 272.748C376.472 272.37 376.779 272.083 377.172 271.887C377.573 271.682 378.04 271.58 378.575 271.58C379.11 271.58 379.574 271.682 379.967 271.887C380.36 272.091 380.663 272.382 380.875 272.759C381.095 273.129 381.205 273.573 381.205 274.092H379.931C379.931 273.644 379.814 273.302 379.578 273.066C379.342 272.83 379.008 272.712 378.575 272.712C378.143 272.712 377.805 272.83 377.561 273.066C377.325 273.302 377.207 273.64 377.207 274.08V277.913C377.207 278.354 377.325 278.696 377.561 278.94C377.805 279.175 378.143 279.293 378.575 279.293C379.008 279.293 379.342 279.175 379.578 278.94C379.814 278.696 379.931 278.354 379.931 277.913H381.205C381.205 278.424 381.095 278.869 380.875 279.246C380.663 279.624 380.36 279.914 379.967 280.119C379.574 280.323 379.11 280.426 378.575 280.426ZM384.137 280.308V272.866H381.837V271.686H387.711V272.866H385.411V280.308H384.137ZM388.638 280.308V279.175H390.372V272.83H388.638V271.698H393.403V272.83H391.669V279.175H393.403V280.308H388.638ZM397.267 280.426C396.732 280.426 396.268 280.327 395.875 280.131C395.49 279.926 395.191 279.635 394.979 279.258C394.774 278.873 394.672 278.424 394.672 277.913V274.092C394.672 273.573 394.774 273.125 394.979 272.748C395.191 272.37 395.49 272.083 395.875 271.887C396.268 271.682 396.732 271.58 397.267 271.58C397.801 271.58 398.261 271.682 398.647 271.887C399.04 272.083 399.339 272.37 399.543 272.748C399.755 273.125 399.861 273.569 399.861 274.08V277.913C399.861 278.424 399.755 278.873 399.543 279.258C399.339 279.635 399.04 279.926 398.647 280.131C398.261 280.327 397.801 280.426 397.267 280.426ZM397.267 279.293C397.699 279.293 398.025 279.175 398.246 278.94C398.474 278.696 398.588 278.354 398.588 277.913V274.092C398.588 273.644 398.474 273.302 398.246 273.066C398.025 272.83 397.699 272.712 397.267 272.712C396.842 272.712 396.516 272.83 396.288 273.066C396.06 273.302 395.946 273.644 395.946 274.092V277.913C395.946 278.354 396.06 278.696 396.288 278.94C396.516 279.175 396.842 279.293 397.267 279.293ZM400.93 280.308V271.698H402.534L405.046 278.857C405.03 278.629 405.011 278.358 404.987 278.043C404.964 277.729 404.944 277.402 404.928 277.064C404.92 276.726 404.916 276.42 404.916 276.144V271.698H406.096V280.308H404.492L401.992 273.149C402.007 273.353 402.023 273.609 402.039 273.915C402.062 274.222 402.078 274.54 402.086 274.871C402.102 275.201 402.109 275.507 402.109 275.79V280.308H400.93Z" fill="#9EA590"/>
<path d="M421.043 299.896H342.457V331.347H421.043V299.896Z" fill="#E1E2DF"/>
<path d="M421.043 299.896H342.457V331.347H421.043V299.896Z" stroke="#9EA590" stroke-width="0.98284"/>
<path d="M357.289 319.621V311H362.49V312.179H358.527V314.75H362.183V315.93H358.551V319.621H357.289ZM366.035 319.739C365.21 319.739 364.573 319.515 364.125 319.067C363.677 318.611 363.453 317.994 363.453 317.215V311.011H364.726V317.215C364.726 317.648 364.832 317.99 365.045 318.241C365.265 318.493 365.595 318.619 366.035 318.619C366.468 318.619 366.794 318.493 367.014 318.241C367.235 317.99 367.345 317.648 367.345 317.215V311.011H368.618V317.215C368.618 317.994 368.394 318.611 367.946 319.067C367.498 319.515 366.861 319.739 366.035 319.739ZM369.699 319.621V311.011H371.303L373.815 318.17C373.799 317.942 373.78 317.671 373.756 317.357C373.732 317.042 373.713 316.716 373.697 316.378C373.689 316.04 373.685 315.733 373.685 315.458V311.011H374.865V319.621H373.261L370.76 312.462C370.776 312.667 370.792 312.922 370.807 313.229C370.831 313.535 370.847 313.854 370.855 314.184C370.87 314.514 370.878 314.821 370.878 315.104V319.621H369.699ZM378.575 319.739C378.04 319.739 377.573 319.641 377.172 319.444C376.779 319.24 376.472 318.949 376.252 318.571C376.039 318.186 375.933 317.738 375.933 317.227V313.406C375.933 312.887 376.039 312.439 376.252 312.061C376.472 311.684 376.779 311.397 377.172 311.2C377.573 310.996 378.04 310.893 378.575 310.893C379.11 310.893 379.574 310.996 379.967 311.2C380.36 311.405 380.663 311.695 380.875 312.073C381.095 312.442 381.205 312.887 381.205 313.406H379.931C379.931 312.957 379.814 312.615 379.578 312.38C379.342 312.144 379.008 312.026 378.575 312.026C378.143 312.026 377.805 312.144 377.561 312.38C377.325 312.615 377.207 312.954 377.207 313.394V317.227C377.207 317.667 377.325 318.009 377.561 318.253C377.805 318.489 378.143 318.607 378.575 318.607C379.008 318.607 379.342 318.489 379.578 318.253C379.814 318.009 379.931 317.667 379.931 317.227H381.205C381.205 317.738 381.095 318.182 380.875 318.56C380.663 318.937 380.36 319.228 379.967 319.432C379.574 319.637 379.11 319.739 378.575 319.739ZM384.137 319.621V312.179H381.837V311H387.711V312.179H385.411V319.621H384.137ZM388.638 319.621V318.489H390.372V312.144H388.638V311.011H393.403V312.144H391.669V318.489H393.403V319.621H388.638ZM397.267 319.739C396.732 319.739 396.268 319.641 395.875 319.444C395.49 319.24 395.191 318.949 394.979 318.571C394.774 318.186 394.672 317.738 394.672 317.227V313.406C394.672 312.887 394.774 312.439 394.979 312.061C395.191 311.684 395.49 311.397 395.875 311.2C396.268 310.996 396.732 310.893 397.267 310.893C397.801 310.893 398.261 310.996 398.647 311.2C399.04 311.397 399.339 311.684 399.543 312.061C399.755 312.439 399.861 312.883 399.861 313.394V317.227C399.861 317.738 399.755 318.186 399.543 318.571C399.339 318.949 399.04 319.24 398.647 319.444C398.261 319.641 397.801 319.739 397.267 319.739ZM397.267 318.607C397.699 318.607 398.025 318.489 398.246 318.253C398.474 318.009 398.588 317.667 398.588 317.227V313.406C398.588 312.957 398.474 312.615 398.246 312.38C398.025 312.144 397.699 312.026 397.267 312.026C396.842 312.026 396.516 312.144 396.288 312.38C396.06 312.615 395.946 312.957 395.946 313.406V317.227C395.946 317.667 396.06 318.009 396.288 318.253C396.516 318.489 396.842 318.607 397.267 318.607ZM400.93 319.621V311.011H402.534L405.046 318.17C405.03 317.942 405.011 317.671 404.987 317.357C404.964 317.042 404.944 316.716 404.928 316.378C404.92 316.04 404.916 315.733 404.916 315.458V311.011H406.096V319.621H404.492L401.992 312.462C402.007 312.667 402.023 312.922 402.039 313.229C402.062 313.535 402.078 313.854 402.086 314.184C402.102 314.514 402.109 314.821 402.109 315.104V319.621H400.93Z" fill="#9EA590"/>
<path d="M421.043 339.209H342.457V370.66H421.043V339.209Z" fill="#E1E2DF"/>
<path d="M421.043 339.209H342.457V370.66H421.043V339.209Z" stroke="#9EA590" stroke-width="0.98284"/>
<path d="M357.289 358.935V350.313H362.49V351.493H358.527V354.064H362.183V355.243H358.551V358.935H357.289ZM366.035 359.053C365.21 359.053 364.573 358.828 364.125 358.38C363.677 357.924 363.453 357.307 363.453 356.529V350.325H364.726V356.529C364.726 356.961 364.832 357.303 365.045 357.555C365.265 357.806 365.595 357.932 366.035 357.932C366.468 357.932 366.794 357.806 367.014 357.555C367.235 357.303 367.345 356.961 367.345 356.529V350.325H368.618V356.529C368.618 357.307 368.394 357.924 367.946 358.38C367.498 358.828 366.861 359.053 366.035 359.053ZM369.699 358.935V350.325H371.303L373.815 357.484C373.799 357.256 373.78 356.985 373.756 356.67C373.732 356.356 373.713 356.029 373.697 355.691C373.689 355.353 373.685 355.046 373.685 354.771V350.325H374.865V358.935H373.261L370.76 351.776C370.776 351.98 370.792 352.236 370.807 352.542C370.831 352.849 370.847 353.167 370.855 353.498C370.87 353.828 370.878 354.134 370.878 354.417V358.935H369.699ZM378.575 359.053C378.04 359.053 377.573 358.954 377.172 358.758C376.779 358.553 376.472 358.262 376.252 357.885C376.039 357.5 375.933 357.051 375.933 356.54V352.719C375.933 352.2 376.039 351.752 376.252 351.375C376.472 350.997 376.779 350.71 377.172 350.514C377.573 350.309 378.04 350.207 378.575 350.207C379.11 350.207 379.574 350.309 379.967 350.514C380.36 350.718 380.663 351.009 380.875 351.386C381.095 351.756 381.205 352.2 381.205 352.719H379.931C379.931 352.271 379.814 351.929 379.578 351.693C379.342 351.457 379.008 351.339 378.575 351.339C378.143 351.339 377.805 351.457 377.561 351.693C377.325 351.929 377.207 352.267 377.207 352.707V356.54C377.207 356.981 377.325 357.323 377.561 357.566C377.805 357.802 378.143 357.92 378.575 357.92C379.008 357.92 379.342 357.802 379.578 357.566C379.814 357.323 379.931 356.981 379.931 356.54H381.205C381.205 357.051 381.095 357.496 380.875 357.873C380.663 358.251 380.36 358.541 379.967 358.746C379.574 358.95 379.11 359.053 378.575 359.053ZM384.137 358.935V351.493H381.837V350.313H387.711V351.493H385.411V358.935H384.137ZM388.638 358.935V357.802H390.372V351.457H388.638V350.325H393.403V351.457H391.669V357.802H393.403V358.935H388.638ZM397.267 359.053C396.732 359.053 396.268 358.954 395.875 358.758C395.49 358.553 395.191 358.262 394.979 357.885C394.774 357.5 394.672 357.051 394.672 356.54V352.719C394.672 352.2 394.774 351.752 394.979 351.375C395.191 350.997 395.49 350.71 395.875 350.514C396.268 350.309 396.732 350.207 397.267 350.207C397.801 350.207 398.261 350.309 398.647 350.514C399.04 350.71 399.339 350.997 399.543 351.375C399.755 351.752 399.861 352.196 399.861 352.707V356.54C399.861 357.051 399.755 357.5 399.543 357.885C399.339 358.262 399.04 358.553 398.647 358.758C398.261 358.954 397.801 359.053 397.267 359.053ZM397.267 357.92C397.699 357.92 398.025 357.802 398.246 357.566C398.474 357.323 398.588 356.981 398.588 356.54V352.719C398.588 352.271 398.474 351.929 398.246 351.693C398.025 351.457 397.699 351.339 397.267 351.339C396.842 351.339 396.516 351.457 396.288 351.693C396.06 351.929 395.946 352.271 395.946 352.719V356.54C395.946 356.981 396.06 357.323 396.288 357.566C396.516 357.802 396.842 357.92 397.267 357.92ZM400.93 358.935V350.325H402.534L405.046 357.484C405.03 357.256 405.011 356.985 404.987 356.67C404.964 356.356 404.944 356.029 404.928 355.691C404.92 355.353 404.916 355.046 404.916 354.771V350.325H406.096V358.935H404.492L401.992 351.776C402.007 351.98 402.023 352.236 402.039 352.542C402.062 352.849 402.078 353.167 402.086 353.498C402.102 353.828 402.109 354.134 402.109 354.417V358.935H400.93Z" fill="#9EA590"/>
<path d="M421.043 378.523H342.457V409.974H421.043V378.523Z" fill="#E1E2DF"/>
<path d="M421.043 378.523H342.457V409.974H421.043V378.523Z" stroke="#9EA590" stroke-width="0.98284"/>
<path d="M357.289 398.249V389.628H362.49V390.806H358.527V393.378H362.183V394.557H358.551V398.249H357.289ZM366.035 398.366C365.21 398.366 364.573 398.142 364.125 397.694C363.677 397.238 363.453 396.621 363.453 395.843V389.639H364.726V395.843C364.726 396.275 364.832 396.617 365.045 396.869C365.265 397.12 365.595 397.246 366.035 397.246C366.468 397.246 366.794 397.12 367.014 396.869C367.235 396.617 367.345 396.275 367.345 395.843V389.639H368.618V395.843C368.618 396.621 368.394 397.238 367.946 397.694C367.498 398.142 366.861 398.366 366.035 398.366ZM369.699 398.249V389.639H371.303L373.815 396.798C373.799 396.57 373.78 396.299 373.756 395.984C373.732 395.67 373.713 395.343 373.697 395.005C373.689 394.667 373.685 394.36 373.685 394.085V389.639H374.865V398.249H373.261L370.76 391.09C370.776 391.294 370.792 391.549 370.807 391.856C370.831 392.163 370.847 392.481 370.855 392.811C370.87 393.142 370.878 393.448 370.878 393.731V398.249H369.699ZM378.575 398.366C378.04 398.366 377.573 398.268 377.172 398.072C376.779 397.867 376.472 397.576 376.252 397.199C376.039 396.814 375.933 396.365 375.933 395.854V392.033C375.933 391.514 376.039 391.066 376.252 390.689C376.472 390.311 376.779 390.024 377.172 389.828C377.573 389.623 378.04 389.521 378.575 389.521C379.11 389.521 379.574 389.623 379.967 389.828C380.36 390.032 380.663 390.324 380.875 390.701C381.095 391.071 381.205 391.514 381.205 392.033H379.931C379.931 391.585 379.814 391.243 379.578 391.007C379.342 390.771 379.008 390.654 378.575 390.654C378.143 390.654 377.805 390.771 377.561 391.007C377.325 391.243 377.207 391.581 377.207 392.021V395.854C377.207 396.295 377.325 396.637 377.561 396.88C377.805 397.116 378.143 397.234 378.575 397.234C379.008 397.234 379.342 397.116 379.578 396.88C379.814 396.637 379.931 396.295 379.931 395.854H381.205C381.205 396.365 381.095 396.81 380.875 397.188C380.663 397.565 380.36 397.855 379.967 398.06C379.574 398.264 379.11 398.366 378.575 398.366ZM384.137 398.249V390.806H381.837V389.628H387.711V390.806H385.411V398.249H384.137ZM388.638 398.249V397.116H390.372V390.771H388.638V389.639H393.403V390.771H391.669V397.116H393.403V398.249H388.638ZM397.267 398.366C396.732 398.366 396.268 398.268 395.875 398.072C395.49 397.867 395.191 397.576 394.979 397.199C394.774 396.814 394.672 396.365 394.672 395.854V392.033C394.672 391.514 394.774 391.066 394.979 390.689C395.191 390.311 395.49 390.024 395.875 389.828C396.268 389.623 396.732 389.521 397.267 389.521C397.801 389.521 398.261 389.623 398.647 389.828C399.04 390.024 399.339 390.311 399.543 390.689C399.755 391.066 399.861 391.51 399.861 392.021V395.854C399.861 396.365 399.755 396.814 399.543 397.199C399.339 397.576 399.04 397.867 398.647 398.072C398.261 398.268 397.801 398.366 397.267 398.366ZM397.267 397.234C397.699 397.234 398.025 397.116 398.246 396.88C398.474 396.637 398.588 396.295 398.588 395.854V392.033C398.588 391.585 398.474 391.243 398.246 391.007C398.025 390.771 397.699 390.654 397.267 390.654C396.842 390.654 396.516 390.771 396.288 391.007C396.06 391.243 395.946 391.585 395.946 392.033V395.854C395.946 396.295 396.06 396.637 396.288 396.88C396.516 397.116 396.842 397.234 397.267 397.234ZM400.93 398.249V389.639H402.534L405.046 396.798C405.03 396.57 405.011 396.299 404.987 395.984C404.964 395.67 404.944 395.343 404.928 395.005C404.92 394.667 404.916 394.36 404.916 394.085V389.639H406.096V398.249H404.492L401.992 391.09C402.007 391.294 402.023 391.549 402.039 391.856C402.062 392.163 402.078 392.481 402.086 392.811C402.102 393.142 402.109 393.448 402.109 393.731V398.249H400.93Z" fill="#9EA590"/>
<path d="M218.768 72.0068H180.438V110.338H218.768V72.0068Z" fill="#C6CAC0"/>
<path d="M135.229 100.51H61.5156V110.338H135.229V100.51Z" fill="#C6CAC0"/>
<path d="M105.743 86.75H61.5156V96.5784H105.743V86.75Z" fill="#C6CAC0"/>
<path d="M61.5156 120.167H217.296" stroke="#C6CAC0" stroke-width="1.96568" stroke-dasharray="5.9 5.9"/>
<path d="M105.743 143.754H61.5156V153.582H105.743V143.754Z" fill="#C6CAC0"/>
<path d="M193.217 129.995H61.5156V139.824H193.217V129.995Z" fill="#C6CAC0"/>
<path d="M177.492 143.754H109.676V153.582H177.492V143.754Z" fill="#C6CAC0"/>
<path d="M113.612 163.411H61.5156V193.879H113.612V163.411Z" fill="#9EA590" fill-opacity="0.12" stroke="#9EA590" stroke-width="0.98284"/>
<path d="M166.671 163.411H113.609V193.879H166.671V163.411Z" fill="#9EA590" fill-opacity="0.12" stroke="#9EA590" stroke-width="0.98284"/>
<path d="M218.768 163.411H166.672V193.879H218.768V163.411Z" fill="#9EA590" fill-opacity="0.12" stroke="#9EA590" stroke-width="0.98284"/>
<path d="M218.77 178.646H61.5156V193.88H218.77V178.646Z" stroke="#9EA590" stroke-width="0.98284"/>
<path d="M308.309 224.584H52.4414V417.461H308.309V224.584Z" fill="#EBEBEB" stroke="#9EA590" stroke-width="1.5"/>
<path d="M176.68 264.233H62.2656V347.834H176.68V264.233Z" fill="#9EA590" fill-opacity="0.12" stroke="#9EA590" stroke-width="1.5"/>
<path d="M70.4102 282.252V273.631H75.6114V274.81H71.6486V277.381H75.3048V278.561H71.6722V282.252H70.4102ZM79.1568 282.37C78.3312 282.37 77.6944 282.146 77.2462 281.698C76.798 281.242 76.5739 280.625 76.5739 279.846V273.643H77.8477V279.846C77.8477 280.279 77.9538 280.621 78.1661 280.873C78.3863 281.124 78.7165 281.25 79.1568 281.25C79.5893 281.25 79.9156 281.124 80.1357 280.873C80.3559 280.621 80.466 280.279 80.466 279.846V273.643H81.7397V279.846C81.7397 280.625 81.5156 281.242 81.0675 281.698C80.6193 282.146 79.9824 282.37 79.1568 282.37ZM82.8202 282.252V273.643H84.4242L86.9363 280.802C86.9206 280.574 86.9009 280.302 86.8773 279.988C86.8537 279.673 86.8341 279.347 86.8184 279.009C86.8105 278.671 86.8066 278.364 86.8066 278.089V273.643H87.986V282.252H86.382L83.8816 275.093C83.8974 275.298 83.9131 275.553 83.9288 275.86C83.9524 276.167 83.9681 276.485 83.976 276.815C83.9917 277.146 83.9996 277.452 83.9996 277.735V282.252H82.8202ZM91.6965 282.37C91.1618 282.37 90.694 282.272 90.293 282.076C89.8999 281.871 89.5932 281.58 89.3731 281.203C89.1608 280.817 89.0546 280.369 89.0546 279.858V276.037C89.0546 275.518 89.1608 275.07 89.3731 274.692C89.5932 274.315 89.8999 274.028 90.293 273.831C90.694 273.627 91.1618 273.525 91.6965 273.525C92.2312 273.525 92.6951 273.627 93.0882 273.831C93.4813 274.036 93.7841 274.327 93.9964 274.704C94.2165 275.074 94.3266 275.518 94.3266 276.037H93.0528C93.0528 275.589 92.9349 275.247 92.699 275.011C92.4631 274.775 92.129 274.657 91.6965 274.657C91.2641 274.657 90.926 274.775 90.6822 275.011C90.4463 275.247 90.3284 275.585 90.3284 276.025V279.858C90.3284 280.299 90.4463 280.641 90.6822 280.884C90.926 281.12 91.2641 281.238 91.6965 281.238C92.129 281.238 92.4631 281.12 92.699 280.884C92.9349 280.641 93.0528 280.299 93.0528 279.858H94.3266C94.3266 280.369 94.2165 280.814 93.9964 281.191C93.7841 281.568 93.4813 281.859 93.0882 282.064C92.6951 282.268 92.2312 282.37 91.6965 282.37ZM97.2587 282.252V274.81H94.9589V273.631H100.832V274.81H98.5325V282.252H97.2587ZM101.759 282.252V281.12H103.493V274.775H101.759V273.643H106.524V274.775H104.79V281.12H106.524V282.252H101.759ZM110.388 282.37C109.853 282.37 109.389 282.272 108.996 282.076C108.611 281.871 108.312 281.58 108.1 281.203C107.895 280.817 107.793 280.369 107.793 279.858V276.037C107.793 275.518 107.895 275.07 108.1 274.692C108.312 274.315 108.611 274.028 108.996 273.831C109.389 273.627 109.853 273.525 110.388 273.525C110.922 273.525 111.382 273.627 111.768 273.831C112.161 274.028 112.46 274.315 112.664 274.692C112.876 275.07 112.982 275.514 112.982 276.025V279.858C112.982 280.369 112.876 280.817 112.664 281.203C112.46 281.58 112.161 281.871 111.768 282.076C111.382 282.272 110.922 282.37 110.388 282.37ZM110.388 281.238C110.82 281.238 111.147 281.12 111.367 280.884C111.595 280.641 111.709 280.299 111.709 279.858V276.037C111.709 275.589 111.595 275.247 111.367 275.011C111.147 274.775 110.82 274.657 110.388 274.657C109.963 274.657 109.637 274.775 109.409 275.011C109.181 275.247 109.067 275.589 109.067 276.037V279.858C109.067 280.299 109.181 280.641 109.409 280.884C109.637 281.12 109.963 281.238 110.388 281.238ZM114.051 282.252V273.643H115.655L118.167 280.802C118.152 280.574 118.132 280.302 118.108 279.988C118.085 279.673 118.065 279.347 118.049 279.009C118.041 278.671 118.038 278.364 118.038 278.089V273.643H119.217V282.252H117.613L115.113 275.093C115.128 275.298 115.144 275.553 115.16 275.86C115.183 276.167 115.199 276.485 115.207 276.815C115.223 277.146 115.231 277.452 115.231 277.735V282.252H114.051Z" fill="#9EA590"/>
<path d="M145.87 314.755H69.3711V324.583H145.87V314.755Z" fill="#9EA590" fill-opacity="0.4"/>
<path d="M112.174 328.515H69.3711V338.343H112.174V328.515Z" fill="#9EA590" fill-opacity="0.4"/>
<path d="M168.641 328.515H115.82V338.343H168.641V328.515Z" fill="#9EA590" fill-opacity="0.4"/>
<path d="M298.487 363.839H62.2656V406.823H298.487V363.839Z" fill="#9EA590" fill-opacity="0.12"/>
<path d="M298.487 363.839H62.2656V406.823H298.487V363.839Z" stroke="#9EA590" stroke-width="1.5"/>
<path d="M298.484 264.233H184.07V347.834H298.484V264.233Z" fill="#9EA590" fill-opacity="0.12" stroke="#9EA590" stroke-width="1.5"/>
<path d="M192.219 282.252V273.631H197.42V274.81H193.457V277.381H197.113V278.561H193.481V282.252H192.219ZM200.965 282.37C200.14 282.37 199.503 282.146 199.055 281.698C198.606 281.242 198.382 280.625 198.382 279.846V273.643H199.656V279.846C199.656 280.279 199.762 280.621 199.974 280.873C200.195 281.124 200.525 281.25 200.965 281.25C201.398 281.25 201.724 281.124 201.944 280.873C202.164 280.621 202.274 280.279 202.274 279.846V273.643H203.548V279.846C203.548 280.625 203.324 281.242 202.876 281.698C202.428 282.146 201.791 282.37 200.965 282.37ZM204.628 282.252V273.643H206.232L208.745 280.802C208.729 280.574 208.709 280.302 208.686 279.988C208.662 279.673 208.642 279.347 208.627 279.009C208.619 278.671 208.615 278.364 208.615 278.089V273.643H209.794V282.252H208.19L205.69 275.093C205.706 275.298 205.721 275.553 205.737 275.86C205.761 276.167 205.776 276.485 205.784 276.815C205.8 277.146 205.808 277.452 205.808 277.735V282.252H204.628ZM213.505 282.37C212.97 282.37 212.502 282.272 212.101 282.076C211.708 281.871 211.402 281.58 211.181 281.203C210.969 280.817 210.863 280.369 210.863 279.858V276.037C210.863 275.518 210.969 275.07 211.181 274.692C211.402 274.315 211.708 274.028 212.101 273.831C212.502 273.627 212.97 273.525 213.505 273.525C214.039 273.525 214.503 273.627 214.897 273.831C215.29 274.036 215.592 274.327 215.805 274.704C216.025 275.074 216.135 275.518 216.135 276.037H214.861C214.861 275.589 214.743 275.247 214.507 275.011C214.271 274.775 213.937 274.657 213.505 274.657C213.072 274.657 212.734 274.775 212.491 275.011C212.255 275.247 212.137 275.585 212.137 276.025V279.858C212.137 280.299 212.255 280.641 212.491 280.884C212.734 281.12 213.072 281.238 213.505 281.238C213.937 281.238 214.271 281.12 214.507 280.884C214.743 280.641 214.861 280.299 214.861 279.858H216.135C216.135 280.369 216.025 280.814 215.805 281.191C215.592 281.568 215.29 281.859 214.897 282.064C214.503 282.268 214.039 282.37 213.505 282.37ZM219.067 282.252V274.81H216.767V273.631H222.641V274.81H220.341V282.252H219.067ZM223.568 282.252V281.12H225.301V274.775H223.568V273.643H228.333V274.775H226.599V281.12H228.333V282.252H223.568ZM232.196 282.37C231.662 282.37 231.198 282.272 230.805 282.076C230.419 281.871 230.121 281.58 229.908 281.203C229.704 280.817 229.602 280.369 229.602 279.858V276.037C229.602 275.518 229.704 275.07 229.908 274.692C230.121 274.315 230.419 274.028 230.805 273.831C231.198 273.627 231.662 273.525 232.196 273.525C232.731 273.525 233.191 273.627 233.576 273.831C233.969 274.028 234.268 274.315 234.473 274.692C234.685 275.07 234.791 275.514 234.791 276.025V279.858C234.791 280.369 234.685 280.817 234.473 281.203C234.268 281.58 233.969 281.871 233.576 282.076C233.191 282.272 232.731 282.37 232.196 282.37ZM232.196 281.238C232.629 281.238 232.955 281.12 233.175 280.884C233.403 280.641 233.517 280.299 233.517 279.858V276.037C233.517 275.589 233.403 275.247 233.175 275.011C232.955 274.775 232.629 274.657 232.196 274.657C231.772 274.657 231.446 274.775 231.217 275.011C230.989 275.247 230.875 275.589 230.875 276.037V279.858C230.875 280.299 230.989 280.641 231.217 280.884C231.446 281.12 231.772 281.238 232.196 281.238ZM235.86 282.252V273.643H237.464L239.976 280.802C239.96 280.574 239.941 280.302 239.917 279.988C239.893 279.673 239.874 279.347 239.858 279.009C239.85 278.671 239.846 278.364 239.846 278.089V273.643H241.026V282.252H239.422L236.921 275.093C236.937 275.298 236.953 275.553 236.968 275.86C236.992 276.167 237.008 276.485 237.016 276.815C237.031 277.146 237.039 277.452 237.039 277.735V282.252H235.86Z" fill="#9EA590"/>
<path d="M273.738 314.755H191.18V324.583H273.738V314.755Z" fill="#9EA590" fill-opacity="0.4"/>
<path d="M219.682 328.515H191.18V338.343H219.682V328.515Z" fill="#9EA590" fill-opacity="0.4"/>
<path d="M258.015 328.515H222.633V338.343H258.015V328.515Z" fill="#9EA590" fill-opacity="0.4"/>
<path d="M119.473 348.583V356.182H190.2V363.089" stroke="#9EA590" stroke-width="1.5"/>
<path d="M240.297 348.583V356.182H169.57V363.089" stroke="#9EA590" stroke-width="1.5"/>
<path d="M64.4148 246.472V243.299L61.8555 237.862H63.1764L64.6978 241.117C64.8001 241.329 64.8826 241.53 64.9455 241.719C65.0084 241.9 65.0517 242.041 65.0753 242.143C65.091 242.041 65.1303 241.9 65.1932 241.719C65.264 241.53 65.3465 241.329 65.4409 241.117L66.9269 237.862H68.2479L65.6886 243.299V246.472H64.4148ZM71.2979 246.59C70.7633 246.59 70.2994 246.491 69.9062 246.295C69.521 246.09 69.2222 245.799 69.0099 245.422C68.8054 245.037 68.7032 244.589 68.7032 244.077V240.256C68.7032 239.737 68.8054 239.289 69.0099 238.912C69.2222 238.534 69.521 238.247 69.9062 238.051C70.2994 237.846 70.7633 237.744 71.2979 237.744C71.8326 237.744 72.2926 237.846 72.6778 238.051C73.071 238.247 73.3698 238.534 73.5742 238.912C73.7865 239.289 73.8926 239.733 73.8926 240.244V244.077C73.8926 244.589 73.7865 245.037 73.5742 245.422C73.3698 245.799 73.071 246.09 72.6778 246.295C72.2926 246.491 71.8326 246.59 71.2979 246.59ZM71.2979 245.457C71.7304 245.457 72.0567 245.339 72.2768 245.104C72.5049 244.86 72.6189 244.518 72.6189 244.077V240.256C72.6189 239.808 72.5049 239.466 72.2768 239.23C72.0567 238.994 71.7304 238.876 71.2979 238.876C70.8733 238.876 70.547 238.994 70.319 239.23C70.091 239.466 69.977 239.808 69.977 240.256V244.077C69.977 244.518 70.091 244.86 70.319 245.104C70.547 245.339 70.8733 245.457 71.2979 245.457ZM77.5442 246.59C76.7186 246.59 76.0817 246.366 75.6335 245.917C75.1854 245.461 74.9613 244.844 74.9613 244.066V237.862H76.235V244.066C76.235 244.498 76.3412 244.84 76.5535 245.092C76.7736 245.343 77.1039 245.469 77.5442 245.469C77.9766 245.469 78.3029 245.343 78.5231 245.092C78.7432 244.84 78.8533 244.498 78.8533 244.066V237.862H80.1271V244.066C80.1271 244.844 79.903 245.461 79.4548 245.917C79.0066 246.366 78.3698 246.59 77.5442 246.59ZM81.2429 246.472V237.862H83.9438C84.4863 237.862 84.958 237.968 85.359 238.18C85.76 238.385 86.0706 238.676 86.2908 239.053C86.5188 239.431 86.6328 239.875 86.6328 240.386C86.6328 240.96 86.4834 241.459 86.1846 241.884C85.8937 242.301 85.4966 242.595 84.9934 242.768L86.7507 246.472H85.3001L83.7315 242.933H82.5167V246.472H81.2429ZM82.5167 241.813H83.9438C84.3683 241.813 84.7064 241.687 84.958 241.436C85.2097 241.176 85.3355 240.834 85.3355 240.41C85.3355 239.969 85.2097 239.623 84.958 239.372C84.7064 239.12 84.3683 238.994 83.9438 238.994H82.5167V241.813ZM93.2519 246.472L95.4456 237.862H97.1203L99.314 246.472H98.0285L97.5095 244.29H95.0681L94.5492 246.472H93.2519ZM95.304 243.24H97.2618L96.6721 240.752C96.5699 240.311 96.4834 239.93 96.4127 239.608C96.3498 239.277 96.3065 239.053 96.2829 238.935C96.2594 239.053 96.2161 239.277 96.1532 239.608C96.0903 239.93 96.0038 240.307 95.8937 240.74L95.304 243.24ZM102.577 246.59C102.042 246.59 101.574 246.491 101.173 246.295C100.78 246.09 100.473 245.799 100.253 245.422C100.041 245.037 99.9345 244.589 99.9345 244.077V240.256C99.9345 239.737 100.041 239.289 100.253 238.912C100.473 238.534 100.78 238.247 101.173 238.051C101.574 237.846 102.042 237.744 102.577 237.744C103.111 237.744 103.575 237.846 103.968 238.051C104.361 238.255 104.664 238.546 104.876 238.923C105.097 239.293 105.207 239.737 105.207 240.256H103.933C103.933 239.808 103.815 239.466 103.579 239.23C103.343 238.994 103.009 238.876 102.577 238.876C102.144 238.876 101.806 238.994 101.562 239.23C101.326 239.466 101.208 239.804 101.208 240.244V244.077C101.208 244.518 101.326 244.86 101.562 245.104C101.806 245.347 102.144 245.469 102.577 245.469C103.009 245.469 103.343 245.347 103.579 245.104C103.815 244.86 103.933 244.518 103.933 244.077V243.11H102.329V241.99H105.207V244.077C105.207 244.589 105.097 245.033 104.876 245.41C104.664 245.788 104.361 246.079 103.968 246.283C103.575 246.487 103.111 246.59 102.577 246.59ZM106.346 246.472V237.862H111.406V238.994H107.596V241.436H110.993V242.556H107.596V245.339H111.406V246.472H106.346ZM112.439 246.472V237.862H114.043L116.555 245.021C116.539 244.793 116.52 244.522 116.496 244.207C116.473 243.893 116.453 243.566 116.437 243.228C116.429 242.89 116.425 242.584 116.425 242.308V237.862H117.605V246.472H116.001L113.5 239.313C113.516 239.517 113.532 239.773 113.548 240.079C113.571 240.386 113.587 240.704 113.595 241.035C113.611 241.365 113.618 241.671 113.618 241.955V246.472H112.439ZM120.631 246.472V239.03H118.331V237.85H124.205V239.03H121.905V246.472H120.631Z" fill="#9EA590"/>
<path d="M298.253 238.54H290.391V246.403H298.253V238.54Z" stroke="#9EA590" stroke-width="1.96568"/>
<path d="M280.562 238.54H272.699V246.403H280.562V238.54Z" stroke="#9EA590" stroke-width="1.96568"/>
<path d="M262.871 238.54H255.008V246.403H262.871V238.54Z" stroke="#9EA590" stroke-width="1.96568"/>
<path d="M430.117 65.0215H251.852V199.875H430.117V65.0215Z" fill="#EBEBEB" stroke="#9EA590" stroke-width="1.5"/>
<path d="M335.813 74.6914H262.656V127.346H335.813V74.6914Z" fill="#9EA590" fill-opacity="0.12" stroke="#9EA590" stroke-width="1.5"/>
<path d="M335.813 138.517H262.656V191.171H335.813V138.517Z" fill="#9EA590" fill-opacity="0.12" stroke="#9EA590" stroke-width="1.5"/>
<path d="M420.293 74.6914H347.137V127.346H420.293V74.6914Z" fill="#9EA590" fill-opacity="0.12" stroke="#9EA590" stroke-width="1.5"/>
<path d="M420.293 138.517H347.137V191.171H420.293V138.517Z" fill="#9EA590" fill-opacity="0.12" stroke="#9EA590" stroke-width="1.5"/>
<path d="M295.538 81.46H270.516V89.6305H295.538V81.46Z" fill="#9EA590" fill-opacity="0.24" stroke="#9EA590" stroke-width="1.5"/>
<path d="M327.956 81.46H302.934V89.6305H327.956V81.46Z" stroke="#9EA590" stroke-width="1.5"/>
<path d="M295.538 96.9336H270.516V105.104H295.538V96.9336Z" stroke="#9EA590" stroke-width="1.5"/>
<path d="M327.956 96.9336H302.934V105.104H327.956V96.9336Z" fill="#9EA590" fill-opacity="0.24" stroke="#9EA590" stroke-width="1.5"/>
<path d="M295.538 112.407H270.516V120.578H295.538V112.407Z" fill="#9EA590" fill-opacity="0.24" stroke="#9EA590" stroke-width="1.5"/>
<path d="M327.956 112.407H302.934V120.578H327.956V112.407Z" stroke="#9EA590" stroke-width="1.5"/>
<path d="M380.019 145.286H354.996V153.457H380.019V145.286Z" fill="#9EA590" fill-opacity="0.24" stroke="#9EA590" stroke-width="1.5"/>
<path d="M412.433 145.286H387.41V153.457H412.433V145.286Z" stroke="#9EA590" stroke-width="1.5"/>
<path d="M380.019 160.759H354.996V168.929H380.019V160.759Z" stroke="#9EA590" stroke-width="1.5"/>
<path d="M412.433 160.759H387.41V168.929H412.433V160.759Z" fill="#9EA590" fill-opacity="0.24" stroke="#9EA590" stroke-width="1.5"/>
<path d="M380.019 176.231H354.996V184.402H380.019V176.231Z" fill="#9EA590" fill-opacity="0.24" stroke="#9EA590" stroke-width="1.5"/>
<path d="M412.433 176.231H387.41V184.402H412.433V176.231Z" stroke="#9EA590" stroke-width="1.5"/>
<path d="M327.955 145.286H270.516V184.402H327.955V145.286Z" fill="#9EA590" fill-opacity="0.12" stroke="#9EA590" stroke-width="1.5"/>
<path d="M284.503 149.371H274.68V159.042H284.503V149.371Z" fill="#9EA590" fill-opacity="0.4"/>
<path d="M305.132 170.646H274.68V180.317H305.132V170.646Z" fill="#9EA590" fill-opacity="0.4"/>
<path d="M412.436 81.46H398.219V120.576H412.436V81.46Z" fill="#9EA590" fill-opacity="0.16" stroke="#9EA590" stroke-width="1.5"/>
<path d="M390.823 81.46H376.605V120.576H390.823V81.46Z" fill="#9EA590" fill-opacity="0.16" stroke="#9EA590" stroke-width="1.5"/>
<path d="M369.213 81.46H354.996V120.576H369.213V81.46Z" fill="#9EA590" fill-opacity="0.16" stroke="#9EA590" stroke-width="1.5"/>
<path d="M144.735 381.52V388.032H148.321V389H143.701V381.52H144.735ZM150.979 381.52V388.032H154.565V389H149.945V381.52H150.979ZM155.562 389V381.52H157.146L158.125 385.601H158.169L159.148 381.52H160.732V389H159.753V385.48L159.786 382.213H159.709L158.554 386.987H157.685L156.53 382.213H156.453L156.486 385.48V389H155.562ZM168.403 389V381.52H170.361C171.387 381.52 172.124 381.7 172.572 382.059C173.019 382.418 173.243 383.009 173.243 383.83C173.243 384.644 173.023 385.231 172.583 385.59C172.143 385.949 171.406 386.129 170.372 386.129H169.426V389H168.403ZM169.426 385.183H170.427C171.087 385.183 171.545 385.084 171.802 384.886C172.058 384.688 172.187 384.336 172.187 383.83C172.187 383.317 172.058 382.961 171.802 382.763C171.545 382.565 171.087 382.466 170.427 382.466H169.426V385.183ZM179.531 389H178.387L176.924 385.997H175.648V389H174.636V381.52H176.572C177.576 381.52 178.302 381.696 178.75 382.048C179.204 382.4 179.432 382.965 179.432 383.742C179.432 384.842 178.94 385.542 177.958 385.843L179.531 389ZM175.648 385.062H176.66C177.283 385.062 177.723 384.967 177.98 384.776C178.244 384.578 178.376 384.241 178.376 383.764C178.376 383.28 178.244 382.943 177.98 382.752C177.723 382.561 177.283 382.466 176.66 382.466H175.648V385.062ZM180.693 386.536V383.984C180.693 382.239 181.489 381.366 183.08 381.366H183.168C184.759 381.366 185.555 382.239 185.555 383.984V386.536C185.555 388.281 184.767 389.154 183.19 389.154H183.058C181.481 389.154 180.693 388.281 180.693 386.536ZM184.521 386.613V383.918C184.521 383.346 184.407 382.932 184.18 382.675C183.96 382.411 183.608 382.279 183.124 382.279C182.64 382.279 182.284 382.411 182.057 382.675C181.837 382.932 181.727 383.346 181.727 383.918V386.613C181.727 387.178 181.837 387.592 182.057 387.856C182.284 388.113 182.64 388.241 183.124 388.241C183.608 388.241 183.96 388.113 184.18 387.856C184.407 387.592 184.521 387.178 184.521 386.613ZM188.631 389.077L186.629 381.52H187.685L189.368 388.164H189.434L191.095 381.52H192.107L190.127 389.077H188.631ZM197.768 382.466H196.129V388.054H197.768V389H193.456V388.054H195.095V382.466H193.456V381.52H197.768V382.466ZM199.591 389V381.52H201.758C203.452 381.52 204.299 382.356 204.299 384.028V386.448C204.299 387.335 204.093 387.984 203.683 388.395C203.272 388.798 202.638 389 201.78 389H199.591ZM200.625 388.054H201.791C202.319 388.054 202.696 387.933 202.924 387.691C203.151 387.449 203.265 387.035 203.265 386.448V384.028C203.265 383.463 203.147 383.064 202.913 382.829C202.685 382.587 202.308 382.466 201.78 382.466H200.625V388.054ZM205.912 389V381.52H210.576V382.477H206.935V384.71H210.191V385.656H206.935V388.043H210.576V389H205.912ZM216.996 389H215.852L214.389 385.997H213.113V389H212.101V381.52H214.037C215.042 381.52 215.768 381.696 216.215 382.048C216.67 382.4 216.897 382.965 216.897 383.742C216.897 384.842 216.406 385.542 215.423 385.843L216.996 389ZM213.113 385.062H214.125C214.748 385.062 215.188 384.967 215.445 384.776C215.709 384.578 215.841 384.241 215.841 383.764C215.841 383.28 215.709 382.943 215.445 382.752C215.188 382.561 214.748 382.466 214.125 382.466H213.113V385.062Z" fill="#9EA590"/>
</g>
<defs>
<clipPath id="clip0_58_1001">
<rect width="483" height="483" fill="white"/>
</clipPath>
</defs>
</svg>
